<svg id="Capa_1" enable-background="new 0 0 511.993 511.993" height="512" viewBox="0 0 511.993 511.993" width="512" xmlns="http://www.w3.org/2000/svg"><g><path d="m323.955 125.542c5.714 0 10.362-4.648 10.362-10.362v-38.312c0-5.714-4.648-10.362-10.362-10.362h-209.725c-5.714 0-10.362 4.648-10.362 10.362v38.312c0 5.714 4.648 10.362 10.362 10.362zm-205.087-44.037h200.449v29.037h-200.449z"/><path d="m81.236 161.362c0 4.143 3.357 7.5 7.5 7.5h65.358c4.143 0 7.5-3.357 7.5-7.5s-3.357-7.5-7.5-7.5h-65.358c-4.142 0-7.5 3.357-7.5 7.5z"/><path d="m88.736 204.993h243.083c4.143 0 7.5-3.357 7.5-7.5s-3.357-7.5-7.5-7.5h-243.083c-4.143 0-7.5 3.357-7.5 7.5s3.358 7.5 7.5 7.5z"/><path d="m88.736 238.408h243.083c4.143 0 7.5-3.357 7.5-7.5s-3.357-7.5-7.5-7.5h-243.083c-4.143 0-7.5 3.357-7.5 7.5s3.358 7.5 7.5 7.5z"/><path d="m88.736 271.824h243.083c4.143 0 7.5-3.357 7.5-7.5s-3.357-7.5-7.5-7.5h-243.083c-4.143 0-7.5 3.357-7.5 7.5s3.358 7.5 7.5 7.5z"/><path d="m88.736 305.239h243.083c4.143 0 7.5-3.357 7.5-7.5s-3.357-7.5-7.5-7.5h-243.083c-4.143 0-7.5 3.357-7.5 7.5s3.358 7.5 7.5 7.5z"/><path d="m88.736 338.654h243.083c4.143 0 7.5-3.357 7.5-7.5s-3.357-7.5-7.5-7.5h-243.083c-4.143 0-7.5 3.357-7.5 7.5s3.358 7.5 7.5 7.5z"/><path d="m498.362 193.408-2.894-1.564.603-1.115c7.595-14.05 2.343-31.661-11.71-39.259-14.053-7.592-31.662-2.338-39.257 11.711l-10.832 20.039c-1.97 3.644-.612 8.194 3.031 10.164 3.644 1.972 8.195.612 10.164-3.031l10.832-20.039c3.663-6.774 12.155-9.308 18.93-5.647 6.775 3.663 9.309 12.155 5.646 18.93l-108.313 200.393c-2.62 4.848-6.627 8.675-11.588 11.07l-13.9 6.711-2.001-15.307c-.714-5.461.294-10.91 2.913-15.757l83.546-154.571c1.97-3.645.612-8.194-3.031-10.164-3.645-1.972-8.195-.612-10.164 3.031l-20.116 37.218v-193.741c0-9.767-7.945-17.712-17.712-17.712h-30.681v-16.809c0-9.767-7.945-17.712-17.712-17.712h-316.403c-9.767 0-17.713 7.946-17.713 17.712v247.037c0 4.143 3.357 7.5 7.5 7.5s7.5-3.357 7.5-7.5v-247.037c0-1.495 1.217-2.712 2.713-2.712h316.403c1.495 0 2.712 1.217 2.712 2.712v16.809h-281.15c-9.767 0-17.712 7.945-17.712 17.712v386.94c.03 2.145.855 3.962 2.196 5.304l19.608 19.608h-42.057c-1.496 0-2.713-1.217-2.713-2.712v-167.624c0-4.143-3.357-7.5-7.5-7.5s-7.5 3.357-7.5 7.5v167.624c0 9.767 7.946 17.712 17.713 17.712h57.058l30.217 30.217c1.405 1.405 3.316 2.196 5.304 2.196h182.547c4.143 0 7.5-3.357 7.5-7.5s-3.357-7.5-7.5-7.5h-175.048v-47.381c0-9.619-7.825-17.444-17.444-17.444h-47.381v-379.44c0-1.495 1.217-2.712 2.712-2.712h326.831c1.495 0 2.712 1.217 2.712 2.712v221.493l-48.43 89.602c-4.129 7.64-5.717 16.227-4.591 24.834l3.032 23.198-4.187 7.746c-1.97 3.644-.612 8.194 3.031 10.164 1.134.613 2.355.903 3.56.903 2.666 0 5.248-1.425 6.604-3.935l4.187-7.746 21.068-10.171c6.359-3.07 11.723-7.633 15.725-13.338v98.803c0 1.496-1.217 2.713-2.712 2.713h-60.671c-4.143 0-7.5 3.357-7.5 7.5s3.357 7.5 7.5 7.5h60.671c9.767 0 17.712-7.946 17.712-17.713v-125.969l88.115-163.025 2.893 1.564c5.334 2.883 7.327 9.568 4.445 14.901l-39.784 73.605c-1.97 3.645-.612 8.194 3.031 10.164 1.134.613 2.355.903 3.56.903 2.666 0 5.248-1.425 6.604-3.935l39.784-73.606c6.818-12.608 2.104-28.412-10.506-35.227zm-398.015 253.512c1.348 0 2.444 1.097 2.444 2.444v36.774l-39.219-39.218z"/><path d="m183.108 446.627c3.987 1.143 8.135-1.164 9.277-5.139 5.116-17.799 15.61-37.796 21.996-37.915 3.877-.068 5.285.539 6.926 13.02 1.135 8.62 2.849 21.648 15.94 23.104 15.022 1.672 19.091-12.43 21.277-20.004.45-1.56 1.048-3.631 1.634-5.152.399.995.821 2.242 1.169 3.272 4.636 13.714 12.459 27.892 44.782 27.89 4.83 0 10.213-.316 16.209-.999 4.115-.469 7.071-4.185 6.604-8.301-.468-4.115-4.187-7.057-8.301-6.604-17.399 1.983-29.749.715-36.695-3.77-5.1-3.291-6.697-8.017-8.388-13.02-1.883-5.568-5.062-14.913-16.035-14.744-10.444.132-13.421 10.443-15.39 17.268-2.629 9.106-3.602 9.433-5.21 9.255-.235-.025-.332-.06-.338-.06-1.192-1.018-1.969-6.919-2.387-10.093-1.214-9.229-3.459-26.363-22.079-26.061-10.15.19-19.124 8.711-27.432 26.049-5.385 11.236-8.569 22.267-8.702 22.73-1.139 3.982 1.163 8.133 5.143 9.274z"/></g></svg>