<svg width="100" height="100" viewBox="0 0 752 139" fill="none" xmlns="http://www.w3.org/2000/svg">
<path d="M170.091 111V17.9091H207.364C214.212 17.9091 219.924 18.9242 224.5 20.9545C229.076 22.9848 232.515 25.803 234.818 29.4091C237.121 32.9848 238.273 37.1061 238.273 41.7727C238.273 45.4091 237.545 48.6061 236.091 51.3636C234.636 54.0909 232.636 56.3333 230.091 58.0909C227.576 59.8182 224.697 61.0455 221.455 61.7727V62.6818C225 62.8333 228.318 63.8333 231.409 65.6818C234.53 67.5303 237.061 70.1212 239 73.4545C240.939 76.7576 241.909 80.697 241.909 85.2727C241.909 90.2121 240.682 94.6212 238.227 98.5C235.803 102.348 232.212 105.394 227.455 107.636C222.697 109.879 216.833 111 209.864 111H170.091ZM189.773 94.9091H205.818C211.303 94.9091 215.303 93.8636 217.818 91.7727C220.333 89.6515 221.591 86.8333 221.591 83.3182C221.591 80.7424 220.97 78.4697 219.727 76.5C218.485 74.5303 216.712 72.9848 214.409 71.8636C212.136 70.7424 209.424 70.1818 206.273 70.1818H189.773V94.9091ZM189.773 56.8636H204.364C207.061 56.8636 209.455 56.3939 211.545 55.4545C213.667 54.4848 215.333 53.1212 216.545 51.3636C217.788 49.6061 218.409 47.5 218.409 45.0455C218.409 41.6818 217.212 38.9697 214.818 36.9091C212.455 34.8485 209.091 33.8182 204.727 33.8182H189.773V56.8636ZM299.125 81.2727V41.1818H318.489V111H299.898V98.3182H299.17C297.595 102.409 294.973 105.697 291.307 108.182C287.67 110.667 283.231 111.909 277.989 111.909C273.322 111.909 269.216 110.848 265.67 108.727C262.125 106.606 259.352 103.591 257.352 99.6818C255.383 95.7727 254.383 91.0909 254.352 85.6364V41.1818H273.716V82.1818C273.746 86.303 274.852 89.5606 277.034 91.9545C279.216 94.3485 282.14 95.5455 285.807 95.5455C288.14 95.5455 290.322 95.0152 292.352 93.9545C294.383 92.8636 296.019 91.2576 297.261 89.1364C298.534 87.0152 299.155 84.3939 299.125 81.2727ZM333.977 111V41.1818H353.341V111H333.977ZM343.705 32.1818C340.826 32.1818 338.356 31.2273 336.295 29.3182C334.265 27.3788 333.25 25.0606 333.25 22.3636C333.25 19.697 334.265 17.4091 336.295 15.5C338.356 13.5606 340.826 12.5909 343.705 12.5909C346.583 12.5909 349.038 13.5606 351.068 15.5C353.129 17.4091 354.159 19.697 354.159 22.3636C354.159 25.0606 353.129 27.3788 351.068 29.3182C349.038 31.2273 346.583 32.1818 343.705 32.1818ZM388.216 17.9091V111H368.852V17.9091H388.216ZM429.455 112.136C424.152 112.136 419.348 110.773 415.045 108.045C410.773 105.288 407.379 101.242 404.864 95.9091C402.379 90.5455 401.136 83.9697 401.136 76.1818C401.136 68.1818 402.424 61.5303 405 56.2273C407.576 50.8939 411 46.9091 415.273 44.2727C419.576 41.6061 424.288 40.2727 429.409 40.2727C433.318 40.2727 436.576 40.9394 439.182 42.2727C441.818 43.5758 443.939 45.2121 445.545 47.1818C447.182 49.1212 448.424 51.0303 449.273 52.9091H449.864V17.9091H469.182V111H450.091V99.8182H449.273C448.364 101.758 447.076 103.682 445.409 105.591C443.773 107.47 441.636 109.03 439 110.273C436.394 111.515 433.212 112.136 429.455 112.136ZM435.591 96.7273C438.712 96.7273 441.348 95.8788 443.5 94.1818C445.682 92.4545 447.348 90.0455 448.5 86.9545C449.682 83.8636 450.273 80.2424 450.273 76.0909C450.273 71.9394 449.697 68.3333 448.545 65.2727C447.394 62.2121 445.727 59.8485 443.545 58.1818C441.364 56.5151 438.712 55.6818 435.591 55.6818C432.409 55.6818 429.727 56.5455 427.545 58.2727C425.364 60 423.712 62.3939 422.591 65.4545C421.47 68.5151 420.909 72.0606 420.909 76.0909C420.909 80.1515 421.47 83.7424 422.591 86.8636C423.742 89.9545 425.394 92.3788 427.545 94.1364C429.727 95.8636 432.409 96.7273 435.591 96.7273ZM489.739 111V17.9091H497.875V54.5H498.602C499.511 52.4091 500.814 50.2576 502.511 48.0455C504.239 45.8333 506.496 43.9848 509.284 42.5C512.102 40.9848 515.648 40.2273 519.92 40.2273C525.648 40.2273 530.678 41.7424 535.011 44.7727C539.345 47.7727 542.723 51.9848 545.148 57.4091C547.572 62.803 548.784 69.0909 548.784 76.2727C548.784 83.4848 547.572 89.803 545.148 95.2273C542.754 100.652 539.39 104.879 535.057 107.909C530.754 110.939 525.754 112.455 520.057 112.455C515.814 112.455 512.269 111.697 509.42 110.182C506.602 108.667 504.33 106.803 502.602 104.591C500.875 102.348 499.542 100.167 498.602 98.0455H497.602V111H489.739ZM497.739 76.1364C497.739 81.7727 498.572 86.7727 500.239 91.1364C501.936 95.4697 504.36 98.8788 507.511 101.364C510.693 103.818 514.542 105.045 519.057 105.045C523.693 105.045 527.617 103.773 530.83 101.227C534.042 98.6515 536.481 95.1818 538.148 90.8182C539.814 86.4545 540.648 81.5606 540.648 76.1364C540.648 70.7727 539.814 65.9394 538.148 61.6364C536.511 57.3333 534.087 53.9242 530.875 51.4091C527.663 48.8636 523.723 47.5909 519.057 47.5909C514.511 47.5909 510.648 48.8182 507.466 51.2727C504.314 53.697 501.905 57.0606 500.239 61.3636C498.572 65.6364 497.739 70.5606 497.739 76.1364ZM594.784 112.455C588.269 112.455 582.633 110.939 577.875 107.909C573.117 104.848 569.436 100.621 566.83 95.2273C564.254 89.803 562.966 83.5606 562.966 76.5C562.966 69.4697 564.254 63.2273 566.83 57.7727C569.436 52.2879 573.027 48 577.602 44.9091C582.208 41.7879 587.527 40.2273 593.557 40.2273C597.345 40.2273 600.996 40.9242 604.511 42.3182C608.027 43.6818 611.178 45.7879 613.966 48.6364C616.784 51.4545 619.011 55.0152 620.648 59.3182C622.284 63.5909 623.102 68.6515 623.102 74.5V78.5H568.557V71.3636H614.83C614.83 66.8788 613.92 62.8485 612.102 59.2727C610.314 55.6667 607.814 52.8182 604.602 50.7273C601.42 48.6364 597.739 47.5909 593.557 47.5909C589.133 47.5909 585.239 48.7727 581.875 51.1364C578.511 53.5 575.875 56.6212 573.966 60.5C572.087 64.3788 571.133 68.6212 571.102 73.2273V77.5C571.102 83.0455 572.057 87.8939 573.966 92.0455C575.905 96.1667 578.648 99.3636 582.193 101.636C585.739 103.909 589.936 105.045 594.784 105.045C598.087 105.045 600.981 104.53 603.466 103.5C605.981 102.47 608.087 101.091 609.784 99.3636C611.511 97.6061 612.814 95.6818 613.693 93.5909L621.375 96.0909C620.314 99.0303 618.572 101.742 616.148 104.227C613.754 106.712 610.754 108.712 607.148 110.227C603.572 111.712 599.451 112.455 594.784 112.455ZM640.932 111V41.1818H648.795V51.9091H649.386C650.78 48.3939 653.205 45.5606 656.659 43.4091C660.144 41.2273 664.083 40.1364 668.477 40.1364C669.144 40.1364 669.886 40.1515 670.705 40.1818C671.523 40.2121 672.205 40.2424 672.75 40.2727V48.5C672.386 48.4394 671.75 48.3485 670.841 48.2273C669.932 48.1061 668.947 48.0455 667.886 48.0455C664.25 48.0455 661.008 48.8182 658.159 50.3636C655.341 51.8788 653.114 53.9848 651.477 56.6818C649.841 59.3788 649.023 62.4545 649.023 65.9091V111H640.932ZM711.068 138.636C706.311 138.636 702.144 138.015 698.568 136.773C694.992 135.561 691.977 133.894 689.523 131.773C687.068 129.652 685.159 127.273 683.795 124.636L690.432 120.273C691.432 122.03 692.765 123.758 694.432 125.455C696.129 127.152 698.326 128.561 701.023 129.682C703.75 130.803 707.098 131.364 711.068 131.364C717.25 131.364 722.235 129.818 726.023 126.727C729.841 123.636 731.75 118.833 731.75 112.318V96.5909H731.023C730.083 98.7121 728.735 100.833 726.977 102.955C725.22 105.045 722.917 106.788 720.068 108.182C717.25 109.576 713.75 110.273 709.568 110.273C703.992 110.273 699.038 108.894 694.705 106.136C690.402 103.379 687.008 99.4394 684.523 94.3182C682.068 89.1667 680.841 83.0303 680.841 75.9091C680.841 68.8485 682.038 62.6364 684.432 57.2727C686.856 51.9091 690.235 47.7273 694.568 44.7273C698.902 41.7273 703.947 40.2273 709.705 40.2273C713.977 40.2273 717.523 40.9848 720.341 42.5C723.159 43.9848 725.417 45.8333 727.114 48.0455C728.841 50.2576 730.189 52.4091 731.159 54.5H731.977V41.1818H739.886V112.818C739.886 118.727 738.629 123.591 736.114 127.409C733.598 131.227 730.174 134.045 725.841 135.864C721.508 137.712 716.583 138.636 711.068 138.636ZM710.523 102.864C715.008 102.864 718.841 101.788 722.023 99.6364C725.205 97.4545 727.644 94.3333 729.341 90.2727C731.038 86.2121 731.886 81.3788 731.886 75.7727C731.886 70.3182 731.053 65.4848 729.386 61.2727C727.72 57.0303 725.295 53.697 722.114 51.2727C718.962 48.8182 715.098 47.5909 710.523 47.5909C705.856 47.5909 701.917 48.8485 698.705 51.3636C695.492 53.8788 693.068 57.2727 691.432 61.5455C689.795 65.7879 688.977 70.5303 688.977 75.7727C688.977 81.1061 689.811 85.8182 691.477 89.9091C693.144 93.9697 695.583 97.1515 698.795 99.4545C702.008 101.727 705.917 102.864 710.523 102.864Z" fill="white"/>
<path d="M130.046 17H46.445C43.7047 17 41.4908 19.2255 41.4908 21.9801V58.7086H4.95413C2.21388 58.7086 0 60.9341 0 63.6887V106.02C0 108.775 2.21388 111 4.95413 111H88.555C91.2953 111 93.5092 108.775 93.5092 106.02V69.2914H130.046C132.786 69.2914 135 67.0659 135 64.3113V21.9801C135 19.2255 132.786 17 130.046 17ZM82.9817 100.417H52.0183V69.2914H82.9817V100.417ZM124.472 58.7086H93.5092V27.5828H124.472V58.7086Z" fill="white"/>
</svg>
