<svg width="100" height="100" viewBox="0 0 1250 303" fill="none" xmlns="http://www.w3.org/2000/svg">
<path d="M125.105 1.8912C102.572 6.82453 80.3052 24.1579 70.8385 44.0245C67.5052 51.0912 56.9719 88.2912 33.5052 175.891C15.5052 242.958 0.438524 298.958 0.0385238 300.158C-0.628143 302.425 6.03853 302.558 126.439 302.558C268.572 302.558 263.638 302.825 283.372 293.091C297.505 286.158 310.038 274.025 317.105 260.558C321.105 252.958 328.172 228.158 355.372 126.958C373.772 58.5579 388.838 2.02453 388.838 1.22453C388.838 0.291195 347.105 -0.108805 261.239 0.0245285C158.705 0.0245285 131.905 0.424529 125.105 1.8912ZM252.839 59.2245C257.505 61.6245 260.839 67.4912 260.839 73.2245V77.2245H280.038C298.838 77.2245 299.372 77.3579 303.372 80.6912C305.638 82.5579 308.172 86.4245 308.972 89.2245C310.572 94.6912 310.305 96.1579 301.905 119.491L297.905 130.425L277.772 130.825L257.639 131.225L241.505 177.358C231.372 206.158 223.772 226.025 220.972 230.291C215.772 238.558 209.105 244.025 198.572 248.825C191.772 252.025 188.839 252.558 174.439 252.958L158.172 253.491L161.372 244.425C166.972 228.958 200.839 131.491 200.839 130.958C200.839 130.691 190.305 130.558 177.505 130.558C158.839 130.558 154.172 130.158 154.172 128.825C154.172 127.758 155.372 123.491 156.839 119.225C158.305 114.958 159.505 110.958 159.505 110.291C159.505 109.758 147.239 109.225 132.305 109.225H104.972L112.039 88.1579C120.305 63.3579 121.105 61.8912 125.905 59.3579C131.372 56.2912 247.105 56.2912 252.839 59.2245Z" fill="white"/>
<path d="M1039.5 48.2913C1039.5 48.9579 985.105 251.491 984.038 254.825C983.371 257.091 984.971 257.225 1005.24 257.225H1027.1L1033.5 233.225C1039.77 209.625 1039.9 209.358 1045.37 205.091C1048.44 202.691 1053.37 198.691 1056.44 196.291L1061.9 191.758L1072.84 224.558L1083.77 257.225H1107.64C1124.3 257.225 1131.5 256.825 1131.5 255.758C1131.5 254.958 1124.3 234.158 1115.5 209.491C1106.7 184.958 1099.5 164.291 1099.5 163.758C1099.5 163.091 1114.7 150.425 1133.24 135.491C1151.64 120.425 1168.3 106.958 1170.17 105.491L1173.5 102.691L1145.24 102.558H1116.97L1086.17 128.691C1069.24 143.091 1055.24 154.691 1054.97 154.425C1054.7 154.158 1058.97 137.625 1064.44 117.891C1069.77 98.0246 1076.17 74.2913 1078.7 64.8246L1083.24 47.8913H1061.37C1049.37 47.8913 1039.5 48.1579 1039.5 48.2913Z" fill="white"/>
<path d="M1199.11 66.2909C1196.44 76.5576 1194.17 85.2243 1194.17 85.6243C1194.17 86.1576 1204.31 86.5576 1216.71 86.5576H1239.24L1240.71 82.1576C1241.37 79.891 1243.64 71.8909 1245.64 64.5576C1247.51 57.2243 1249.51 50.5576 1249.77 49.6243C1250.31 48.2909 1245.51 47.8909 1227.24 47.8909H1204.04L1199.11 66.2909Z" fill="white"/>
<path d="M431.105 56.8246C430.171 58.2913 420.838 93.758 420.838 95.6246C420.838 96.8246 428.571 97.2246 450.971 97.2246C478.971 97.2246 480.971 97.358 480.305 99.4913C479.905 100.825 470.571 135.758 459.505 177.225C448.438 218.691 439.105 253.625 438.705 254.825C438.038 257.091 439.638 257.225 460.038 257.225H482.038L484.038 250.291C487.238 238.825 524.838 98.6913 524.838 97.8913C524.838 97.4913 538.571 97.2246 555.371 97.2246H585.905L587.371 92.8246C589.105 86.958 596.838 57.8913 596.838 56.8246C596.838 55.4913 431.771 55.6246 431.105 56.8246Z" fill="white"/>
<path d="M832.438 101.357C822.572 103.624 813.505 109.491 802.705 120.557L792.038 131.491L795.638 118.024C797.772 110.557 799.372 104.157 799.505 103.491C799.505 102.157 757.105 102.291 756.305 103.624C755.772 104.557 718.972 241.891 716.038 253.624L715.238 257.357L736.972 256.957L758.705 256.557L766.972 225.891C776.705 189.757 779.238 182.824 786.038 172.291C795.372 157.891 809.505 149.091 827.505 146.557C832.838 145.757 837.505 145.091 837.638 144.824C837.772 144.691 839.772 137.357 842.172 128.557C844.438 119.757 847.238 109.757 848.172 106.157L850.038 99.8907L843.772 100.024C840.305 100.157 835.238 100.691 832.438 101.357Z" fill="white"/>
<path d="M637.505 102.157C627.905 103.224 616.705 105.624 606.439 108.691C597.505 111.357 595.505 112.424 596.039 114.291C596.439 115.491 598.039 123.357 599.639 131.624C602.039 144.291 602.972 146.557 604.705 145.891C616.705 141.224 627.905 139.357 642.839 139.224C660.839 139.224 665.505 140.691 670.305 148.291C672.439 151.624 672.839 154.024 672.305 159.757C671.905 163.757 671.105 167.491 670.572 168.024C669.905 168.691 663.772 168.024 656.839 166.424C640.572 162.824 617.105 162.424 605.239 165.624C579.105 172.557 562.972 190.157 561.239 213.624C560.172 227.224 562.972 236.291 570.972 245.091C578.439 253.357 584.172 256.557 596.039 258.691C612.572 261.757 630.705 256.824 644.705 245.491L650.572 240.691L649.772 244.957C649.239 247.357 648.439 251.091 648.039 253.224L647.239 257.224H667.905H688.705L690.705 250.291C698.305 223.757 712.839 166.557 714.172 158.157C716.039 146.691 714.572 135.091 710.172 126.557C706.705 119.757 697.239 111.091 689.639 107.757C677.905 102.557 654.572 100.024 637.505 102.157ZM656.572 192.557C660.305 193.757 663.505 195.091 663.505 195.757C663.505 199.891 658.305 210.291 653.372 215.757C645.105 224.957 636.039 229.224 624.972 229.224C610.972 229.224 604.305 223.757 604.572 212.291C604.705 202.024 612.305 193.624 624.305 190.691C631.105 188.957 647.639 189.891 656.572 192.557Z" fill="white"/>
<path d="M898.172 103.225C885.372 105.225 864.839 111.358 864.839 113.092C864.839 114.158 869.372 137.492 870.839 143.358L871.506 146.158L882.439 142.958C896.039 138.958 916.172 137.492 925.906 139.892C930.972 141.092 933.906 142.692 936.972 146.292C940.839 150.692 941.106 151.492 940.572 159.358C940.306 164.025 939.639 168.158 939.106 168.692C938.706 169.225 934.439 168.692 929.906 167.492C876.972 154.158 835.639 172.158 830.172 210.692C828.039 225.358 832.439 239.358 841.772 248.158C858.572 264.158 893.772 262.958 912.706 245.892C915.772 243.092 918.439 241.092 918.839 241.492C919.106 241.758 918.572 245.225 917.506 249.225C916.439 253.225 915.506 256.692 915.506 256.825C915.506 257.758 956.839 257.092 957.372 256.158C957.772 255.492 963.506 234.692 970.172 209.758C983.772 159.225 985.506 147.492 981.772 134.425C977.506 119.892 967.372 110.425 950.172 105.092C938.706 101.492 913.772 100.558 898.172 103.225ZM916.306 190.692C920.572 191.358 926.039 192.692 928.439 193.358C932.306 194.558 932.572 195.092 931.506 198.425C926.306 216.558 910.572 229.225 893.106 229.225C880.306 229.225 872.839 223.358 872.839 213.358C872.839 203.358 879.239 195.625 890.439 191.758C898.572 188.958 905.106 188.692 916.306 190.692Z" fill="white"/>
<path d="M1190.17 103.091C1190.17 103.758 1150.57 251.225 1149.51 254.691C1148.71 257.091 1149.77 257.225 1170.71 257.225C1182.84 257.225 1192.84 256.825 1192.84 256.425C1192.84 256.025 1201.51 223.225 1212.17 183.491C1222.97 143.758 1232.17 109.225 1232.84 106.825L1233.91 102.558H1212.04C1200.04 102.558 1190.17 102.825 1190.17 103.091Z" fill="white"/>
</svg>
