<svg width="512" height="512" viewBox="0 0 512 512" fill="none" xmlns="http://www.w3.org/2000/svg">
<path d="M323.959 125.297C329.673 125.297 334.321 120.649 334.321 114.934V76.6219C334.321 70.9078 329.673 66.2598 323.959 66.2598H114.231C108.517 66.2598 103.869 70.9078 103.869 76.6219V114.934C103.869 120.649 108.517 125.297 114.231 125.297H323.959ZM118.869 81.259H319.321V110.296H118.869V81.259Z" fill="black"/>
<path d="M81.2373 161.117C81.2373 165.26 84.5944 168.617 88.7374 168.617H154.096C158.239 168.617 161.596 165.26 161.596 161.117C161.596 156.974 158.239 153.617 154.096 153.617H88.7374C84.5954 153.617 81.2373 156.974 81.2373 161.117Z" fill="black"/>
<path d="M88.7374 204.749H331.824C335.967 204.749 339.324 201.392 339.324 197.249C339.324 193.106 335.967 189.749 331.824 189.749H88.7374C84.5944 189.749 81.2373 193.106 81.2373 197.249C81.2373 201.392 84.5954 204.749 88.7374 204.749Z" fill="black"/>
<path d="M88.7374 238.164H331.824C335.967 238.164 339.324 234.807 339.324 230.664C339.324 226.521 335.967 223.164 331.824 223.164H88.7374C84.5944 223.164 81.2373 226.521 81.2373 230.664C81.2373 234.807 84.5954 238.164 88.7374 238.164Z" fill="black"/>
<path d="M88.4976 271.753H331.502C335.644 271.753 339 260.787 339 247.253C339 233.719 335.644 222.753 331.502 222.753H88.4976C84.3559 222.753 81 233.719 81 247.253C81 260.787 84.3569 271.753 88.4976 271.753Z" fill="black"/>
<path d="M88.7374 304.996H331.824C335.967 304.996 339.324 301.639 339.324 297.496C339.324 293.353 335.967 289.996 331.824 289.996H88.7374C84.5944 289.996 81.2373 293.353 81.2373 297.496C81.2373 301.639 84.5954 304.996 88.7374 304.996Z" fill="black"/>
<path d="M88.7374 338.411H331.824C335.967 338.411 339.324 335.054 339.324 330.911C339.324 326.768 335.967 323.411 331.824 323.411H88.7374C84.5944 323.411 81.2373 326.768 81.2373 330.911C81.2373 335.054 84.5954 338.411 88.7374 338.411Z" fill="black"/>
<path d="M498.369 193.164L495.475 191.6L496.078 190.485C503.673 176.434 498.421 158.823 484.368 151.225C470.314 143.633 452.705 148.887 445.11 162.936L434.278 182.976C432.308 186.62 433.666 191.17 437.309 193.14C440.953 195.112 445.504 193.752 447.473 190.109L458.305 170.069C461.968 163.295 470.46 160.761 477.236 164.422C484.011 168.085 486.545 176.577 482.882 183.353L374.567 383.748C371.947 388.596 367.94 392.423 362.979 394.818L349.079 401.529L347.078 386.222C346.364 380.761 347.372 375.312 349.991 370.465L433.538 215.892C435.508 212.247 434.15 207.698 430.507 205.728C426.862 203.756 422.312 205.116 420.343 208.759L400.226 245.977V52.2337C400.226 42.4666 392.281 34.5215 382.514 34.5215H351.833V17.7122C351.833 7.94511 343.888 0 334.121 0H17.7132C7.94611 0 0 7.94611 0 17.7122V264.753C0 268.896 3.35705 272.253 7.5001 272.253C11.6432 272.253 15.0002 268.896 15.0002 264.753V17.7122C15.0002 16.2172 16.2172 15.0002 17.7132 15.0002H334.121C335.616 15.0002 336.833 16.2172 336.833 17.7122V34.5215H55.6788C45.9116 34.5215 37.9665 42.4666 37.9665 52.2337V439.179C37.9965 441.324 38.8215 443.141 40.1625 444.483L59.7708 464.091H17.7132C16.2172 464.091 15.0002 462.874 15.0002 461.379V293.753C15.0002 289.61 11.6432 286.253 7.5001 286.253C3.35705 286.253 0 289.61 0 293.753V461.379C0 471.146 7.94611 479.092 17.7132 479.092H74.772L104.989 509.309C106.394 510.714 108.305 511.505 110.294 511.505H292.843C296.986 511.505 300.343 508.148 300.343 504.005C300.343 499.862 296.986 496.505 292.843 496.505H117.793V449.123C117.793 439.504 109.968 431.679 100.348 431.679H52.9667V52.2337C52.9667 50.7387 54.1837 49.5217 55.6788 49.5217H382.514C384.009 49.5217 385.226 50.7387 385.226 52.2337V273.73L336.796 363.333C332.667 370.973 331.079 379.56 332.205 388.167L335.237 411.366L331.05 419.112C329.08 422.756 330.438 427.306 334.081 429.276C335.215 429.889 336.436 430.179 337.641 430.179C340.307 430.179 342.889 428.754 344.245 426.244L348.432 418.498L369.5 408.327C375.859 405.257 381.223 400.693 385.225 394.988V493.793C385.225 495.289 384.008 496.506 382.513 496.506H321.841C317.698 496.506 314.341 499.863 314.341 504.006C314.341 508.149 317.698 511.506 321.841 511.506H382.513C392.28 511.506 400.225 503.56 400.225 493.793V367.822L488.342 204.795L491.235 206.359C496.569 209.242 498.562 215.927 495.68 221.26L455.895 294.866C453.925 298.511 455.283 303.06 458.926 305.03C460.06 305.643 461.281 305.933 462.486 305.933C465.152 305.933 467.734 304.508 469.09 301.998L508.875 228.391C515.693 215.783 510.979 199.979 498.369 193.164ZM100.348 446.679C101.696 446.679 102.792 447.776 102.792 449.123V485.898L63.5729 446.679H100.348Z" fill="black"/>
<path d="M183.11 446.386C187.097 447.529 191.245 445.222 192.387 441.247C197.503 423.448 207.998 403.45 214.384 403.331C218.261 403.263 219.669 403.87 221.31 416.351C222.445 424.972 224.159 438 237.25 439.456C252.272 441.128 256.341 427.026 258.527 419.451C258.977 417.891 259.575 415.82 260.161 414.299C260.56 415.294 260.982 416.541 261.33 417.571C265.966 431.286 273.789 445.464 306.113 445.462C310.943 445.462 316.326 445.146 322.322 444.463C326.437 443.994 329.393 440.278 328.926 436.162C328.458 432.047 324.739 429.105 320.625 429.558C303.226 431.541 290.876 430.273 283.93 425.788C278.829 422.497 277.232 417.77 275.541 412.767C273.658 407.199 270.479 397.854 259.506 398.023C249.062 398.155 246.085 408.466 244.116 415.291C241.487 424.398 240.514 424.725 238.906 424.547C238.671 424.522 238.574 424.487 238.568 424.487C237.376 423.469 236.599 417.567 236.181 414.393C234.967 405.164 232.722 388.03 214.102 388.332C203.951 388.522 194.977 397.043 186.669 414.381C181.284 425.618 178.1 436.649 177.967 437.112C176.828 441.094 179.13 445.245 183.11 446.386Z" fill="black"/>
</svg>
