<svg width="100" height="100" viewBox="0 0 1874 600" fill="none" xmlns="http://www.w3.org/2000/svg">
<path d="M389.986 16.5406C378.119 27.7406 371.986 34.2739 372.386 35.6072C372.786 36.8072 374.652 47.7406 376.652 60.0072C378.652 72.4072 380.652 82.4072 381.052 82.4072C381.452 82.2739 389.852 74.6739 399.586 65.3406L417.452 48.4072L413.186 24.4072C410.919 11.2072 408.786 0.273889 408.652 0.00722227C408.386 -0.259444 399.986 7.20722 389.986 16.5406Z" fill="white"/>
<path d="M345.053 60.9398L333.586 71.6064L336.253 87.6064L338.919 103.606L345.053 98.5398C348.386 95.6064 353.853 90.5398 357.053 87.2064L363.053 81.0731L360.653 65.7398C359.319 57.3398 357.853 50.4064 357.319 50.4064C356.786 50.4064 351.319 55.2064 345.053 60.9398Z" fill="white"/>
<path d="M98.5195 63.7398C98.5195 65.4732 109.32 111.073 109.853 111.606C110.653 112.273 156.253 129.207 156.52 128.807C156.92 128.14 145.72 81.2065 144.92 80.4065C143.453 78.9398 98.5195 62.8065 98.5195 63.7398Z" fill="white"/>
<path d="M304.918 85.7403C304.518 115.874 305.185 160.407 306.518 187.74C308.785 230.674 313.585 286.54 315.185 286.007C317.318 285.34 361.718 238.007 384.385 212.274C412.785 180.14 445.985 139.474 457.451 122.674L461.718 116.407L456.518 120.407C435.985 135.607 396.785 170.674 359.985 206.674C345.851 220.54 333.985 231.74 333.851 231.474C333.585 231.207 332.385 222.407 331.185 211.74C325.318 160.14 310.651 73.7403 306.385 66.407C305.718 65.207 305.185 73.0736 304.918 85.7403Z" fill="white"/>
<path d="M407.586 81.7403L395.986 92.807L398.653 108.54C400.12 117.207 401.453 124.407 401.586 124.54C401.72 124.674 407.186 119.74 413.72 113.607L425.586 102.54L423.186 88.1403C421.986 80.2737 420.52 73.0737 419.986 72.1403C419.453 71.207 414.786 74.9403 407.586 81.7403Z" fill="white"/>
<path d="M227.053 81.7406C227.453 83.874 228.386 89.874 229.186 95.074C233.586 123.874 243.72 171.074 255.32 215.607C259.32 231.207 262.386 244.274 262.12 244.541C261.853 244.807 254.92 242.007 246.52 238.407C199.453 217.607 103.186 182.007 105.853 186.541C108.253 190.141 166.12 223.474 205.986 244.007C242.386 262.674 301.186 290.674 301.186 289.207C301.186 288.674 296.12 271.474 289.986 250.941C271.586 190.274 253.32 138.141 236.12 97.7406C228.52 79.7406 225.586 74.674 227.053 81.7406Z" fill="white"/>
<path d="M167.319 97.3399C168.386 102.007 169.986 109.073 170.919 113.073L172.519 120.407L187.719 126.14C196.119 129.207 203.052 131.607 203.319 131.473C203.986 130.673 196.386 101.073 195.186 100.007C193.986 98.9399 167.986 89.0732 166.252 89.0732C165.719 89.0732 166.252 92.8065 167.319 97.3399Z" fill="white"/>
<path d="M359.185 109.34C349.585 118.14 341.585 126.007 341.452 126.673C340.918 127.873 347.718 169.873 349.052 173.34C349.718 175.207 353.585 172.14 367.852 158.54L385.718 141.473L381.852 117.34C379.718 104.007 377.585 93.0734 377.185 93.0734C376.785 93.0734 368.652 100.407 359.185 109.34Z" fill="white"/>
<path d="M119.72 148.54L123.32 164.14L138.653 169.74C147.053 172.94 153.986 175.34 154.12 175.207C154.52 174.94 146.92 143.607 146.386 143.207C145.186 142.407 118.786 133.073 117.586 133.073C116.786 133.073 117.72 139.607 119.72 148.54Z" fill="white"/>
<path d="M163.852 138.674C163.985 142.54 174.252 184.007 175.318 185.074C176.918 186.674 220.118 202.54 220.918 201.74C221.452 201.34 210.918 154.14 210.118 153.74C209.318 153.207 165.185 137.074 164.518 137.074C164.118 137.074 163.852 137.874 163.852 138.674Z" fill="white"/>
<path d="M921.186 295.741V437.074H939.852H958.519V339.474V241.874L965.319 249.074C969.052 253.074 1006.79 291.474 1049.19 334.407C1091.59 377.341 1133.59 420.007 1142.65 429.474C1151.85 438.807 1159.72 446.407 1160.25 446.407C1160.79 446.407 1161.05 382.674 1160.92 304.674L1160.52 163.074L1141.99 162.674L1123.45 162.274L1124.25 261.074C1124.65 315.341 1124.52 359.741 1123.99 359.741C1123.45 359.741 1117.32 353.874 1110.52 346.674C1103.72 339.607 1080.39 315.474 1058.52 293.074C1036.79 270.674 1015.72 249.074 1011.85 245.074C974.252 206.141 923.186 154.407 922.386 154.407C921.719 154.407 921.186 217.741 921.186 295.741Z" fill="white"/>
<path d="M1341.85 161.207C1288.39 168.807 1240.65 212.541 1227.05 266.141C1212.39 323.874 1235.19 383.607 1284.52 416.674C1300.12 427.207 1317.32 434.141 1336.79 437.874C1354.52 441.207 1384.39 439.874 1400.52 435.207C1448.52 421.074 1485.72 383.607 1498.52 336.407C1502.25 322.807 1503.59 292.407 1501.19 277.341C1496.79 250.274 1482.39 222.674 1461.72 201.874C1429.59 169.741 1385.85 154.941 1341.85 161.207ZM1385.99 197.874C1424.12 205.874 1457.19 241.741 1463.72 282.407C1472.39 335.874 1439.99 387.741 1389.59 401.207C1375.85 404.941 1352.52 405.207 1339.19 401.741C1301.59 392.274 1271.72 361.607 1263.32 324.141C1260.65 312.274 1260.52 288.941 1263.05 276.941C1267.32 256.941 1279.05 236.141 1293.72 222.807C1319.32 199.341 1351.59 190.674 1385.99 197.874Z" fill="white"/>
<path d="M757.852 162.94C719.318 170.54 695.985 194.274 693.585 228.674C691.985 250.407 697.585 265.607 712.385 280.407C723.185 291.207 733.318 296.94 761.718 308.407C798.918 323.474 812.118 332.54 818.918 347.607C822.385 355.607 821.718 373.74 817.585 381.874C808.652 398.94 785.052 409.34 759.985 407.207C742.385 405.74 718.918 397.607 704.918 388.007C701.718 385.874 698.518 383.74 697.585 383.207C695.185 381.874 679.585 410.407 681.452 412.674C684.652 416.54 718.385 431.874 731.185 435.34C743.318 438.674 746.652 438.94 769.185 438.94C792.518 438.94 794.518 438.807 804.518 435.34C826.785 427.874 843.585 413.874 852.385 395.474C857.985 383.474 859.852 374.807 859.852 360.674C859.852 338.674 853.185 322.274 838.518 307.607C831.452 300.54 826.652 297.34 814.385 291.34C805.985 287.207 794.652 282.274 789.185 280.274C773.585 274.94 750.252 262.94 743.452 257.074C735.318 249.874 731.318 241.474 731.452 231.074C731.452 214.007 741.718 201.874 760.518 196.274C766.518 194.54 771.718 194.274 783.718 194.807C801.052 195.474 815.718 199.207 832.785 207.074L842.518 211.607L849.185 198.407C852.918 191.074 855.852 184.54 855.852 183.74C855.852 180.14 824.385 167.874 806.252 164.407C790.385 161.34 769.052 160.807 757.852 162.94Z" fill="white"/>
<path d="M1524.39 172.007C1557.85 260.54 1629.59 447.34 1630.25 448.007C1630.79 448.54 1646.79 412.407 1665.85 367.74C1684.79 322.94 1700.79 286.94 1701.32 287.474C1701.72 288.007 1716.12 324.274 1733.19 368.007C1750.39 411.874 1764.65 447.74 1765.05 447.74C1765.72 447.74 1849.32 228.14 1869.45 173.607L1873.05 163.74H1853.19C1833.72 163.74 1833.32 163.74 1832.52 166.674C1829.85 175.474 1767.32 356.54 1766.52 357.474C1766.12 358.007 1748.65 314.674 1727.72 261.074L1689.85 163.74H1671.59H1653.19L1654.39 166.674C1655.05 168.407 1661.72 185.34 1669.05 204.407C1680.52 233.74 1682.39 239.474 1681.32 242.407C1680.52 244.274 1670.25 271.207 1658.39 302.407C1646.65 333.607 1636.52 359.874 1635.99 360.94C1635.32 362.14 1633.72 359.34 1631.32 352.94C1629.45 347.474 1613.59 302.807 1596.12 253.74L1564.39 164.407L1542.79 164.007L1521.19 163.74L1524.39 172.007Z" fill="white"/>
<path d="M505.852 181.873C474.919 198.006 436.119 221.073 399.852 244.806C371.719 263.206 322.252 297.34 322.919 297.873C323.719 298.673 384.919 312.94 413.719 319.073C456.252 328.006 529.852 340.006 540.919 339.74C551.719 339.473 464.519 310.006 404.919 293.74C391.852 290.14 381.185 286.94 381.319 286.54C381.319 286.14 390.519 279.073 401.585 270.806C426.252 252.54 453.852 230.673 476.652 211.073C493.852 196.406 511.719 179.873 510.519 179.873C510.119 179.873 508.119 180.806 505.852 181.873Z" fill="white"/>
<path d="M509.853 214.674C505.453 218.407 500.12 222.807 497.987 224.674C495.853 226.407 494.387 228.14 494.787 228.407C495.053 228.807 501.987 231.074 510.12 233.474L524.787 238.007L537.053 228.007C543.72 222.54 549.187 217.74 549.187 217.207C549.187 216.54 520.253 207.474 518.52 207.74C518.12 207.74 514.253 210.94 509.853 214.674Z" fill="white"/>
<path d="M552.118 237.34C541.585 246.14 533.185 253.607 533.451 253.874C534.251 254.674 578.118 267.74 579.851 267.74C581.718 267.74 618.918 237.074 618.118 236.14C617.718 235.874 607.718 232.674 595.718 228.94C583.718 225.34 573.185 222.14 572.518 221.874C571.718 221.607 562.518 228.54 552.118 237.34Z" fill="white"/>
<path d="M455.986 256.54C445.719 265.074 437.186 272.407 437.186 272.94C437.186 273.74 478.519 286.407 482.652 286.807C485.319 287.074 522.786 256.807 521.452 255.607C520.652 254.94 501.586 248.94 477.052 241.607C475.719 241.207 467.852 246.807 455.986 256.54Z" fill="white"/>
<path d="M75.8516 260.407C75.8516 260.673 83.4516 263.873 92.9182 267.473C117.185 276.94 165.985 292.673 203.185 303.073C239.852 313.207 239.052 312.94 238.385 313.607C238.118 313.873 225.852 323.073 211.185 334.14C169.985 365.073 107.718 417.34 109.718 419.34C111.585 421.207 181.985 380.007 223.452 352.673C253.052 333.207 295.052 304.007 295.585 302.54C295.852 301.607 236.252 287.207 200.118 279.74C173.985 274.273 122.918 265.607 101.852 263.073C92.3849 262.007 82.5182 260.807 80.2516 260.407C77.8516 260.14 75.8516 260.14 75.8516 260.407Z" fill="white"/>
<path d="M519.186 282.406L506.52 292.806L520.12 297.073C527.72 299.34 534.786 301.473 535.986 301.873C537.32 302.273 542.786 298.54 550.386 292.273C557.053 286.806 562.52 282.006 562.52 281.74C562.52 281.473 556.386 279.34 548.92 277.073C541.32 274.806 534.52 272.673 533.586 272.406C532.653 272.14 526.253 276.54 519.186 282.406Z" fill="white"/>
<path d="M67.4526 306.941C60.9193 312.407 55.5859 317.207 55.5859 317.874C55.7193 318.407 62.3859 320.941 70.5193 323.341L85.4526 327.874L94.7859 320.141C99.9859 315.874 105.719 311.074 107.586 309.607C110.786 306.941 110.919 306.674 108.519 306.007C104.119 304.674 81.9859 298.141 80.5193 297.607C79.8526 297.341 73.8526 301.607 67.4526 306.941Z" fill="white"/>
<path d="M318.52 311.741C318.52 316.274 346.52 405.207 359.186 440.407C369.186 468.541 391.053 522.407 392.386 522.407C393.186 522.407 387.72 489.607 383.186 467.074C377.986 441.207 369.053 403.207 361.32 374.141L356.12 354.541L360.386 356.274C362.653 357.207 375.053 362.541 387.986 368.141C427.586 385.074 494.92 409.874 511.186 413.607C523.053 416.274 451.32 374.941 397.186 347.741C376.786 337.474 319.986 310.407 318.92 310.407C318.786 310.407 318.52 310.941 318.52 311.741Z" fill="white"/>
<path d="M113.452 328.14L94.252 344.273L117.452 351.34C130.119 355.207 141.185 358.407 141.852 358.273C142.652 358.273 151.719 351.207 162.252 342.407L181.185 326.673L176.919 325.207C170.385 323.207 136.785 313.073 134.519 312.407C133.452 312.14 124.119 319.073 113.452 328.14Z" fill="white"/>
<path d="M281.452 336.94C241.186 379.607 210.386 414.807 182.119 450.673C166.252 470.807 157.852 482.407 159.052 482.407C160.252 482.407 190.919 456.807 208.519 441.207C217.986 432.673 239.452 412.673 256.119 396.673C284.519 369.473 286.519 367.873 286.519 371.607C286.519 387.073 300.386 478.673 308.119 514.14C311.586 530.007 312.519 532.94 313.586 530.273C315.052 526.273 313.852 419.74 311.986 393.74C308.919 351.607 306.252 320.14 305.319 316.54C304.386 312.807 303.986 313.207 281.452 336.94Z" fill="white"/>
<path d="M17.4523 347.34C5.18562 357.473 -0.947711 363.34 0.118956 363.873C1.05229 364.407 11.1856 367.607 22.519 371.073C33.8523 374.407 43.8523 377.473 44.6523 377.74C46.119 378.14 82.7856 348.807 83.5856 346.54C83.8523 345.74 39.8523 331.607 37.1856 331.74C36.7856 331.74 27.9856 338.807 17.4523 347.34Z" fill="white"/>
<path d="M79.8525 371.874C73.5858 377.074 68.3858 381.74 68.1192 382.274C67.8525 383.207 94.7858 391.74 97.8525 391.74C99.3192 391.74 121.586 373.607 122.252 372.007C122.519 370.94 96.1192 362.407 92.9192 362.407C91.9858 362.54 86.1192 366.807 79.8525 371.874Z" fill="white"/>
<path d="M396.253 399.874C396.653 401.607 399.186 412.674 401.986 424.541L406.919 446.007L429.186 454.141C441.319 458.674 451.986 462.407 452.653 462.407C454.253 462.407 443.719 416.407 441.719 414.541C441.053 413.874 431.586 410.141 420.519 406.007C409.586 402.007 399.319 398.141 397.986 397.607C395.853 396.807 395.586 397.074 396.253 399.874Z" fill="white"/>
<path d="M248.653 441.607L231.453 458.14L235.32 481.74C237.453 494.807 239.853 505.74 240.52 505.874C241.32 506.14 249.586 498.807 259.186 489.74L276.52 473.207L272.52 449.607C270.253 436.54 267.986 425.74 267.186 425.607C266.52 425.34 258.12 432.674 248.653 441.607Z" fill="white"/>
<path d="M463.852 426.674C463.852 428.807 470.118 455.874 470.785 456.274C471.852 457.074 500.518 467.474 500.918 467.207C501.185 466.807 494.385 436.674 493.852 436.007C493.452 435.474 471.585 427.207 466.918 425.874C464.785 425.207 463.852 425.474 463.852 426.674Z" fill="white"/>
<path d="M414.52 470.274C414.653 474.14 420.786 498.54 421.986 499.74C423.586 501.207 450.52 510.807 451.186 510.274C451.453 509.874 450.12 502.807 448.12 494.407L444.52 479.207L429.453 473.607C417.053 469.074 414.52 468.407 414.52 470.274Z" fill="white"/>
<path d="M461.186 472.407C461.186 474.941 471.586 518.541 472.386 519.341C473.986 520.941 517.852 536.541 518.252 535.607C518.652 534.674 508.252 488.941 507.319 488.141C507.186 487.874 496.652 483.874 484.119 479.207C468.919 473.607 461.186 471.341 461.186 472.407Z" fill="white"/>
<path d="M203.319 486.407L191.719 497.741L193.852 511.074C197.052 531.074 196.119 530.674 209.585 518.007L221.452 507.074L219.185 493.741C215.852 472.941 216.785 473.474 203.319 486.407Z" fill="white"/>
<path d="M265.986 507.074L254.119 518.007L256.519 533.207C257.852 541.607 259.186 548.807 259.719 549.34C260.119 549.874 265.719 545.207 272.119 538.94L283.719 527.74L281.052 512.14C279.586 503.474 278.252 496.407 278.119 496.274C277.986 496.14 272.519 500.94 265.986 507.074Z" fill="white"/>
<path d="M220.386 531.874C211.719 540.007 203.453 547.74 202.253 548.94C199.986 550.94 200.119 552.407 204.119 575.474C206.386 588.807 208.653 599.74 209.053 599.74C209.453 599.74 217.853 592.007 227.586 582.674L245.319 565.74L241.186 541.74C238.919 528.54 236.919 517.607 236.653 517.474C236.519 517.207 229.186 523.74 220.386 531.874Z" fill="white"/>
</svg>
