<svg width="504" height="440" viewBox="0 0 504 440" fill="none" xmlns="http://www.w3.org/2000/svg">
<g filter="url(#filter0_d_440_536)">
<path d="M376.749 272.722V258.707C376.749 202.358 466.313 202.358 466.313 258.707V273.778C465.833 302.769 445.29 325.712 420.715 325.232C396.332 324.752 376.845 301.329 376.845 272.626L376.749 272.722ZM445.77 331.567L439.722 328.975C436.746 331.279 430.411 337.999 427.435 340.879V386.957L421.675 392.716L415.915 386.957V340.975C412.843 337.903 406.508 331.471 403.34 329.071C390.956 334.159 387.117 335.407 374.637 338.479C359.95 342.031 349.007 344.719 347.855 361.326L343.823 420.843H499.143L495.111 361.326C493.479 337.615 471.016 342.223 445.674 331.567H445.77ZM36.9263 63.1649V49.1496C36.9263 -7.1996 126.49 -7.1996 126.49 49.1496V64.2208C126.01 93.2113 105.467 116.154 80.8921 115.674C56.5094 115.194 37.0223 91.7714 37.0223 63.0689L36.9263 63.1649ZM105.947 122.106L99.8992 119.514C96.9233 121.818 90.5876 128.538 87.6118 131.417V177.495L81.8521 183.255L76.0924 177.495V131.513C73.0205 128.442 66.6848 122.01 63.517 119.61C51.1336 124.698 47.2938 125.946 34.8144 129.018C20.1272 132.569 9.18374 135.257 8.0318 151.864L4 211.381H159.32L155.288 151.864C153.656 128.154 131.194 132.761 105.851 122.106H105.947Z" fill="#333333"/>
<path fill-rule="evenodd" clip-rule="evenodd" d="M276.819 376.877C284.978 374.861 293.33 379.949 295.346 388.205C297.362 396.364 292.274 404.716 284.018 406.732C276.339 408.556 287.666 406.252 279.795 407.116C190.807 417.771 105.563 366.99 72.8291 283.378L100.476 270.227C100.764 270.803 101.052 271.379 101.34 272.05C128.986 342.799 200.983 385.709 276.147 376.685C282.771 375.917 270.291 378.509 276.723 376.973L276.819 376.877Z" fill="#333333"/>
<path fill-rule="evenodd" clip-rule="evenodd" d="M271.73 431.691V351.919L311.568 391.757L271.73 431.691Z" fill="#333333"/>
<path fill-rule="evenodd" clip-rule="evenodd" d="M226.997 55.0053C218.933 57.5972 210.294 53.0854 207.702 45.0218C205.11 36.9582 209.622 28.3187 217.589 25.7268C225.077 23.3269 214.038 26.4948 221.717 25.0548C309.745 7.96769 398.348 52.5094 437.13 133.529L410.444 148.601C410.06 148.025 409.772 147.449 409.484 146.873C376.845 78.3321 301.873 40.702 227.573 55.1973C221.045 56.4452 233.333 52.9894 226.997 55.0053Z" fill="#333333"/>
<path fill-rule="evenodd" clip-rule="evenodd" d="M228.054 0L233.813 79.58L191.191 42.6219L228.054 0Z" fill="#333333"/>
</g>
<defs>
<filter id="filter0_d_440_536" x="0" y="0" width="503.143" height="439.691" filterUnits="userSpaceOnUse" color-interpolation-filters="sRGB">
<feFlood flood-opacity="0" result="BackgroundImageFix"/>
<feColorMatrix in="SourceAlpha" type="matrix" values="0 0 0 0 0 0 0 0 0 0 0 0 0 0 0 0 0 0 127 0" result="hardAlpha"/>
<feOffset dy="4"/>
<feGaussianBlur stdDeviation="2"/>
<feComposite in2="hardAlpha" operator="out"/>
<feColorMatrix type="matrix" values="0 0 0 0 0 0 0 0 0 0 0 0 0 0 0 0 0 0 0.25 0"/>
<feBlend mode="normal" in2="BackgroundImageFix" result="effect1_dropShadow_440_536"/>
<feBlend mode="normal" in="SourceGraphic" in2="effect1_dropShadow_440_536" result="shape"/>
</filter>
</defs>
</svg>
