<svg width="156" height="130" viewBox="0 0 156 130" fill="none" xmlns="http://www.w3.org/2000/svg">
<g filter="url(#filter0_d_440_541)">
<path d="M142.471 79.1876V79.529L142.789 79.6533C146.019 80.9155 147.875 83.2001 147.875 85.7243C147.875 87.6697 146.768 89.4946 144.897 90.8526C143.027 92.2092 140.43 93.0685 137.566 93.0685C136.174 93.0685 135.493 92.2487 135.493 91.7008C135.493 91.1529 136.174 90.3332 137.566 90.3332C139.207 90.3332 140.727 89.8379 141.849 89.0239C142.968 88.2116 143.728 87.0486 143.728 85.7243C143.728 84.4001 142.968 83.2371 141.849 82.4248C140.727 81.6108 139.207 81.1155 137.566 81.1155C135.925 81.1155 134.405 81.6108 133.284 82.4248C132.164 83.2371 131.404 84.4001 131.404 85.7243C131.404 86.2722 130.723 87.092 129.331 87.092C128.802 87.092 128.26 86.8972 127.855 86.6037C127.436 86.2994 127.257 85.9637 127.257 85.7243C127.257 83.779 128.365 81.9541 130.236 80.5961C132.105 79.2394 134.702 78.3802 137.566 78.3802H137.824H138.324V77.8802V53.0405V52.628L137.919 52.5496C134.168 51.8239 131.265 49.6639 130.315 47.0784L130.195 46.7508H129.846H120.68L121.245 44.0155H129.846H130.19L130.313 43.6942C131.505 40.578 135.395 38.039 140.397 38.039C143.261 38.039 145.858 38.8983 147.727 40.2549C149.599 41.6129 150.706 43.4378 150.706 45.3832C150.706 48.7724 147.396 51.8204 142.891 52.5469L142.471 52.6147V53.0405V79.1876ZM25.3603 46.7508H25.0037L24.8876 47.088C23.9345 49.8546 21.0374 52.0048 17.3105 52.5457L16.8824 52.6078V53.0405V77.8802V78.3802H17.3824H17.6397C20.5034 78.3802 23.1007 79.2394 24.9701 80.5961C26.8413 81.9541 27.9485 83.779 27.9485 85.7243C27.9485 85.9637 27.7699 86.2994 27.3506 86.6037C26.9462 86.8972 26.4042 87.092 25.875 87.092C25.3458 87.092 24.8038 86.8972 24.3994 86.6037C23.9801 86.2994 23.8015 85.9637 23.8015 85.7243C23.8015 84.4001 23.0416 83.2371 21.9223 82.4248C20.8007 81.6108 19.2805 81.1155 17.6397 81.1155C15.9989 81.1155 14.4787 81.6108 13.3571 82.4248C12.2378 83.2371 11.4779 84.4001 11.4779 85.7243C11.4779 87.0486 12.2378 88.2116 13.3571 89.0239C14.4787 89.8379 15.9989 90.3332 17.6397 90.3332C18.1689 90.3332 18.7109 90.5279 19.1153 90.8215C19.5346 91.1257 19.7132 91.4614 19.7132 91.7008C19.7132 91.9402 19.5346 92.2759 19.1153 92.5801C18.7109 92.8737 18.1689 93.0685 17.6397 93.0685C14.776 93.0685 12.1787 92.2092 10.3093 90.8526C8.43807 89.4946 7.33088 87.6697 7.33088 85.7243C7.33088 83.186 9.20394 80.7222 12.4173 79.4665L12.7353 79.3422V79.0008V53.0405V52.6312L12.3341 52.5504C7.79488 51.6353 4.5 48.7618 4.5 45.3832C4.5 43.4378 5.60718 41.6129 7.47842 40.2549C9.34783 38.8983 11.9451 38.039 14.8088 38.039C17.3003 38.039 19.594 38.6724 21.3793 39.7C23.1694 40.7303 24.4147 42.1353 24.8822 43.6619L24.9905 44.0155H25.3603H33.9604L34.5258 46.7508H25.3603ZM38.9766 38.0064L38.9652 37.9462L38.9397 37.8906C38.8166 37.6226 38.8954 37.2989 39.2937 37.0099C39.694 36.7193 40.3497 36.5449 41.0588 36.5449H114.147C114.856 36.5449 115.512 36.7193 115.912 37.0099C116.185 37.2075 116.219 37.4796 116.221 38.0528L108.071 81.1155H47.1348L38.9766 38.0064ZM62.6765 76.8861H91.5C92.2325 76.8861 92.9759 76.6752 93.5497 76.2865C94.1258 75.8963 94.5735 75.2913 94.5735 74.5185C94.5735 73.7864 94.2297 73.1736 93.6595 72.7597C93.1016 72.3549 92.3465 72.1508 91.5 72.1508H62.6765C61.83 72.1508 61.0749 72.3549 60.517 72.7597C59.9467 73.1736 59.6029 73.7864 59.6029 74.5185C59.6029 75.2506 59.9467 75.8633 60.517 76.2772C61.0749 76.682 61.83 76.8861 62.6765 76.8861ZM59.8456 66.8008H94.0735C94.92 66.8008 95.6751 66.5967 96.233 66.1919C96.8032 65.778 97.147 65.1653 97.147 64.4332C97.147 63.7011 96.8032 63.0883 96.233 62.6744C95.6751 62.2696 94.92 62.0655 94.0735 62.0655H59.8456C58.9991 62.0655 58.244 62.2696 57.6861 62.6744C57.1159 63.0883 56.7721 63.7011 56.7721 64.4332C56.7721 65.1653 57.1159 65.778 57.6861 66.1919C58.244 66.5967 58.9991 66.8008 59.8456 66.8008ZM56.2426 56.7155H97.6765C98.5229 56.7155 99.2781 56.5114 99.8359 56.1066C100.406 55.6927 100.75 55.08 100.75 54.3479C100.75 53.6158 100.406 53.003 99.8359 52.5892C99.2781 52.1843 98.5229 51.9802 97.6765 51.9802H56.2426C55.3962 51.9802 54.641 52.1843 54.0832 52.5892C53.5129 53.003 53.1691 53.6158 53.1691 54.3479C53.1691 55.08 53.5129 55.6927 54.0832 56.1066C54.641 56.5114 55.3962 56.7155 56.2426 56.7155ZM54.1838 46.4435H99.9926C100.839 46.4435 101.594 46.2394 102.152 45.8345C102.722 45.4207 103.066 44.8079 103.066 44.0758C103.066 43.3437 102.722 42.7309 102.152 42.3171C101.594 41.9122 100.839 41.7082 99.9926 41.7082H54.1838C53.3374 41.7082 52.5822 41.9122 52.0243 42.3171C51.4541 42.7309 51.1103 43.3437 51.1103 44.0758C51.1103 44.8079 51.4541 45.4207 52.0243 45.8345C52.5822 46.2394 53.3374 46.4435 54.1838 46.4435Z" fill="white" stroke="black"/>
<path d="M72.1841 11.5186H86.1106V13.8803H72.1841V11.5186Z" fill="white" stroke="black"/>
<path d="M53.912 19.05V18.55H53.412H47.4929C46.9347 18.55 46.3993 18.3857 46.0494 18.1317C45.7123 17.8871 45.5924 17.6062 45.664 17.2943L45.6767 17.239V17.1824V8.21765C45.6767 7.86994 45.8723 7.54107 46.2613 7.27758C46.6526 7.01258 47.196 6.85 47.7502 6.85H53.6693H54.1693V6.35V1.86765C54.1693 1.62823 54.348 1.29259 54.7673 0.988308C55.1717 0.694776 55.7137 0.5 56.2429 0.5H101.537C102.929 0.5 103.611 1.31974 103.611 1.86765V6.35V6.85H104.111H110.03C110.727 6.85 111.259 7.01945 111.602 7.26827C111.932 7.50811 112.103 7.82917 112.103 8.21765V17.1824C112.103 17.5708 111.932 17.8919 111.602 18.1317C111.259 18.3805 110.727 18.55 110.03 18.55H104.111H103.611V19.05V23.5324C103.611 23.9208 103.44 24.2419 103.109 24.4817C102.766 24.7305 102.235 24.9 101.537 24.9H90.7282H90.2282V25.4V31.8103H67.2943V25.4V24.9H66.7943H55.9855C55.4313 24.9 54.8879 24.7374 54.4966 24.4724C54.1076 24.2089 53.912 23.8801 53.912 23.5324V19.05ZM54.6841 95.8103V95.3103H54.1841H43.8899C43.3607 95.3103 42.8188 95.1155 42.4143 94.822C41.995 94.5177 41.8164 94.1821 41.8164 93.9426V87.2191C41.8164 86.8714 42.012 86.5425 42.401 86.2791C42.7923 86.0141 43.3357 85.8515 43.8899 85.8515H111.316C111.871 85.8515 112.414 86.0141 112.805 86.2791C113.194 86.5425 113.39 86.8714 113.39 87.2191V93.9426C113.39 94.4905 112.709 95.3103 111.316 95.3103H101.022H100.522V95.8103V119.529C100.522 119.769 100.344 120.104 99.9244 120.409C99.5199 120.702 98.9779 120.897 98.4488 120.897H82.7502C82.221 120.897 81.6791 120.702 81.2746 120.409C80.8553 120.104 80.6767 119.769 80.6767 119.529V95.8103V95.3103H80.1767H75.0296H74.5296V95.8103V119.529C74.5296 119.769 74.351 120.104 73.9317 120.409C73.5273 120.702 72.9853 120.897 72.4561 120.897H56.7576C56.2284 120.897 55.6864 120.702 55.282 120.409C54.8627 120.104 54.6841 119.769 54.6841 119.529V95.8103ZM69.1105 6.78382C68.2641 6.78382 67.5089 6.9879 66.951 7.39276C66.3808 7.80659 66.037 8.41936 66.037 9.15147V16.2485C66.037 16.9806 66.3808 17.5934 66.951 18.0072C67.5089 18.4121 68.2641 18.6162 69.1105 18.6162H89.1841C90.0305 18.6162 90.7857 18.4121 91.3435 18.0072C91.9138 17.5934 92.2576 16.9806 92.2576 16.2485V9.15147C92.2576 8.41936 91.9138 7.80659 91.3435 7.39276C90.7857 6.9879 90.0305 6.78382 89.1841 6.78382H69.1105Z" fill="white" stroke="black"/>
</g>
<defs>
<filter id="filter0_d_440_541" x="0" y="0" width="155.206" height="129.397" filterUnits="userSpaceOnUse" color-interpolation-filters="sRGB">
<feFlood flood-opacity="0" result="BackgroundImageFix"/>
<feColorMatrix in="SourceAlpha" type="matrix" values="0 0 0 0 0 0 0 0 0 0 0 0 0 0 0 0 0 0 127 0" result="hardAlpha"/>
<feOffset dy="4"/>
<feGaussianBlur stdDeviation="2"/>
<feComposite in2="hardAlpha" operator="out"/>
<feColorMatrix type="matrix" values="0 0 0 0 0 0 0 0 0 0 0 0 0 0 0 0 0 0 0.25 0"/>
<feBlend mode="normal" in2="BackgroundImageFix" result="effect1_dropShadow_440_541"/>
<feBlend mode="normal" in="SourceGraphic" in2="effect1_dropShadow_440_541" result="shape"/>
</filter>
</defs>
</svg>
