<svg width="293" height="293" viewBox="0 0 293 293" fill="none" xmlns="http://www.w3.org/2000/svg">
<path d="M56.0812 48.6426L58.027 51.1605L54.4789 55.052L64.9514 68.5574L62.2617 71.5332L51.7893 58.0277L48.184 61.9764L46.2383 59.4584L56.0812 48.6426Z" fill="white"/>
<path d="M72.3328 60.374C71.1883 60.6029 70.0437 60.4885 68.9564 60.0879C67.8691 59.6873 66.8963 58.9434 66.0951 57.9133C64.9506 56.5399 64.2639 54.9947 63.9777 53.3352C63.6916 51.6756 63.8633 50.016 64.4355 48.4137C65.0078 46.8113 66.0379 45.4379 67.4113 44.2934C68.4414 43.435 69.5859 42.8627 70.7305 42.6338C71.9322 42.4049 73.0195 42.4621 74.1068 42.9199C75.1941 43.3205 76.167 44.0645 77.0254 45.0373C78.1699 46.4108 78.9139 47.9559 79.1428 49.6727C79.4289 51.3322 79.2572 52.9918 78.6277 54.5942C77.9982 56.1965 77.0254 57.5699 75.5947 58.7145C74.5646 59.5729 73.4773 60.1451 72.3328 60.374ZM75.3658 53.3924C75.5947 52.4768 75.5947 51.5039 75.3658 50.5311C75.1369 49.5582 74.6791 48.6426 74.0496 47.8986C73.3056 47.0402 72.5045 46.5252 71.6461 46.468C70.7305 46.4108 69.9293 46.6969 69.1853 47.2692C68.4414 47.8986 67.9264 48.6426 67.6974 49.5582C67.4685 50.4738 67.4685 51.3895 67.7547 52.3623C68.0408 53.3352 68.4986 54.2508 69.1281 55.052C69.8721 55.9104 70.616 56.4254 71.4744 56.4826C72.3328 56.5971 73.134 56.3109 73.8779 55.6815C74.6219 55.1092 75.0797 54.3652 75.3658 53.3924Z" fill="white"/>
<path d="M83.3785 34.107C83.9508 33.1914 84.7519 32.4475 85.782 31.8752C86.8121 31.3029 87.8422 30.9596 88.8723 30.9596C89.9023 30.9596 90.8752 31.1885 91.7908 31.7607C92.7064 32.333 93.5076 33.1914 94.1371 34.2787C94.4232 34.7937 94.7094 35.366 94.9383 35.9383C95.5105 37.4834 95.7395 39.0285 95.625 40.5164C95.5105 42.0043 95.11 43.3777 94.4232 44.5795C93.7365 45.7812 92.7637 46.7541 91.6191 47.3836C90.5891 47.9559 89.6162 48.242 88.7006 48.242C87.785 48.242 86.9266 48.0131 86.1826 47.6125L89.6734 56.9404L86.1826 59.0006L77.8848 36.7394L81.3756 34.6793L82.1768 36.8539C82.3484 35.9383 82.749 35.0227 83.3785 34.107ZM90.9324 37.0256C90.3601 36.0527 89.6162 35.4805 88.7578 35.2516C87.8994 35.0227 86.9838 35.1943 86.1254 35.7094C85.4959 36.0527 84.9809 36.625 84.5803 37.2545C84.1797 37.9412 83.8936 38.6851 83.8363 39.6008C83.7219 40.4592 83.8935 41.3748 84.2369 42.2904C84.4086 42.7482 84.5803 43.0916 84.6947 43.2633C85.267 44.2361 86.0109 44.8084 86.8693 45.0373C87.7277 45.2662 88.6434 45.0945 89.5018 44.5795C90.1312 44.1789 90.6463 43.6639 91.1041 42.9771C91.5047 42.2904 91.7908 41.4893 91.848 40.6309C91.9625 39.7725 91.7908 38.8568 91.4475 37.9412C91.2186 37.5978 91.0469 37.3117 90.9324 37.0256Z" fill="white"/>
<path d="M115.196 15.5656L115.654 18.7131L107.756 21.3455L108.557 26.6104L114.566 24.6074L115.024 27.6977L109.015 29.7578L110.274 38.2846L106.44 39.5436L103.521 19.457L115.196 15.5656Z" fill="white"/>
<path d="M125.726 18.3125C126.528 17.6258 127.443 17.1107 128.473 16.9391L128.645 21.231L127.615 21.46C126.47 21.6889 125.555 22.1467 124.982 22.8334C124.41 23.4629 124.067 24.4357 124.01 25.7519L124.296 34.3359L120.347 35.1943L119.832 19.1137L123.781 18.2553L123.895 21.1166C124.353 19.9148 124.982 18.9992 125.726 18.3125Z" fill="white"/>
<path d="M144.324 16.9963C145.583 18.0264 146.327 19.457 146.499 21.3455C146.556 21.975 146.556 22.49 146.499 23.0051C146.442 23.5773 146.327 24.0924 146.27 24.493L134.71 25.4658C134.71 25.5803 134.71 25.8092 134.71 26.0381C134.768 27.0109 135.168 27.7549 135.798 28.2699C136.427 28.785 137.228 29.0139 138.144 28.8994C138.945 28.8422 139.632 28.6133 140.147 28.2127C140.719 27.8121 141.12 27.2971 141.463 26.7248L145.755 26.3242C145.183 27.9266 144.21 29.2428 142.836 30.3301C141.463 31.4174 139.803 32.0469 137.972 32.2185C135.969 32.3902 134.31 31.9896 132.994 30.9023C131.677 29.8723 130.933 28.3844 130.762 26.4387C130.704 25.8664 130.704 25.2369 130.762 24.6074C130.933 22.9478 131.391 21.46 132.135 20.1437C132.936 18.8275 133.909 17.7975 135.168 16.9963C136.427 16.1951 137.801 15.7373 139.403 15.6228C141.406 15.5656 143.065 15.9662 144.324 16.9963ZM142.436 21.6889C142.379 20.7732 141.978 20.0865 141.349 19.6287C140.719 19.1709 139.918 18.9992 138.945 19.0564C137.915 19.1709 137.057 19.5143 136.313 20.2582C135.569 20.9449 135.111 21.8605 134.882 23.0051L142.436 22.3756C142.493 22.0322 142.493 21.8605 142.436 21.6889Z" fill="white"/>
<path d="M163.38 17.6258C164.468 18.8275 164.983 20.3727 164.868 22.2039C164.811 22.8334 164.754 23.3484 164.639 23.8063C164.468 24.3785 164.353 24.8363 164.181 25.2942L152.622 24.6074C152.622 24.7219 152.564 24.9508 152.564 25.1797C152.507 26.1525 152.736 26.9537 153.308 27.5832C153.881 28.1555 154.625 28.4988 155.54 28.5561C156.341 28.6133 157.028 28.4416 157.658 28.1555C158.287 27.8121 158.745 27.4115 159.145 26.8393L163.437 27.0682C162.636 28.5561 161.492 29.7578 159.947 30.6162C158.402 31.5318 156.685 31.8752 154.853 31.7608C152.851 31.6463 151.248 30.9596 150.104 29.7578C148.959 28.5561 148.444 26.9537 148.559 25.008C148.616 24.4358 148.673 23.8635 148.845 23.234C149.245 21.6317 149.875 20.201 150.848 18.9992C151.82 17.7975 152.965 16.9391 154.338 16.3668C155.712 15.7945 157.143 15.5084 158.688 15.6229C160.691 15.7945 162.236 16.4813 163.38 17.6258ZM160.805 22.0322C160.862 21.1166 160.633 20.3727 160.061 19.8576C159.489 19.2854 158.745 18.9992 157.772 18.942C156.742 18.8848 155.826 19.1709 155.025 19.7432C154.167 20.3154 153.595 21.1738 153.194 22.2611L160.748 22.719C160.805 22.3756 160.805 22.1467 160.805 22.0322Z" fill="white"/>
<path d="M176.199 12.876L168.988 33.1342L164.982 32.4475L172.25 12.2465L176.199 12.876Z" fill="white"/>
<path d="M177.802 22.2611C178.946 21.2883 180.205 20.6588 181.579 20.3727C182.952 20.0865 184.268 20.0865 185.585 20.4871C186.729 20.8305 187.587 21.3455 188.274 22.0322C188.904 22.7189 189.304 23.4629 189.476 24.2641L190.506 22.2039L194.397 23.3484L187.301 37.7695L183.41 36.625L184.44 34.5076C183.639 35.0227 182.666 35.4232 181.579 35.5949C180.491 35.7666 179.347 35.7094 178.202 35.366C177.058 35.0227 176.142 34.5076 175.455 33.7637C174.711 33.0197 174.254 32.1041 174.082 31.0168C173.853 29.9295 173.968 28.785 174.311 27.5832C174.483 27.0109 174.711 26.4387 174.998 25.8664C175.742 24.3785 176.657 23.1768 177.802 22.2611ZM187.359 28.3844C187.645 27.2971 187.587 26.3814 187.13 25.5803C186.672 24.7791 185.985 24.2641 185.012 23.9779C184.326 23.749 183.582 23.749 182.78 23.9207C182.036 24.0924 181.293 24.4357 180.606 24.9508C179.919 25.4658 179.347 26.1525 178.946 27.0682C178.775 27.4115 178.66 27.6977 178.603 28.041C178.26 29.1283 178.374 30.1012 178.775 30.9023C179.175 31.7035 179.919 32.2758 180.892 32.5619C181.579 32.7908 182.38 32.7908 183.124 32.6191C183.868 32.4475 184.612 32.1041 185.298 31.5891C185.985 31.074 186.557 30.3301 186.958 29.4717C187.13 28.8994 187.301 28.556 187.359 28.3844Z" fill="white"/>
<path d="M210.593 31.9324C211.051 33.1342 210.937 34.5076 210.25 35.9383C209.964 36.5105 209.735 36.9684 209.392 37.3689L203.898 45.0373L200.293 43.3205L205.443 36.0527C205.615 35.7666 205.786 35.4805 205.958 35.1943C206.359 34.3359 206.473 33.592 206.187 32.9053C205.958 32.2186 205.386 31.7035 204.527 31.3029C203.554 30.8451 202.582 30.7307 201.666 31.0168C200.693 31.2457 199.892 31.8752 199.148 32.848L193.883 40.2875L190.221 38.5707L199.549 25.4658L203.211 27.1826L202.067 28.785C202.925 28.4416 203.841 28.3271 204.813 28.3271C205.786 28.3844 206.702 28.5561 207.618 29.0139C209.163 29.815 210.136 30.7307 210.593 31.9324Z" fill="white"/>
<path d="M215.342 37.5978C216.773 37.0828 218.203 36.9111 219.634 37.0828C221.122 37.2545 222.438 37.7695 223.697 38.6279C225.3 39.7152 226.33 40.9742 226.73 42.4049C227.131 43.8355 226.845 45.3234 225.929 46.8686L222.324 44.465C222.61 43.8355 222.667 43.2061 222.495 42.6338C222.324 42.0615 221.923 41.5465 221.236 41.0887C220.264 40.4592 219.234 40.2303 218.089 40.4592C216.944 40.6881 215.857 41.3748 214.77 42.4621C214.369 42.8627 214.083 43.2061 213.854 43.4922C213.225 44.4078 212.996 45.209 213.11 46.0102C213.225 46.8113 213.683 47.4408 214.484 47.9559C215.8 48.8715 217.173 48.9287 218.661 48.1275L222.267 50.5311C220.664 51.5611 219.005 52.0189 217.231 52.0762C215.457 52.0762 213.74 51.5611 212.137 50.4738C210.478 49.3293 209.448 48.0131 209.104 46.3535C208.761 44.7512 209.104 43.1488 210.192 41.5465C210.535 41.0314 210.936 40.5736 211.394 40.1158C212.595 38.9713 213.911 38.1129 215.342 37.5978Z" fill="white"/>
<path d="M235.83 48.4137L223.469 58.7145L220.379 56.1393L232.74 45.8385L235.83 48.4137ZM234.972 44.465C234.914 43.95 235.086 43.4922 235.429 43.0344C235.945 42.4621 236.574 42.1188 237.375 42.1188C238.176 42.0615 238.863 42.2904 239.493 42.8055C239.95 43.2061 240.237 43.6639 240.294 44.1789C240.351 44.6939 240.179 45.1518 239.836 45.6096C239.321 46.1818 238.691 46.5252 237.89 46.5824C237.089 46.6397 236.402 46.4107 235.83 45.8957C235.315 45.4379 235.029 44.9801 234.972 44.465Z" fill="white"/>
<path d="M247.618 61.7475C247.618 63.0637 247.045 64.2654 245.844 65.41C245.386 65.8106 244.985 66.1539 244.527 66.44L236.63 71.6477L233.883 68.7863L241.323 63.8649C241.609 63.6932 241.895 63.4643 242.124 63.2354C242.811 62.6059 243.154 61.9192 243.154 61.1752C243.154 60.4885 242.868 59.8018 242.181 59.1151C241.437 58.3139 240.579 57.9133 239.606 57.7988C238.633 57.6844 237.603 57.9705 236.573 58.6L229.019 63.6359L226.215 60.7174L239.663 51.8473L242.467 54.7658L240.808 55.8531C241.723 55.8531 242.639 56.082 243.555 56.4254C244.47 56.826 245.214 57.341 245.901 58.0277C247.045 59.2295 247.618 60.4885 247.618 61.7475Z" fill="white"/>
<path d="M258.32 75.1385C258.377 76.1113 258.206 76.9125 257.805 77.5992L259.922 76.6836L262.211 80.0027L247.447 86.6982C246.074 87.3277 244.7 87.6139 243.269 87.6139C241.839 87.6139 240.523 87.2705 239.206 86.5838C237.89 85.8971 236.803 84.867 235.83 83.4935C234.571 81.6623 233.999 79.8883 234.17 78.2859C234.342 76.6836 235.201 75.3674 236.746 74.4518L238.977 77.7137C238.405 78.1715 238.119 78.801 238.119 79.5449C238.119 80.2889 238.405 81.09 238.977 81.8912C239.664 82.8641 240.523 83.4935 241.553 83.7797C242.583 84.0658 243.784 83.9514 245.101 83.3791L247.39 82.349C246.417 82.2346 245.444 81.8912 244.471 81.3762C243.498 80.8611 242.697 80.1172 242.068 79.1443C241.438 78.1715 241.038 77.1986 240.98 76.1113C240.923 75.0812 241.095 74.0512 241.61 73.0783C242.125 72.1055 242.926 71.3043 243.956 70.5604C244.471 70.217 244.986 69.9309 245.616 69.6447C247.104 68.958 248.592 68.6719 250.079 68.6719C251.567 68.6719 252.941 69.0152 254.2 69.6447C255.459 70.2742 256.432 71.1326 257.233 72.2771C257.862 73.25 258.206 74.2229 258.32 75.1385ZM253.513 79.4877C254.429 78.8582 255.001 78.1143 255.115 77.1986C255.287 76.283 255.058 75.4246 254.486 74.6234C254.085 73.9939 253.513 73.5361 252.826 73.1355C252.14 72.7922 251.338 72.5633 250.48 72.5061C249.622 72.4488 248.763 72.6777 247.848 73.0783C247.504 73.25 247.218 73.4217 246.932 73.5934C245.959 74.2229 245.444 75.024 245.272 75.9396C245.101 76.8553 245.272 77.7137 245.845 78.5148C246.245 79.1443 246.817 79.6021 247.504 80.0027C248.191 80.4033 248.992 80.575 249.851 80.575C250.709 80.575 251.567 80.4033 252.483 80.0027C252.998 79.7738 253.341 79.6021 253.513 79.4877Z" fill="white"/>
<path d="M260.895 106.441L258.033 99.002L253.798 98.5441L252.311 94.5955L274.858 97.4568L276.517 101.806L259.178 112.393L257.633 108.444L260.895 106.441ZM263.641 104.839L271.024 100.49L261.524 99.4025L263.641 104.839Z" fill="white"/>
<path d="M277.204 122.98C276.917 123.896 276.46 124.582 275.773 125.04L278.062 124.983L278.863 128.931L262.668 129.332C261.18 129.332 259.807 129.103 258.491 128.531C257.174 127.959 256.087 127.1 255.171 126.013C254.256 124.868 253.626 123.495 253.283 121.835C252.825 119.661 252.997 117.829 253.798 116.399C254.599 114.968 255.858 114.11 257.689 113.881L258.491 117.772C257.804 118.001 257.289 118.459 257.003 119.146C256.717 119.832 256.659 120.691 256.831 121.664C257.06 122.808 257.632 123.724 258.433 124.411C259.292 125.097 260.436 125.441 261.867 125.383L264.385 125.326C263.526 124.811 262.783 124.182 262.096 123.323C261.409 122.465 260.951 121.435 260.722 120.29C260.493 119.146 260.551 118.058 260.894 117.086C261.237 116.113 261.81 115.254 262.668 114.568C263.526 113.881 264.557 113.423 265.816 113.137C266.388 113.022 267.017 112.965 267.647 112.965C269.249 112.908 270.794 113.194 272.168 113.766C273.541 114.339 274.686 115.197 275.601 116.227C276.517 117.314 277.089 118.516 277.318 119.832C277.547 121.034 277.547 122.064 277.204 122.98ZM271.138 125.097C272.225 124.868 273.026 124.353 273.541 123.609C274.056 122.865 274.171 121.95 273.999 120.977C273.827 120.233 273.541 119.604 273.026 118.974C272.511 118.345 271.882 117.887 271.138 117.486C270.336 117.143 269.478 116.971 268.505 116.971C268.162 116.971 267.818 117.028 267.475 117.086C266.331 117.314 265.529 117.829 265.014 118.573C264.499 119.317 264.328 120.233 264.557 121.206C264.728 121.95 265.014 122.637 265.529 123.209C266.044 123.838 266.674 124.296 267.475 124.697C268.276 125.04 269.135 125.212 270.108 125.212C270.565 125.155 270.909 125.155 271.138 125.097Z" fill="white"/>
<path d="M278.406 146.386C277.319 147.645 275.888 148.274 274 148.331C273.37 148.331 272.855 148.331 272.34 148.274C271.768 148.16 271.253 148.102 270.852 147.988L270.337 136.428C270.223 136.428 269.994 136.428 269.765 136.428C268.792 136.485 267.991 136.771 267.476 137.401C266.961 138.03 266.675 138.774 266.732 139.747C266.789 140.548 266.961 141.235 267.361 141.807C267.762 142.38 268.22 142.838 268.792 143.181L268.964 147.473C267.419 146.843 266.102 145.813 265.072 144.383C264.042 142.952 263.47 141.292 263.355 139.404C263.241 137.401 263.756 135.741 264.843 134.482C265.931 133.223 267.476 132.537 269.421 132.422C269.994 132.422 270.623 132.422 271.253 132.537C272.912 132.766 274.343 133.281 275.659 134.082C276.918 134.94 277.948 135.97 278.692 137.229C279.436 138.488 279.837 139.919 279.894 141.521C279.951 143.524 279.436 145.184 278.406 146.386ZM273.771 144.325C274.686 144.268 275.373 143.982 275.888 143.353C276.403 142.723 276.575 141.979 276.575 141.006C276.518 139.976 276.174 139.118 275.488 138.317C274.801 137.573 273.942 137 272.798 136.771L273.141 144.325C273.427 144.325 273.656 144.325 273.771 144.325Z" fill="white"/>
<path d="M277.148 166.358C276.175 167.216 274.859 167.559 273.199 167.388C272.57 167.33 272.055 167.216 271.54 167.044L262.498 164.412L262.899 160.463L271.425 162.924C271.769 163.038 272.112 163.096 272.398 163.096C273.371 163.21 274.115 163.038 274.63 162.581C275.202 162.123 275.488 161.436 275.603 160.521C275.717 159.433 275.488 158.518 274.916 157.716C274.344 156.915 273.486 156.286 272.341 155.942L263.585 153.424L264.043 149.419L279.494 153.882L279.037 157.888L277.148 157.316C277.72 158.06 278.178 158.861 278.464 159.777C278.75 160.692 278.865 161.665 278.75 162.638C278.693 164.297 278.121 165.499 277.148 166.358Z" fill="white"/>
<path d="M273.371 172.653C274.344 173.797 274.973 175.113 275.317 176.544C275.66 177.975 275.603 179.463 275.202 180.893C274.687 182.782 273.829 184.155 272.627 185.013C271.425 185.872 269.88 186.101 268.163 185.757L269.251 181.58C269.937 181.637 270.567 181.523 271.025 181.122C271.54 180.779 271.883 180.206 272.055 179.405C272.341 178.318 272.169 177.231 271.597 176.258C271.025 175.285 269.994 174.427 268.621 173.797C268.106 173.568 267.705 173.396 267.305 173.282C266.275 172.996 265.359 173.053 264.672 173.396C263.986 173.74 263.528 174.427 263.242 175.342C262.841 176.887 263.242 178.204 264.443 179.348L263.356 183.526C261.868 182.381 260.838 180.95 260.266 179.234C259.694 177.517 259.636 175.743 260.094 173.912C260.609 171.966 261.582 170.592 262.956 169.734C264.386 168.876 265.989 168.704 267.877 169.162C268.449 169.333 269.022 169.505 269.651 169.791C271.139 170.592 272.398 171.508 273.371 172.653Z" fill="white"/>
<path d="M270.223 194.742L259.236 192.281L267.018 202.296L265.359 206.187L249.393 184.212L251.052 180.321L256.431 187.875L272.054 190.622L270.223 194.742Z" fill="white"/>
<path d="M247.503 205.558C248.018 205.443 248.476 205.501 248.991 205.844C249.621 206.245 250.021 206.874 250.193 207.618C250.307 208.419 250.193 209.106 249.792 209.793C249.449 210.308 249.048 210.651 248.533 210.765C248.018 210.88 247.56 210.765 247.045 210.479C246.416 210.079 246.015 209.449 245.844 208.705C245.672 207.961 245.844 207.217 246.244 206.531C246.588 206.016 246.988 205.672 247.503 205.558Z" fill="white"/>
<path d="M242.64 243.156L240.694 240.638L244.242 236.746L233.77 223.184L236.459 220.208L246.932 233.713L250.537 229.765L252.483 232.283L242.64 243.156Z" fill="white"/>
<path d="M226.387 231.481C227.532 231.253 228.677 231.367 229.764 231.768C230.851 232.168 231.824 232.912 232.625 233.942C233.77 235.316 234.456 236.861 234.743 238.52C235.029 240.18 234.857 241.839 234.285 243.442C233.712 245.044 232.682 246.418 231.309 247.562C230.279 248.421 229.134 248.993 227.99 249.222C226.788 249.451 225.701 249.393 224.613 248.936C223.526 248.535 222.553 247.791 221.695 246.818C220.55 245.445 219.806 243.9 219.577 242.183C219.291 240.523 219.463 238.864 220.093 237.261C220.722 235.659 221.695 234.286 223.126 233.141C224.156 232.283 225.243 231.71 226.387 231.481ZM223.412 238.406C223.183 239.321 223.183 240.294 223.412 241.267C223.641 242.24 224.098 243.156 224.728 243.9C225.472 244.758 226.273 245.273 227.131 245.33C227.99 245.388 228.848 245.101 229.592 244.529C230.336 243.957 230.851 243.156 231.08 242.24C231.309 241.324 231.309 240.409 231.023 239.436C230.737 238.463 230.279 237.547 229.649 236.746C228.905 235.888 228.161 235.373 227.303 235.316C226.445 235.201 225.643 235.487 224.9 236.117C224.156 236.746 223.641 237.49 223.412 238.406Z" fill="white"/>
<path d="M215.4 257.748C214.828 258.664 214.027 259.408 212.997 260.037C211.967 260.61 210.936 260.953 209.906 260.953C208.876 260.953 207.903 260.724 206.988 260.152C206.072 259.58 205.271 258.721 204.642 257.634C204.355 257.119 204.069 256.547 203.84 255.974C203.268 254.429 203.039 252.884 203.154 251.396C203.268 249.908 203.669 248.535 204.355 247.333C205.042 246.131 206.015 245.159 207.159 244.529C208.19 243.957 209.162 243.671 210.078 243.671C210.994 243.671 211.852 243.9 212.596 244.3L209.105 234.972L212.596 232.912L220.894 255.173L217.403 257.233L216.602 255.059C216.373 255.917 215.972 256.833 215.4 257.748ZM207.846 254.773C208.418 255.746 209.162 256.318 210.021 256.547C210.879 256.776 211.795 256.604 212.653 256.089C213.283 255.746 213.798 255.173 214.198 254.544C214.599 253.857 214.885 253.113 214.942 252.197C215.057 251.339 214.885 250.423 214.542 249.508C214.37 249.05 214.198 248.707 214.084 248.535C213.512 247.562 212.768 246.99 211.909 246.761C211.051 246.532 210.135 246.704 209.277 247.219C208.647 247.619 208.132 248.134 207.675 248.821C207.274 249.508 206.988 250.309 206.931 251.167C206.873 252.026 206.988 252.941 207.331 253.857C207.503 254.2 207.675 254.544 207.846 254.773Z" fill="white"/>
<path d="M183.524 276.233L183.066 273.085L190.964 270.453L190.162 265.188L184.154 267.191L183.696 264.101L189.762 262.098L188.503 253.571L192.337 252.312L195.313 272.398L183.524 276.233Z" fill="white"/>
<path d="M172.995 273.543C172.194 274.23 171.278 274.745 170.248 274.916L170.076 270.624L171.106 270.396C172.251 270.167 173.109 269.709 173.739 269.022C174.311 268.393 174.654 267.42 174.712 266.104L174.425 257.52L178.374 256.661L178.946 272.742L174.998 273.6L174.883 270.739C174.425 271.941 173.796 272.856 172.995 273.543Z" fill="white"/>
<path d="M154.397 274.859C153.138 273.829 152.394 272.398 152.223 270.51C152.165 269.88 152.165 269.365 152.223 268.85C152.28 268.278 152.394 267.763 152.452 267.363L164.011 266.39C164.011 266.275 164.011 266.046 164.011 265.817C163.954 264.845 163.553 264.101 162.924 263.586C162.294 263.071 161.493 262.842 160.578 262.956C159.777 263.013 159.09 263.242 158.575 263.643C158.06 264.043 157.602 264.558 157.259 265.131L152.967 265.531C153.539 263.929 154.512 262.613 155.885 261.525C157.259 260.438 158.918 259.809 160.749 259.637C162.752 259.465 164.412 259.866 165.728 260.953C167.044 262.04 167.788 263.471 167.96 265.417C168.017 265.989 168.017 266.619 167.96 267.248C167.788 268.908 167.33 270.396 166.586 271.712C165.785 273.028 164.812 274.058 163.553 274.859C162.294 275.66 160.921 276.118 159.319 276.233C157.316 276.29 155.656 275.889 154.397 274.859ZM156.286 270.167C156.343 271.082 156.744 271.769 157.373 272.227C158.002 272.685 158.804 272.856 159.777 272.799C160.807 272.685 161.665 272.341 162.409 271.597C163.153 270.911 163.611 269.995 163.84 268.85L156.286 269.48C156.286 269.823 156.286 269.995 156.286 270.167Z" fill="white"/>
<path d="M135.339 274.23C134.252 273.028 133.737 271.483 133.852 269.652C133.909 269.022 133.966 268.507 134.08 268.049C134.252 267.477 134.367 267.019 134.538 266.561L146.098 267.248C146.098 267.134 146.155 266.905 146.155 266.676C146.213 265.703 145.984 264.902 145.411 264.272C144.839 263.7 144.095 263.357 143.18 263.299C142.378 263.242 141.692 263.414 141.062 263.7C140.433 264.043 139.975 264.444 139.574 265.016L135.282 264.787C136.083 263.299 137.228 262.098 138.773 261.239C140.318 260.324 142.035 259.98 143.866 260.095C145.869 260.209 147.472 260.896 148.616 262.098C149.761 263.299 150.276 264.902 150.161 266.847C150.104 267.42 150.047 267.992 149.875 268.621C149.474 270.224 148.845 271.655 147.872 272.856C146.899 274.058 145.755 274.916 144.381 275.489C143.008 276.061 141.577 276.347 140.032 276.233C138.029 276.061 136.484 275.374 135.339 274.23ZM137.915 269.823C137.857 270.739 138.086 271.483 138.659 271.998C139.231 272.57 139.975 272.856 140.948 272.913C141.978 272.971 142.893 272.685 143.695 272.112C144.553 271.54 145.125 270.682 145.526 269.594L137.972 269.137C137.972 269.48 137.915 269.709 137.915 269.823Z" fill="white"/>
<path d="M122.521 278.98L129.732 258.721L133.738 259.408L126.527 279.666L122.521 278.98Z" fill="white"/>
<path d="M120.918 269.652C119.773 270.624 118.514 271.254 117.141 271.54C115.768 271.826 114.451 271.826 113.135 271.426C111.991 271.082 111.132 270.567 110.446 269.88C109.816 269.194 109.415 268.45 109.244 267.649L108.214 269.709L104.322 268.564L111.418 254.143L115.31 255.288L114.28 257.405C115.081 256.89 116.054 256.489 117.141 256.318C118.228 256.146 119.373 256.203 120.517 256.547C121.662 256.89 122.578 257.405 123.264 258.149C124.008 258.893 124.466 259.809 124.638 260.896C124.867 261.983 124.752 263.128 124.409 264.33C124.237 264.902 124.008 265.474 123.722 266.046C123.035 267.477 122.062 268.679 120.918 269.652ZM111.361 263.528C111.075 264.616 111.132 265.531 111.59 266.332C112.048 267.134 112.735 267.649 113.707 267.935C114.394 268.164 115.138 268.164 115.939 267.992C116.683 267.82 117.427 267.477 118.114 266.962C118.801 266.447 119.373 265.76 119.773 264.845C119.945 264.501 120.06 264.215 120.117 263.872C120.46 262.784 120.346 261.812 119.945 261.01C119.487 260.209 118.801 259.637 117.828 259.351C117.141 259.122 116.34 259.122 115.596 259.294C114.795 259.465 114.108 259.809 113.421 260.324C112.735 260.839 112.162 261.583 111.762 262.441C111.59 262.956 111.418 263.299 111.361 263.528Z" fill="white"/>
<path d="M88.1282 259.923C87.6704 258.721 87.7848 257.348 88.4716 255.917C88.7577 255.345 88.9866 254.887 89.33 254.487L94.8237 246.818L98.429 248.535L93.2786 255.803C93.1069 256.089 92.9352 256.375 92.7636 256.661C92.363 257.52 92.2485 258.263 92.5346 258.95C92.7636 259.637 93.3358 260.152 94.1942 260.553C95.1671 261.01 96.1399 261.125 97.0555 260.839C98.0284 260.61 98.8296 259.98 99.5735 259.007L104.838 251.568L108.501 253.285L99.1729 266.39L95.5104 264.673L96.655 263.071C95.7966 263.414 94.8809 263.528 93.9081 263.528C92.9352 263.471 92.0196 263.299 91.104 262.842C89.5589 262.04 88.586 261.125 88.1282 259.923Z" fill="white"/>
<path d="M83.4354 254.258C82.0048 254.773 80.5741 254.944 79.1434 254.773C77.6556 254.601 76.3393 254.086 75.0804 253.228C73.478 252.14 72.4479 250.881 72.0473 249.451C71.6468 248.02 71.9329 246.532 72.7913 244.987L76.3966 247.39C76.1104 248.02 76.0532 248.649 76.2249 249.222C76.3966 249.794 76.7971 250.309 77.4839 250.767C78.4567 251.396 79.4868 251.625 80.6313 251.396C81.7759 251.167 82.8632 250.481 83.9505 249.393C84.3511 248.993 84.6372 248.649 84.8661 248.363C85.4956 247.448 85.7245 246.646 85.61 245.845C85.4956 245.044 85.0378 244.415 84.2366 243.9C82.9204 242.984 81.547 242.927 80.0591 243.728L76.4538 241.324C78.0561 240.294 79.7157 239.837 81.4897 239.779C83.2637 239.779 84.9806 240.294 86.5829 241.382C88.2425 242.526 89.2725 243.842 89.6159 245.502C89.9593 247.104 89.6159 248.707 88.5286 250.309C88.1852 250.824 87.7847 251.282 87.3268 251.74C86.1251 252.884 84.8089 253.743 83.4354 254.258Z" fill="white"/>
<path d="M63.7489 247.39C63.8062 247.905 63.6345 248.363 63.2911 248.821C62.7761 249.393 62.1466 249.737 61.3454 249.737C60.5442 249.794 59.8575 249.565 59.228 249.05C58.7702 248.649 58.4841 248.192 58.4269 247.677C58.3696 247.162 58.5413 246.704 58.8847 246.246C59.3997 245.674 60.0292 245.33 60.8304 245.273C61.6316 245.216 62.3183 245.445 62.8905 245.96C63.4628 246.418 63.6917 246.875 63.7489 247.39ZM62.8905 243.499L75.2515 233.198L78.3417 235.773L65.9808 246.074L62.8905 243.499Z" fill="white"/>
<path d="M51.1016 230.108C51.1016 228.792 51.6738 227.59 52.8756 226.446C53.3334 226.045 53.734 225.702 54.1918 225.415L62.0891 220.208L64.8359 223.069L57.3965 227.991C57.1104 228.162 56.8242 228.391 56.5953 228.62C55.9086 229.25 55.5652 229.936 55.5652 230.68C55.5652 231.367 55.8514 232.054 56.5381 232.74C57.282 233.542 58.1404 233.942 59.1133 234.057C60.0861 234.171 61.1162 233.885 62.1463 233.255L69.7002 228.22L72.5043 231.138L59.0561 240.008L56.252 237.09L57.9115 236.002C56.9959 236.002 56.0803 235.773 55.1646 235.43C54.249 235.029 53.5051 234.514 52.8184 233.828C51.6738 232.626 51.1588 231.424 51.1016 230.108Z" fill="white"/>
<path d="M40.4578 216.717C40.4006 215.744 40.5723 214.943 40.9728 214.256L38.8555 215.172L36.5664 211.853L51.3309 205.157C52.7043 204.528 54.0777 204.242 55.5084 204.242C56.9391 204.242 58.2553 204.585 59.5715 205.272C60.8877 205.958 61.975 206.988 62.9479 208.362C64.2068 210.193 64.7791 211.967 64.6074 213.57C64.4357 215.172 63.5773 216.488 62.0322 217.404L59.8004 214.142C60.3727 213.684 60.6588 213.055 60.6588 212.311C60.6588 211.567 60.3727 210.765 59.8004 209.964C59.1137 208.991 58.2553 208.362 57.2252 208.076C56.1951 207.79 54.9934 207.904 53.6771 208.476L51.3881 209.506C52.3609 209.621 53.3338 209.964 54.3066 210.479C55.2795 210.994 56.0807 211.738 56.7102 212.711C57.3396 213.684 57.7402 214.657 57.7975 215.744C57.8547 216.774 57.683 217.804 57.168 218.777C56.6529 219.75 55.8518 220.551 54.8217 221.295C54.3066 221.638 53.7916 221.925 53.1621 222.211C51.6742 222.897 50.1863 223.184 48.6984 223.184C47.2105 223.184 45.8371 222.84 44.5781 222.211C43.3191 221.581 42.3463 220.723 41.5451 219.578C40.9156 218.605 40.515 217.69 40.4578 216.717ZM45.2076 212.368C44.292 212.997 43.7197 213.741 43.6053 214.657C43.4908 215.572 43.6625 216.431 44.2348 217.232C44.6354 217.862 45.2076 218.319 45.8943 218.72C46.5811 219.063 47.3822 219.292 48.2406 219.349C49.099 219.407 49.9574 219.178 50.873 218.777C51.2164 218.605 51.5025 218.434 51.7887 218.262C52.7615 217.633 53.2766 216.831 53.4482 215.916C53.6199 215 53.4482 214.142 52.876 213.341C52.4754 212.711 51.9031 212.253 51.2164 211.853C50.5297 211.452 49.7285 211.28 48.8701 211.28C48.0117 211.28 47.1533 211.452 46.2377 211.853C45.7227 212.082 45.4365 212.253 45.2076 212.368Z" fill="white"/>
<path d="M37.826 185.414L40.6873 192.854L44.9221 193.311L46.41 197.26L23.8627 194.456L22.2031 190.107L39.5428 179.52L41.0879 183.468L37.826 185.414ZM35.0791 187.016L27.6969 191.366L37.1965 192.453L35.0791 187.016Z" fill="white"/>
<path d="M21.517 168.933C21.8031 168.017 22.2609 167.33 22.9477 166.873L20.6586 166.93L19.8574 162.981L36.0525 162.523C37.5404 162.523 38.9139 162.752 40.2301 163.325C41.5463 163.897 42.6336 164.755 43.5492 165.843C44.4648 166.987 45.0943 168.361 45.4377 170.02C45.8955 172.195 45.7238 174.026 44.9227 175.457C44.1215 176.887 42.8625 177.746 41.0312 177.975L40.2301 174.083C40.9168 173.854 41.4318 173.396 41.718 172.71C42.0041 172.023 42.0613 171.165 41.8896 170.192C41.6607 169.047 41.0885 168.132 40.2873 167.445C39.4289 166.758 38.2844 166.415 36.8537 166.472L34.3357 166.529C35.1941 167.044 35.9381 167.674 36.6248 168.532C37.3115 169.391 37.7693 170.421 37.9982 171.565C38.2271 172.71 38.1699 173.797 37.8266 174.77C37.4832 175.743 36.9109 176.601 36.0525 177.288C35.1941 177.975 34.1641 178.432 32.9051 178.719C32.3328 178.833 31.7033 178.89 31.0738 178.89C29.4715 178.947 27.9264 178.661 26.5529 178.089C25.1795 177.517 24.035 176.658 23.1193 175.628C22.2037 174.541 21.6314 173.397 21.3453 172.023C21.1736 170.879 21.2309 169.848 21.517 168.933ZM27.583 166.815C26.4957 167.044 25.6945 167.559 25.1795 168.303C24.6645 169.047 24.55 169.963 24.7217 170.936C24.8934 171.68 25.1795 172.309 25.6945 172.939C26.2096 173.568 26.8391 174.026 27.583 174.427C28.3842 174.77 29.2426 174.942 30.2154 174.942C30.5588 174.942 30.9021 174.884 31.2455 174.827C32.39 174.598 33.1912 174.083 33.7063 173.339C34.2213 172.595 34.393 171.68 34.1641 170.707C33.9924 169.963 33.7062 169.276 33.1912 168.704C32.6762 168.074 32.0467 167.617 31.2455 167.216C30.4443 166.873 29.5859 166.701 28.6131 166.701C28.1553 166.701 27.8119 166.758 27.583 166.815Z" fill="white"/>
<path d="M20.3145 145.47C21.4018 144.211 22.8324 143.581 24.7209 143.524C25.3504 143.524 25.8654 143.524 26.3805 143.581C26.9527 143.696 27.4678 143.753 27.8684 143.868L28.3834 155.427C28.4979 155.427 28.7268 155.427 28.9557 155.427C29.9285 155.37 30.7297 155.084 31.2447 154.455C31.7598 153.825 32.0459 153.081 31.9887 152.108C31.9314 151.307 31.7598 150.62 31.3592 150.048C30.9586 149.476 30.5008 149.018 29.9285 148.675L29.7568 144.383C31.302 145.012 32.6182 146.042 33.6482 147.473C34.6783 148.904 35.2506 150.563 35.365 152.452C35.4795 154.455 34.9645 156.114 33.8772 157.373C32.7898 158.632 31.2447 159.319 29.299 159.433C28.7268 159.433 28.0973 159.433 27.4678 159.319C25.8082 159.09 24.3775 158.575 23.0613 157.774C21.8023 156.915 20.7723 155.885 20.0283 154.626C19.2844 153.367 18.8838 151.937 18.8266 150.334C18.7693 148.331 19.2844 146.729 20.3145 145.47ZM24.9498 147.587C24.0342 147.645 23.3475 147.931 22.8324 148.56C22.3174 149.19 22.1457 149.934 22.1457 150.906C22.2029 151.937 22.5463 152.795 23.233 153.596C23.9197 154.34 24.7781 154.912 25.9227 155.141L25.5793 147.587C25.2932 147.587 25.0643 147.53 24.9498 147.587Z" fill="white"/>
<path d="M21.5729 125.498C22.5457 124.639 23.8619 124.296 25.5215 124.468C26.151 124.525 26.666 124.639 27.1811 124.811L36.2229 127.444L35.8223 131.392L27.2955 128.931C26.9521 128.817 26.6088 128.76 26.3227 128.76C25.3498 128.645 24.6059 128.817 24.0908 129.275C23.5186 129.733 23.2324 130.419 23.118 131.335C23.0035 132.422 23.2324 133.338 23.8047 134.139C24.377 134.94 25.2354 135.57 26.3799 135.913L35.1355 138.431L34.6777 142.437L19.2266 137.973L19.6844 133.967L21.5729 134.54C21.0006 133.796 20.5428 132.995 20.2566 132.079C19.9705 131.163 19.8561 130.19 19.9705 129.218C20.0277 127.558 20.6 126.356 21.5729 125.498Z" fill="white"/>
<path d="M25.3508 119.203C24.378 118.058 23.7485 116.742 23.4051 115.312C23.0618 113.881 23.119 112.393 23.5196 110.962C24.0346 109.074 24.893 107.7 26.0948 106.842C27.2965 105.984 28.8417 105.755 30.5585 106.098L29.4712 110.276C28.7844 110.218 28.1549 110.333 27.6971 110.733C27.1821 111.077 26.8387 111.649 26.6671 112.45C26.3809 113.537 26.5526 114.625 27.1249 115.598C27.6971 116.571 28.7272 117.429 30.1006 118.058C30.6157 118.287 31.0163 118.459 31.4169 118.573C32.4469 118.86 33.3626 118.802 34.0493 118.459C34.736 118.116 35.1938 117.429 35.4799 116.513C35.8805 114.968 35.4799 113.652 34.2782 112.507L35.3655 108.33C36.8534 109.474 37.8835 110.905 38.4557 112.622C39.028 114.281 39.0852 116.113 38.6274 117.944C38.1124 119.89 37.1395 121.263 35.7661 122.121C34.3926 122.98 32.7331 123.152 30.8446 122.694C30.2723 122.522 29.7001 122.35 29.0706 122.064C27.5827 121.32 26.3237 120.347 25.3508 119.203Z" fill="white"/>
<path d="M28.44 97.1707L39.4848 99.5742L31.702 89.5596L33.3615 85.6682L49.3277 107.643L47.6682 111.535L42.3461 104.038L26.666 101.291L28.44 97.1707Z" fill="white"/>
<path d="M51.2161 86.2977C50.701 86.4121 50.2432 86.3549 49.7282 86.0115C49.0987 85.6109 48.6981 84.9815 48.5264 84.2375C48.412 83.4363 48.5264 82.7496 48.927 82.0629C49.2704 81.5479 49.671 81.2045 50.186 81.09C50.701 80.9756 51.1589 81.09 51.6739 81.3762C52.3034 81.7768 52.704 82.4063 52.8757 83.1502C53.0473 83.9514 52.8757 84.6381 52.4751 85.3248C52.1317 85.8399 51.7311 86.1832 51.2161 86.2977Z" fill="white"/>
</svg>
