<svg width="692" height="717" viewBox="0 0 692 717" fill="none" xmlns="http://www.w3.org/2000/svg">
<path d="M200.38 403.062C197.319 403.062 194.435 401.192 193.288 398.159C186.138 379.242 180.019 357.991 174.583 333.192C172.922 325.611 171.408 317.832 170.084 310.071C169.382 305.944 172.158 302.03 176.284 301.324C180.41 300.63 184.327 303.398 185.031 307.524C186.314 315.051 187.782 322.595 189.392 329.946C194.67 354.018 200.583 374.576 207.47 392.799C208.951 396.714 206.976 401.09 203.059 402.57C202.178 402.903 201.271 403.062 200.38 403.062Z" fill="#231F20"/>
<path d="M345.771 527.877C314.714 527.877 286.868 519.124 263.01 501.861C259.618 499.408 258.858 494.668 261.311 491.276C263.766 487.88 268.504 487.122 271.896 489.577C293.415 505.146 317.58 512.716 345.771 512.716C408.522 512.716 442.266 473.673 464.652 439.658C482.114 413.129 495.642 377.242 506.008 329.945C507.618 322.608 509.084 315.065 510.371 307.524C511.074 303.397 514.991 300.628 519.118 301.325C523.244 302.029 526.02 305.945 525.316 310.073C523.991 317.846 522.478 325.625 520.819 333.192C510.047 382.334 495.818 419.888 477.318 447.993C452.838 485.186 415.764 527.877 345.771 527.877Z" fill="#231F20"/>
<path d="M166.528 242.738C162.39 242.738 159.006 239.41 158.95 235.258C158.94 234.484 158.931 233.71 158.926 232.936V232.806L158.928 232.678C159.084 226.889 159.255 221.209 159.446 215.637C148.238 152.21 163.95 92.8903 202.611 52.7823C232.664 21.605 272.187 6.53163 311.49 11.1236C339.57 -6.89103 406.31 -4.09371 458.179 27.3983C487.007 44.8983 508.344 68.845 521.598 98.5756C537.046 133.225 540.8 174.71 532.76 221.886C532.872 225.441 532.976 229.038 533.074 232.678C533.186 236.864 529.884 240.348 525.699 240.46C521.488 240.525 518.03 237.269 517.918 233.085C517.814 229.208 517.702 225.377 517.583 221.598L517.558 220.826L517.691 220.066C535.642 116.24 490.958 65.0316 450.312 40.357C399.33 9.40897 336.916 10.6476 318.007 25.0476L315.484 26.969L312.346 26.521C276.946 21.4796 240.924 34.8836 213.527 63.305C178.12 100.034 163.9 154.87 174.51 213.752L174.654 214.549L174.626 215.357C174.427 221.105 174.25 226.973 174.088 232.956C174.094 233.656 174.102 234.356 174.111 235.057C174.167 239.242 170.818 242.682 166.631 242.738H166.528Z" fill="#231F20"/>
<path d="M500.144 228.933C426.075 228.933 332.323 203.319 276.639 166.506C268.92 161.403 258.824 162.166 252.085 168.359C229.841 188.795 197.917 214.57 172.143 221.299C168.093 222.362 163.951 219.933 162.893 215.881C161.836 211.829 164.261 207.689 168.312 206.63C192.271 200.374 224.655 172.973 241.827 157.195C253.705 146.281 271.459 144.909 284.999 153.858C344.184 192.986 448.248 218.921 521.923 212.926C526.091 212.574 529.753 215.691 530.093 219.865C530.434 224.039 527.328 227.697 523.153 228.037C515.759 228.639 508.06 228.933 500.144 228.933Z" fill="#231F20"/>
<path d="M285.993 281.151C285.993 288.576 279.973 294.595 272.549 294.595C265.122 294.595 259.104 288.576 259.104 281.151C259.104 273.725 265.122 267.705 272.549 267.705C279.973 267.705 285.993 273.725 285.993 281.151Z" fill="#231F20"/>
<path d="M433.075 281.151C433.075 288.576 427.055 294.595 419.631 294.595C412.204 294.595 406.186 288.576 406.186 281.151C406.186 273.725 412.204 267.705 419.631 267.705C427.055 267.705 433.075 273.725 433.075 281.151Z" fill="#231F20"/>
<path d="M299.51 271.069H245.586C241.399 271.069 238.006 267.675 238.006 263.488C238.006 259.303 241.399 255.908 245.586 255.908H299.51C303.697 255.908 307.091 259.303 307.091 263.488C307.091 267.675 303.697 271.069 299.51 271.069Z" fill="#231F20"/>
<path d="M446.593 271.069H392.67C388.483 271.069 385.09 267.675 385.09 263.488C385.09 259.303 388.483 255.908 392.67 255.908H446.593C450.779 255.908 454.174 259.303 454.174 263.488C454.174 267.675 450.779 271.069 446.593 271.069Z" fill="#231F20"/>
<path d="M279.562 77.0879C278.75 77.0879 277.924 76.9559 277.114 76.6799C273.151 75.3292 271.034 71.0212 272.386 67.0586C284.43 31.7479 307.848 13.7212 308.839 12.9706C312.178 10.4452 316.931 11.1026 319.459 14.4412C321.982 17.7746 321.33 22.5186 318.006 25.0492C317.72 25.2692 297.192 41.2972 286.735 71.9519C285.662 75.1039 282.715 77.0879 279.562 77.0879Z" fill="#231F20"/>
<path d="M446.896 172.104C445.355 172.104 443.802 171.637 442.459 170.665C426.975 159.464 381.231 140.608 355.67 136.676C351.532 136.038 348.692 132.169 349.33 128.032C349.967 123.893 353.836 121.049 357.975 121.692C386.643 126.101 434.068 145.882 451.346 158.381C454.738 160.834 455.499 165.574 453.044 168.966C451.562 171.014 449.246 172.104 446.896 172.104Z" fill="#231F20"/>
<path d="M345.842 385.024H345.702C344.8 385.024 323.5 384.89 311.811 373.223C308.848 370.266 308.843 365.466 311.802 362.502C314.759 359.539 319.559 359.532 322.522 362.492C328.551 368.508 341.604 369.863 345.702 369.863H345.842C349.939 369.863 362.992 368.508 369.022 362.492C371.984 359.535 376.786 359.54 379.742 362.502C382.7 365.466 382.695 370.266 379.731 373.223C368.042 384.89 346.743 385.024 345.842 385.024Z" fill="#231F20"/>
<path d="M150.402 362.01C150.073 362.01 149.739 361.988 149.405 361.944C124.675 358.694 106.027 337.408 106.027 312.434V246.522C106.027 218.984 128.43 196.583 155.967 196.583H165.346C169.533 196.583 172.927 199.978 172.927 204.164C172.927 208.35 169.533 211.744 165.346 211.744H155.967C136.79 211.744 121.189 227.344 121.189 246.522V312.434C121.189 329.827 134.169 344.648 151.381 346.911C155.531 347.456 158.454 351.264 157.909 355.416C157.407 359.232 154.149 362.01 150.402 362.01Z" fill="#231F20"/>
<path d="M537.393 362.372H533.779C529.593 362.372 526.198 358.977 526.198 354.791C526.198 350.605 529.593 347.209 533.779 347.209H537.393C556.57 347.209 572.17 331.611 572.17 312.433V246.521C572.17 227.344 556.57 211.744 537.393 211.744H528.014C523.827 211.744 520.433 208.349 520.433 204.164C520.433 199.977 523.827 196.583 528.014 196.583H537.393C564.93 196.583 587.333 218.984 587.333 246.521V312.433C587.333 339.971 564.93 362.372 537.393 362.372Z" fill="#231F20"/>
<path d="M281.835 461.536C281.767 461.536 281.701 461.535 281.633 461.533C231.638 460.228 193.773 444.553 169.087 414.949C144.266 385.179 141.586 351.431 141.586 338.303C141.586 334.117 144.979 330.723 149.167 330.723C153.354 330.723 156.747 334.117 156.747 338.303C156.747 349.779 159.085 379.277 180.733 405.24C202.502 431.349 236.583 445.191 282.029 446.377C286.214 446.485 289.519 449.968 289.409 454.153C289.302 458.271 285.93 461.536 281.835 461.536Z" fill="#231F20"/>
<path d="M337.905 482.689C316.905 482.689 299.818 467.671 299.818 449.211C299.818 430.748 316.905 415.729 337.905 415.729C358.905 415.729 375.99 430.748 375.99 449.211C375.99 453.396 372.597 456.791 368.41 456.791C364.224 456.791 360.829 453.396 360.829 449.211C360.829 439.108 350.545 430.891 337.905 430.891C325.265 430.891 314.98 439.108 314.98 449.211C314.98 459.311 325.265 467.528 337.905 467.528C342.092 467.528 345.486 470.923 345.486 475.108C345.486 479.295 342.092 482.689 337.905 482.689Z" fill="#231F20"/>
<path d="M7.58133 716.641C3.39467 716.641 0 713.246 0 709.059V698.885C0 665.789 10.4227 634.245 30.1387 607.663C49.8573 581.082 77.0213 561.957 108.693 552.355L110.109 551.927C133.835 544.733 158.443 541.085 183.244 541.085H196.767C200.953 541.085 204.348 544.479 204.348 548.666C204.348 552.853 200.953 556.247 196.767 556.247H183.244C159.933 556.247 136.807 559.675 114.505 566.438L113.089 566.865C54.5173 584.621 15.1627 637.675 15.1627 698.885V709.059C15.1627 713.246 11.768 716.641 7.58133 716.641Z" fill="#231F20"/>
<path d="M234.371 556.248C233.87 556.248 233.361 556.199 232.85 556.095C228.747 555.259 226.099 551.256 226.935 547.153L234.571 509.661C235.407 505.559 239.414 502.909 243.513 503.745C247.615 504.581 250.263 508.584 249.427 512.687L241.791 550.179C241.061 553.772 237.899 556.248 234.371 556.248Z" fill="#231F20"/>
<path d="M683.961 716.641C679.774 716.641 676.38 713.246 676.38 709.059V698.885C676.38 637.675 637.025 584.622 578.45 566.865L577.04 566.438C554.736 559.675 531.608 556.247 508.298 556.247H494.776C490.589 556.247 487.194 552.853 487.194 548.666C487.194 544.479 490.589 541.085 494.776 541.085H508.298C533.1 541.085 557.708 544.733 581.436 551.927L582.848 552.355C614.521 561.957 641.685 581.082 661.402 607.663C681.12 634.245 691.542 665.789 691.542 698.885V709.059C691.542 713.246 688.148 716.641 683.961 716.641Z" fill="#231F20"/>
<path d="M458.154 556.248C454.626 556.248 451.466 553.772 450.734 550.179L443.098 512.687C442.262 508.584 444.91 504.581 449.012 503.745C453.112 502.912 457.118 505.559 457.954 509.661L465.59 547.153C466.426 551.256 463.778 555.259 459.675 556.095C459.164 556.199 458.655 556.248 458.154 556.248Z" fill="#231F20"/>
<path d="M346.262 592.392C302.416 592.392 234.181 576.153 227.064 550.708C225.936 546.677 228.289 542.494 232.321 541.365C236.356 540.236 240.536 542.593 241.665 546.625C244.889 558.154 295.112 577.23 346.262 577.23C397.413 577.23 447.636 558.154 450.861 546.625C451.989 542.593 456.172 540.238 460.205 541.365C464.236 542.494 466.59 546.677 465.462 550.708C458.344 576.153 390.11 592.392 346.262 592.392Z" fill="#231F20"/>
</svg>
