<svg width="100" height="100" viewBox="0 0 318 82" fill="none" xmlns="http://www.w3.org/2000/svg">
<path d="M90.68 41.2C90.68 37.904 91.416 34.96 92.888 32.368C94.392 29.744 96.424 27.712 98.984 26.272C101.576 24.8 104.472 24.064 107.672 24.064C111.416 24.064 114.696 25.024 117.512 26.944C120.328 28.864 122.296 31.52 123.416 34.912H115.688C114.92 33.312 113.832 32.112 112.424 31.312C111.048 30.512 109.448 30.112 107.624 30.112C105.672 30.112 103.928 30.576 102.392 31.504C100.888 32.4 99.704 33.68 98.84 35.344C98.008 37.008 97.592 38.96 97.592 41.2C97.592 43.408 98.008 45.36 98.84 47.056C99.704 48.72 100.888 50.016 102.392 50.944C103.928 51.84 105.672 52.288 107.624 52.288C109.448 52.288 111.048 51.888 112.424 51.088C113.832 50.256 114.92 49.04 115.688 47.44H123.416C122.296 50.864 120.328 53.536 117.512 55.456C114.728 57.344 111.448 58.288 107.672 58.288C104.472 58.288 101.576 57.568 98.984 56.128C96.424 54.656 94.392 52.624 92.888 50.032C91.416 47.44 90.68 44.496 90.68 41.2ZM135.876 35.536C136.74 34.128 137.86 33.024 139.236 32.224C140.644 31.424 142.244 31.024 144.036 31.024V38.08H142.26C140.148 38.08 138.548 38.576 137.46 39.568C136.404 40.56 135.876 42.288 135.876 44.752V58H129.156V31.408H135.876V35.536ZM160.37 58.432C157.81 58.432 155.506 57.872 153.458 56.752C151.41 55.6 149.794 53.984 148.61 51.904C147.458 49.824 146.882 47.424 146.882 44.704C146.882 41.984 147.474 39.584 148.658 37.504C149.874 35.424 151.522 33.824 153.602 32.704C155.682 31.552 158.002 30.976 160.562 30.976C163.122 30.976 165.442 31.552 167.522 32.704C169.602 33.824 171.234 35.424 172.418 37.504C173.634 39.584 174.242 41.984 174.242 44.704C174.242 47.424 173.618 49.824 172.37 51.904C171.154 53.984 169.49 55.6 167.378 56.752C165.298 57.872 162.962 58.432 160.37 58.432ZM160.37 52.576C161.586 52.576 162.722 52.288 163.778 51.712C164.866 51.104 165.73 50.208 166.37 49.024C167.01 47.84 167.33 46.4 167.33 44.704C167.33 42.176 166.658 40.24 165.314 38.896C164.002 37.52 162.386 36.832 160.466 36.832C158.546 36.832 156.93 37.52 155.618 38.896C154.338 40.24 153.698 42.176 153.698 44.704C153.698 47.232 154.322 49.184 155.57 50.56C156.85 51.904 158.45 52.576 160.37 52.576ZM216.035 31.408L208.259 58H201.011L196.163 39.424L191.315 58H184.019L176.195 31.408H183.011L187.715 51.664L192.803 31.408H199.907L204.899 51.616L209.603 31.408H216.035ZM217.943 44.608C217.943 41.92 218.471 39.536 219.527 37.456C220.615 35.376 222.087 33.776 223.943 32.656C225.799 31.536 227.863 30.976 230.135 30.976C231.863 30.976 233.511 31.36 235.079 32.128C236.647 32.864 237.895 33.856 238.823 35.104V22.48H245.639V58H238.823V54.064C237.991 55.376 236.823 56.432 235.319 57.232C233.815 58.032 232.071 58.432 230.087 58.432C227.847 58.432 225.799 57.856 223.943 56.704C222.087 55.552 220.615 53.936 219.527 51.856C218.471 49.744 217.943 47.328 217.943 44.608ZM238.871 44.704C238.871 43.072 238.551 41.68 237.911 40.528C237.271 39.344 236.407 38.448 235.319 37.84C234.231 37.2 233.063 36.88 231.815 36.88C230.567 36.88 229.415 37.184 228.359 37.792C227.303 38.4 226.439 39.296 225.767 40.48C225.127 41.632 224.807 43.008 224.807 44.608C224.807 46.208 225.127 47.616 225.767 48.832C226.439 50.016 227.303 50.928 228.359 51.568C229.447 52.208 230.599 52.528 231.815 52.528C233.063 52.528 234.231 52.224 235.319 51.616C236.407 50.976 237.271 50.08 237.911 48.928C238.551 47.744 238.871 46.336 238.871 44.704ZM276.923 44.128C276.923 45.088 276.859 45.952 276.731 46.72H257.291C257.451 48.64 258.123 50.144 259.307 51.232C260.491 52.32 261.947 52.864 263.675 52.864C266.171 52.864 267.947 51.792 269.003 49.648H276.251C275.483 52.208 274.011 54.32 271.835 55.984C269.659 57.616 266.987 58.432 263.819 58.432C261.259 58.432 258.955 57.872 256.907 56.752C254.891 55.6 253.307 53.984 252.155 51.904C251.035 49.824 250.475 47.424 250.475 44.704C250.475 41.952 251.035 39.536 252.155 37.456C253.275 35.376 254.843 33.776 256.859 32.656C258.875 31.536 261.195 30.976 263.819 30.976C266.347 30.976 268.603 31.52 270.587 32.608C272.603 33.696 274.155 35.248 275.243 37.264C276.363 39.248 276.923 41.536 276.923 44.128ZM269.963 42.208C269.931 40.48 269.307 39.104 268.091 38.08C266.875 37.024 265.387 36.496 263.627 36.496C261.963 36.496 260.555 37.008 259.403 38.032C258.283 39.024 257.595 40.416 257.339 42.208H269.963ZM280.1 44.608C280.1 41.92 280.628 39.536 281.684 37.456C282.772 35.376 284.244 33.776 286.1 32.656C287.956 31.536 290.02 30.976 292.292 30.976C294.02 30.976 295.668 31.36 297.236 32.128C298.804 32.864 300.052 33.856 300.98 35.104V22.48H307.796V58H300.98V54.064C300.148 55.376 298.98 56.432 297.476 57.232C295.972 58.032 294.228 58.432 292.244 58.432C290.004 58.432 287.956 57.856 286.1 56.704C284.244 55.552 282.772 53.936 281.684 51.856C280.628 49.744 280.1 47.328 280.1 44.608ZM301.028 44.704C301.028 43.072 300.708 41.68 300.068 40.528C299.428 39.344 298.564 38.448 297.476 37.84C296.388 37.2 295.22 36.88 293.972 36.88C292.724 36.88 291.572 37.184 290.516 37.792C289.46 38.4 288.596 39.296 287.924 40.48C287.284 41.632 286.964 43.008 286.964 44.608C286.964 46.208 287.284 47.616 287.924 48.832C288.596 50.016 289.46 50.928 290.516 51.568C291.604 52.208 292.756 52.528 293.972 52.528C295.22 52.528 296.388 52.224 297.476 51.616C298.564 50.976 299.428 50.08 300.068 48.928C300.708 47.744 301.028 46.336 301.028 44.704Z" fill="white"/>
<path fill-rule="evenodd" clip-rule="evenodd" d="M7.25 0C3.24594 0 0 3.24593 0 7.25V74.75C0 78.7541 3.24594 82 7.25001 82H74.6688C78.6728 82 81.9188 78.7541 81.9188 74.75V7.25C81.9188 3.24594 78.6728 0 74.6688 0H7.25ZM43.6212 9.40597C41.974 8.45403 39.9446 8.45403 38.2975 9.40597L14.9496 22.8992C13.3025 23.8511 12.2878 25.6104 12.2878 27.5143V54.5008C12.2878 56.4046 13.3025 58.1639 14.9496 59.1158L38.2975 72.6091C39.9446 73.561 41.974 73.561 43.6212 72.6091L66.969 59.1158C68.6162 58.1639 69.6309 56.4046 69.6309 54.5008V49.3362C69.6309 47.9555 68.5116 46.8362 67.1309 46.8362H60.9278C59.8387 46.8362 58.8901 47.5485 58.462 48.55C56.8762 52.2596 54.1218 55.4309 50.5157 57.515C44.6537 60.9028 37.4314 60.9028 31.5694 57.515C25.7074 54.1272 22.0962 47.8664 22.0962 41.0908C22.0962 34.3152 25.7074 28.0543 31.5694 24.6665C37.4314 21.2788 44.6537 21.2788 50.5157 24.6665C54.075 26.7235 56.8044 29.8398 58.3996 33.4873C58.8326 34.4773 59.7758 35.1789 60.8564 35.1789H67.1309C68.5116 35.1789 69.6309 34.0596 69.6309 32.6789V27.5143C69.6309 25.6104 68.6162 23.8511 66.969 22.8992L43.6212 9.40597Z" fill="white"/>
</svg>
