<svg width="125" height="89" viewBox="0 0 125 89" fill="none" xmlns="http://www.w3.org/2000/svg">
<path d="M40.1852 24.7529V35.9706L23.5186 58.3133V2.50293L40.1852 24.7529Z" fill="#FF4A17"/>
<path d="M101.482 2.50293V35.9706L84.8149 58.3133V24.7529L101.482 2.50293Z" fill="#FF4A17"/>
<path d="M95.9261 2.50293L84.815 17.3363L62.5001 47.0956L29.0742 2.50293H54.1668L62.5001 13.6279L70.8335 2.50293H95.9261Z" fill="#FF4A17"/>
<path d="M7.40734 76.0206C6.6666 75.6498 6.11105 75.0936 5.74068 74.4446C5.37031 73.7956 5.09253 73.054 5.09253 72.2196C5.09253 71.3852 5.27771 70.6436 5.74068 69.9946C6.11105 69.3456 6.6666 68.7894 7.40734 68.4186C8.14808 68.0477 8.88883 67.8623 9.81475 67.8623C10.6481 67.8623 11.3888 68.0477 12.037 68.3258C12.6851 68.604 13.2407 69.0675 13.611 69.5311L11.8518 71.1071C11.2962 70.4581 10.7407 70.0873 9.99994 70.0873C9.44438 70.0873 8.98142 70.2727 8.61105 70.6436C8.24068 71.0144 8.05549 71.5706 8.05549 72.1269C8.05549 72.7759 8.24068 73.2394 8.61105 73.6102C8.98142 73.9811 9.44438 74.1665 9.99994 74.1665C10.7407 74.1665 11.2962 73.7956 11.8518 73.1467L13.611 74.7227C13.2407 75.279 12.6851 75.6498 12.037 75.9279C11.3888 76.2061 10.6481 76.3915 9.81475 76.3915C8.88883 76.5769 8.05549 76.3915 7.40734 76.0206Z" fill="#FF4A17"/>
<path d="M17.8703 74.2593H17.1296V76.3916H14.3518V68.0479H18.4259C19.1666 68.0479 19.9074 68.1406 20.4629 68.4187C21.0185 68.6968 21.4814 69.0676 21.7592 69.5312C22.037 69.9947 22.2222 70.551 22.2222 71.1999C22.2222 71.7562 22.1296 72.3124 21.8518 72.776C21.574 73.2395 21.2037 73.6103 20.6481 73.7958L22.4074 76.3916H19.3518L17.8703 74.2593ZM19.074 70.3656C18.8888 70.1801 18.6111 70.0874 18.2407 70.0874H17.2222V72.0343H18.2407C18.6111 72.0343 18.8888 71.9416 19.074 71.7562C19.2592 71.5708 19.3518 71.3853 19.3518 71.0145C19.3518 70.6437 19.2592 70.551 19.074 70.3656Z" fill="#FF4A17"/>
<path d="M30.1852 74.2593V76.3916H23.2407V68.0479H30V70.1801H25.9259V71.1999H29.4444V73.2395H25.9259V74.352H30.1852V74.2593Z" fill="#FF4A17"/>
<path d="M36.9444 74.9083H33.7963L33.2407 76.3916H30.3704L34.0741 68.0479H36.8518L40.5555 76.3916H37.5926L36.9444 74.9083ZM36.2037 72.8687L35.3704 70.7364L34.537 72.8687H36.2037Z" fill="#FF4A17"/>
<path d="M42.3146 70.1801H39.9072V67.9551H47.5924V70.1801H45.185V76.3915H42.4072V70.1801H42.3146Z" fill="#FF4A17"/>
<path d="M48.3333 67.9551H51.111V76.2988H48.3333V67.9551Z" fill="#FF4A17"/>
<path d="M61.4813 67.9551L57.9628 76.2988H55.185L51.6665 67.9551H54.6295L56.6665 72.8686L58.7035 67.9551H61.4813Z" fill="#FF4A17"/>
<path d="M68.7037 74.2593V76.3916H61.7593V68.0479H68.5185V70.1801H64.4445V71.1999H67.963V73.2395H64.4445V74.352H68.7037V74.2593Z" fill="#FF4A17"/>
<path d="M74.074 67.9551H77.4073C78.2406 67.9551 79.074 68.1405 79.7221 68.5113C80.3703 68.8822 80.9258 69.3457 81.2962 69.9947C81.6666 70.6436 81.8518 71.3853 81.8518 72.127C81.8518 72.9613 81.6666 73.6103 81.2962 74.2592C80.9258 74.9082 80.3703 75.3717 79.7221 75.7426C79.074 76.1134 78.2406 76.2988 77.4073 76.2988H74.074V67.9551ZM77.3147 75.8353C78.0555 75.8353 78.7962 75.6499 79.3517 75.3717C79.9073 75.0936 80.3703 74.6301 80.7406 74.0738C81.0184 73.5176 81.2036 72.8686 81.2036 72.2197C81.2036 71.5707 81.0184 70.9217 80.7406 70.3655C80.4629 69.8092 79.9999 69.3457 79.3517 69.0676C78.7962 68.7895 78.0555 68.604 77.3147 68.604H74.6295V75.928H77.3147V75.8353Z" fill="#FF4A17"/>
<path d="M89.7222 75.8354V76.3916H83.9814V68.0479H89.537V68.6041H84.537V71.9416H88.9814V72.4978H84.537V75.9281H89.7222V75.8354Z" fill="#FF4A17"/>
<path d="M92.4074 76.1133C91.8518 75.9279 91.3889 75.6497 91.1111 75.2789L91.3889 74.8154C91.6666 75.0935 92.037 75.3716 92.5926 75.557C93.1481 75.7424 93.6111 75.8352 94.1666 75.8352C95 75.8352 95.5555 75.6497 96.0185 75.3716C96.3889 75.0935 96.6666 74.6299 96.6666 74.1664C96.6666 73.7956 96.574 73.5174 96.3889 73.2393C96.2037 72.9612 95.9259 72.8685 95.5555 72.6831C95.2777 72.5904 94.8148 72.4049 94.2592 72.3122C93.6111 72.1268 93.1481 72.0341 92.7777 71.8487C92.4074 71.6633 92.1296 71.4779 91.8518 71.1997C91.574 70.9216 91.4815 70.4581 91.4815 69.9945C91.4815 69.6237 91.574 69.2529 91.7592 68.882C91.9444 68.5112 92.3148 68.2331 92.7777 68.0477C93.2407 67.8622 93.7963 67.7695 94.4444 67.7695C94.9074 67.7695 95.3703 67.8622 95.8333 67.955C96.2963 68.0477 96.6666 68.2331 97.037 68.5112L96.8518 68.9747C96.4815 68.6966 96.1111 68.6039 95.7407 68.4185C95.3703 68.2331 94.9074 68.2331 94.537 68.2331C93.7963 68.2331 93.1481 68.4185 92.7777 68.6966C92.4074 68.9747 92.2222 69.4383 92.2222 69.9018C92.2222 70.2727 92.3148 70.5508 92.5 70.8289C92.6852 71.0143 92.9629 71.1997 93.3333 71.3852C93.6111 71.4779 94.074 71.6633 94.6296 71.756C95.2777 71.9414 95.7407 72.0341 96.1111 72.2195C96.4815 72.405 96.7592 72.5904 97.037 72.8685C97.3148 73.1466 97.4074 73.5175 97.4074 74.0737C97.4074 74.4445 97.3148 74.8154 97.037 75.1862C96.8518 75.557 96.4815 75.8352 96.0185 76.0206C95.5555 76.206 95 76.2987 94.3518 76.2987C93.5185 76.3914 92.9629 76.2987 92.4074 76.1133Z" fill="#FF4A17"/>
<path d="M99.1665 67.9551H99.8147V76.2988H99.1665V67.9551Z" fill="#FF4A17"/>
<path d="M108.704 72.2197H109.259V75.3717C108.889 75.7426 108.426 76.0207 107.963 76.2061C107.407 76.3915 106.852 76.4842 106.296 76.4842C105.463 76.4842 104.722 76.2988 104.074 75.928C103.426 75.5572 102.87 75.0936 102.5 74.4447C102.13 73.7957 101.944 73.054 101.944 72.2197C101.944 71.3853 102.13 70.6436 102.5 69.9947C102.87 69.3457 103.426 68.8822 104.074 68.5113C104.722 68.1405 105.463 67.9551 106.296 67.9551C106.944 67.9551 107.5 68.0478 107.963 68.2332C108.518 68.4186 108.889 68.6967 109.259 69.0676L108.889 69.4384C108.518 69.0676 108.148 68.7894 107.685 68.6967C107.222 68.5113 106.759 68.4186 106.204 68.4186C105.463 68.4186 104.815 68.604 104.259 68.8822C103.704 69.1603 103.241 69.6238 102.87 70.1801C102.5 70.7363 102.407 71.3853 102.407 72.0342C102.407 72.6832 102.592 73.3322 102.87 73.8884C103.241 74.4447 103.611 74.9082 104.259 75.1863C104.907 75.4644 105.463 75.6499 106.204 75.6499C107.13 75.6499 107.963 75.3717 108.611 74.9082V72.2197H108.704Z" fill="#FF4A17"/>
<path d="M118.796 67.9551V76.2988H118.333L112.592 68.9749V76.2988H111.944V67.9551H112.5L118.148 75.279V67.9551H118.796Z" fill="#FF4A17"/>
<path d="M26.0185 82.9739H24.6296V82.603H27.8704V82.9739H26.4815V86.5895H26.0185V82.9739Z" fill="#FF4A17"/>
<path d="M31.7592 85.4769H29.537L29.074 86.4967H28.6111L30.4629 82.5103H30.8333L32.6852 86.4967H32.2222L31.7592 85.4769ZM31.574 85.1061L30.6481 82.9738L29.7222 85.1061H31.574Z" fill="#FF4A17"/>
<path d="M36.9444 84.5498H37.3147V86.0331C37.1295 86.2185 36.9444 86.3112 36.6666 86.4039C36.3888 86.4966 36.111 86.4966 35.8332 86.4966C35.4629 86.4966 35.0925 86.4039 34.7221 86.2185C34.4444 86.0331 34.1666 85.8477 33.9814 85.4769C33.7962 85.1987 33.7036 84.8279 33.7036 84.4571C33.7036 84.0862 33.7962 83.7154 33.9814 83.4373C34.1666 83.1591 34.4444 82.881 34.7221 82.6956C34.9999 82.5102 35.3703 82.4175 35.8332 82.4175C36.111 82.4175 36.3888 82.5102 36.6666 82.6029C36.9444 82.6956 37.1295 82.881 37.3147 83.0664L37.0369 83.3446C36.7592 83.0664 36.2962 82.881 35.8332 82.881C35.5555 82.881 35.1851 82.9737 34.9999 83.0664C34.7221 83.2519 34.5369 83.4373 34.3518 83.6227C34.1666 83.9008 34.1666 84.1789 34.1666 84.4571C34.1666 84.7352 34.2592 85.0133 34.3518 85.2914C34.5369 85.5696 34.7221 85.755 34.9999 85.8477C35.2777 85.9404 35.5555 86.0331 35.8332 86.0331C36.2036 86.0331 36.574 85.9404 36.8518 85.755V84.5498H36.9444Z" fill="#FF4A17"/>
<path d="M39.4443 82.603H39.8147V86.2187H42.0369V86.5895H39.4443V82.603Z" fill="#FF4A17"/>
<path d="M43.6111 82.603H44.074V86.5895H43.6111V82.603Z" fill="#FF4A17"/>
<path d="M49.5369 82.603V86.5895H49.1666L46.6666 83.3447V86.5895H46.2036V82.603H46.574L49.1666 85.8478V82.603H49.5369Z" fill="#FF4A17"/>
<path d="M54.5371 86.2187V86.5895H51.7593V82.603H54.4445V82.9739H52.1296V84.3645H54.1667V84.7353H52.1296V86.2187H54.5371Z" fill="#FF4A17"/>
<path d="M61.574 84.5498H61.9444V86.0331C61.7592 86.2185 61.574 86.3112 61.2962 86.4039C61.0184 86.4966 60.7407 86.4966 60.4629 86.4966C60.0925 86.4966 59.7221 86.4039 59.3518 86.2185C59.074 86.0331 58.7962 85.8477 58.611 85.4769C58.4258 85.1987 58.3333 84.8279 58.3333 84.4571C58.3333 84.0862 58.4258 83.7154 58.611 83.4373C58.7962 83.1591 59.074 82.881 59.3518 82.6956C59.6295 82.5102 59.9999 82.4175 60.4629 82.4175C60.7407 82.4175 61.0184 82.5102 61.2962 82.6029C61.574 82.6956 61.7592 82.881 61.9444 83.0664L61.6666 83.3446C61.3888 83.0664 60.9258 82.881 60.4629 82.881C60.1851 82.881 59.8147 82.9737 59.6295 83.0664C59.3518 83.2519 59.1666 83.4373 58.9814 83.6227C58.7962 83.9008 58.7962 84.1789 58.7962 84.4571C58.7962 84.7352 58.8888 85.0133 58.9814 85.2914C59.1666 85.5696 59.3518 85.755 59.6295 85.8477C59.9073 85.9404 60.1851 86.2185 60.5555 86.2185C60.9258 86.2185 61.2962 86.1258 61.574 85.9404V84.5498Z" fill="#FF4A17"/>
<path d="M64.7221 86.3113C64.4444 86.1259 64.1666 85.9405 63.9814 85.5696C63.7962 85.2915 63.7036 84.9207 63.7036 84.5498C63.7036 84.179 63.7962 83.8082 63.9814 83.53C64.1666 83.2519 64.4444 82.9738 64.7221 82.7884C64.9999 82.603 65.3703 82.5103 65.7406 82.5103C66.111 82.5103 66.4814 82.603 66.7592 82.7884C67.0369 82.9738 67.3147 83.1592 67.4999 83.53C67.6851 83.8082 67.7777 84.179 67.7777 84.5498C67.7777 84.9207 67.7777 85.2915 67.5925 85.5696C67.4073 85.8478 67.1295 86.1259 66.8518 86.3113C66.574 86.4967 66.2036 86.5894 65.8332 86.5894C65.4629 86.5894 65.0925 86.4967 64.7221 86.3113ZM66.6666 86.0332C66.9444 85.8478 67.1295 85.6623 67.2221 85.4769C67.4073 85.1988 67.4073 84.9207 67.4073 84.6425C67.4073 84.3644 67.3147 84.0863 67.2221 83.8082C67.0369 83.53 66.8518 83.3446 66.6666 83.2519C66.4814 83.1592 66.111 83.0665 65.8332 83.0665C65.5555 83.0665 65.2777 83.1592 64.9999 83.2519C64.7221 83.3446 64.5369 83.6228 64.4443 83.8082C64.2592 84.0863 64.2592 84.3644 64.2592 84.6425C64.2592 84.9207 64.3518 85.1988 64.4443 85.4769C64.6295 85.755 64.8147 85.9405 64.9999 86.0332C65.1851 86.1259 65.5555 86.2186 65.8332 86.2186C66.111 86.2186 66.3888 86.1259 66.6666 86.0332Z" fill="#FF4A17"/>
<path d="M72.4999 86.2187V86.5895H69.7222V82.603H72.4073V82.9739H70.0925V84.3645H72.1296V84.7353H70.0925V86.2187H72.4999Z" fill="#FF4A17"/>
<path d="M74.6296 86.4041C74.3518 86.3114 74.1666 86.2187 73.9814 86.0333L74.1666 85.7552C74.3518 85.9406 74.537 86.0333 74.7222 86.126C75 86.2187 75.1851 86.2187 75.4629 86.2187C75.8333 86.2187 76.1111 86.126 76.2963 86.0333C76.4814 85.9406 76.574 85.7552 76.574 85.5698C76.574 85.3843 76.4814 85.2916 76.3889 85.1989C76.2963 85.1062 76.2037 85.0135 76.0185 85.0135C75.8333 84.9208 75.6481 84.9208 75.4629 84.8281C75.1851 84.7354 74.9074 84.6427 74.7222 84.6427C74.537 84.55 74.3518 84.4573 74.2592 84.3646C74.1666 84.1791 74.074 83.9937 74.074 83.8083C74.074 83.6229 74.1666 83.4375 74.2592 83.2521C74.3518 83.0666 74.537 82.9739 74.7222 82.8812C74.9074 82.7885 75.1851 82.6958 75.5555 82.6958C75.7407 82.6958 76.0185 82.6958 76.2037 82.7885C76.3889 82.8812 76.574 82.9739 76.7592 83.0666L76.574 83.4375C76.3888 83.3448 76.2037 83.2521 76.0185 83.1593C75.8333 83.0666 75.6481 83.0666 75.4629 83.0666C75.0926 83.0666 74.8148 83.1593 74.7222 83.2521C74.6296 83.3448 74.4444 83.5302 74.4444 83.8083C74.4444 83.9937 74.537 84.0864 74.6296 84.1791C74.7222 84.2718 74.8148 84.3646 75 84.3646C75.1851 84.4573 75.3703 84.4573 75.5555 84.55C75.8333 84.6427 76.1111 84.7354 76.2963 84.7354C76.4814 84.8281 76.6666 84.9208 76.7592 85.0135C76.8518 85.1989 76.9444 85.3843 76.9444 85.5698C76.9444 85.7552 76.8518 85.9406 76.7592 86.126C76.6666 86.3114 76.4814 86.4041 76.2963 86.4968C76.1111 86.5896 75.8333 86.6823 75.4629 86.6823C75.1851 86.5896 74.9074 86.4968 74.6296 86.4041Z" fill="#FF4A17"/>
<path d="M84.4444 82.603V86.5895H84.0741V84.7353H81.574V86.5895H81.1111V82.603H81.574V84.3645H84.0741V82.603H84.4444Z" fill="#FF4A17"/>
<path d="M89.4445 86.2187V86.5895H86.6667V82.603H89.3519V82.9739H87.0371V84.3645H89.0742V84.7353H87.0371V86.2187H89.4445Z" fill="#FF4A17"/>
<path d="M94.0741 86.4967L93.1482 85.1988C93.0556 85.1988 92.963 85.1988 92.8704 85.1988H91.8519V86.4967H91.3889V82.5103H92.8704C93.3334 82.5103 93.7963 82.603 94.0741 82.8811C94.3519 83.1592 94.5371 83.4373 94.5371 83.9009C94.5371 84.179 94.4445 84.4571 94.2593 84.6425C94.0741 84.828 93.8889 85.0134 93.6111 85.1061L94.5371 86.4967H94.0741ZM93.7037 84.6425C93.8889 84.4571 93.9815 84.2717 93.9815 83.9009C93.9815 83.6228 93.8889 83.3446 93.7037 83.1592C93.5185 82.9738 93.2408 82.8811 92.7778 82.8811H91.7593V84.828H92.7778C93.1482 84.9207 93.5185 84.828 93.7037 84.6425Z" fill="#FF4A17"/>
<path d="M99.0742 86.2187V86.5895H96.2964V82.603H98.9816V82.9739H96.6668V84.3645H98.7038V84.7353H96.6668V86.2187H99.0742Z" fill="#FF4A17"/>
</svg>
