<svg width="126" height="89" viewBox="0 0 126 89" fill="none" xmlns="http://www.w3.org/2000/svg">
<path d="M23.4553 57.3867C18.449 54.8836 16.4094 48.8575 18.9126 43.8513L36.8053 8.06586C39.3084 3.05961 45.3344 1.02003 50.3407 3.52316C55.3469 6.02628 57.3865 12.0523 54.8834 17.0586L36.9907 52.844C34.4876 57.8502 28.4615 59.8898 23.4553 57.3867Z" fill="#FF4A17"/>
<path d="M55.3469 57.3867C50.3406 54.8836 48.301 48.8575 50.8042 43.8513L68.7896 8.06586C71.2927 3.05961 77.3187 1.02003 82.325 3.52316C87.3312 6.02628 89.3708 12.0523 86.8677 17.0586L68.8823 52.844C66.4719 57.8502 60.3531 59.8898 55.3469 57.3867Z" fill="#FF4A17"/>
<path d="M97.4366 57.3869C104.861 57.3869 110.879 51.3684 110.879 43.9442C110.879 36.52 104.861 30.5015 97.4366 30.5015C90.0124 30.5015 83.9939 36.52 83.9939 43.9442C83.9939 51.3684 90.0124 57.3869 97.4366 57.3869Z" fill="#FF4A17"/>
<path d="M9.4562 76.1139C8.71453 75.7431 8.15828 75.1868 7.78745 74.5379C7.41662 73.8889 7.2312 73.1472 7.2312 72.3129C7.2312 71.4785 7.41662 70.7368 7.78745 70.0879C8.15828 69.4389 8.71453 68.8826 9.4562 68.5118C10.1979 68.141 10.9395 67.9556 11.8666 67.9556C12.701 67.9556 13.4427 68.141 13.9989 68.4191C14.6479 68.6972 15.2041 69.1608 15.575 69.6243L13.8135 71.2004C13.2572 70.5514 12.701 70.1806 11.9593 70.1806C11.4031 70.1806 10.9395 70.366 10.5687 70.7368C10.1979 71.1076 10.0125 71.6639 10.0125 72.2201C10.0125 72.8691 10.1979 73.3326 10.5687 73.7035C10.9395 74.0743 11.4031 74.2597 11.9593 74.2597C12.701 74.2597 13.2572 73.8889 13.8135 73.2399L15.575 74.816C15.2041 75.3722 14.6479 75.7431 13.9989 76.0212C13.35 76.2993 12.6083 76.4847 11.8666 76.4847C10.9395 76.6701 10.1979 76.4847 9.4562 76.1139Z" fill="#FF4A17"/>
<path d="M19.9323 74.3526H19.1907V76.4849H16.4094V68.1411H20.3959C21.1375 68.1411 21.8792 68.2338 22.4355 68.5119C22.9917 68.7901 23.4553 69.1609 23.7334 69.6244C24.0115 70.088 24.1969 70.6442 24.1969 71.2932C24.1969 71.8494 24.1042 72.4057 23.8261 72.8692C23.548 73.3328 23.1771 73.7036 22.6209 73.889L24.3823 76.4849H21.4157L19.9323 74.3526ZM21.0448 70.5515C20.8594 70.3661 20.5813 70.2734 20.2105 70.2734H19.1907V72.2203H20.2105C20.5813 72.2203 20.8594 72.1276 21.0448 71.9422C21.2303 71.7567 21.323 71.5713 21.323 71.2005C21.323 70.8297 21.323 70.7369 21.0448 70.5515Z" fill="#FF4A17"/>
<path d="M32.1697 74.3526V76.4849H25.2166V68.1411H31.9843V70.2734H27.9978V71.2932H31.5207V73.2401H27.9978V74.3526H32.1697Z" fill="#FF4A17"/>
<path d="M38.9375 75.0015H35.7854L35.2292 76.3921H32.3552L35.9708 68.0483H38.7521L42.3677 76.3921H39.4938L38.9375 75.0015ZM38.1958 72.9619L37.3615 70.8296L36.5271 72.9619H38.1958Z" fill="#FF4A17"/>
<path d="M44.3145 70.2733H41.9041V68.0483H49.5988V70.2733H47.1884V76.3921H44.4072V70.2733H44.3145Z" fill="#FF4A17"/>
<path d="M50.2478 68.1411H53.0291V76.4849H50.2478V68.1411Z" fill="#FF4A17"/>
<path d="M63.3198 68.1411L59.7968 76.4849H57.0156L53.4927 68.1411H56.5521L58.4989 73.0547L60.5385 68.1411H63.3198Z" fill="#FF4A17"/>
<path d="M70.551 74.3526V76.4849H63.5979V68.1411H70.3656V70.2734H66.3792V71.2932H69.9021V73.2401H66.3792V74.3526H70.551Z" fill="#FF4A17"/>
<path d="M75.8354 68.1411H79.1729C80.0073 68.1411 80.8417 68.3265 81.4907 68.6974C82.1396 69.0682 82.6959 69.5317 83.0667 70.1807C83.4375 70.8297 83.6229 71.5713 83.6229 72.313C83.6229 73.1474 83.4375 73.7963 83.0667 74.4453C82.6959 75.0942 82.1396 75.5578 81.4907 75.9286C80.8417 76.2994 80.0073 76.4849 79.1729 76.4849H75.8354V68.1411ZM79.0802 75.9286C79.8219 75.9286 80.5636 75.7432 81.1198 75.4651C81.6761 75.1869 82.1396 74.7234 82.5104 74.1672C82.8813 73.6109 82.974 72.9619 82.974 72.313C82.974 71.5713 82.7886 71.0151 82.5104 70.4588C82.2323 69.9026 81.7688 69.439 81.1198 69.1609C80.5636 68.8828 79.8219 68.6974 79.0802 68.6974H76.3917V75.9286H79.0802Z" fill="#FF4A17"/>
<path d="M91.4103 75.9286V76.4849H85.6624V68.1411H91.2249V68.6047H86.2186V71.8494H90.6686V72.4057H86.2186V75.8359H91.4103V75.9286Z" fill="#FF4A17"/>
<path d="M94.0989 76.2065C93.5427 76.0211 93.0792 75.743 92.801 75.3722L93.0792 74.9086C93.3573 75.1868 93.7281 75.4649 94.2844 75.6503C94.7479 75.8357 95.3042 75.9284 95.8604 75.9284C96.6948 75.9284 97.251 75.743 97.6219 75.4649C97.9927 75.1868 98.2708 74.7232 98.2708 74.2597C98.2708 73.8888 98.1781 73.6107 97.9927 73.3326C97.8073 73.1472 97.5292 72.9618 97.1583 72.7763C96.8802 72.6836 96.4167 72.4982 95.8604 72.4055C95.2114 72.2201 94.7479 72.1274 94.3771 71.942C94.0062 71.7565 93.7281 71.5711 93.45 71.293C93.1719 71.0149 93.0792 70.5513 93.0792 70.0878C93.0792 69.717 93.1719 69.3461 93.3573 68.9753C93.5427 68.6045 93.9135 68.3263 94.3771 68.1409C94.8406 67.9555 95.3969 67.8628 96.0458 67.8628C96.5094 67.8628 96.9729 67.9555 97.4364 68.0482C97.9 68.1409 98.2708 68.3263 98.5489 68.6045L98.3635 69.068C97.9927 68.8826 97.6219 68.6972 97.251 68.5118C96.8802 68.419 96.4167 68.3263 96.0458 68.3263C95.3042 68.3263 94.6552 68.5118 94.2844 68.7899C93.9135 69.068 93.7281 69.5315 93.7281 69.9951C93.7281 70.3659 93.8208 70.644 94.0062 70.9222C94.1917 71.1076 94.4698 71.293 94.8406 71.4784C95.1187 71.5711 95.5823 71.7565 96.1385 71.8493C96.7875 72.0347 97.251 72.1274 97.6219 72.3128C97.9927 72.4982 98.2708 72.6836 98.5489 72.9618C98.8271 73.2399 98.9198 73.6107 98.9198 74.167C98.9198 74.5378 98.8271 74.9086 98.5489 75.2795C98.3635 75.6503 97.9927 75.8357 97.5291 76.1138C97.0656 76.2993 96.5094 76.392 95.8604 76.392C95.2114 76.4847 94.6552 76.392 94.0989 76.2065Z" fill="#FF4A17"/>
<path d="M100.959 68.1411H101.608V76.4849H100.959V68.1411Z" fill="#FF4A17"/>
<path d="M110.416 72.3126H110.972V75.4647C110.601 75.8355 110.138 76.1136 109.674 76.299C109.118 76.4844 108.561 76.5771 108.005 76.5771C107.171 76.5771 106.429 76.3917 105.78 76.0209C105.131 75.6501 104.575 75.1865 104.204 74.5376C103.833 73.8886 103.648 73.1469 103.648 72.4053C103.648 71.5709 103.833 70.9219 104.204 70.273C104.575 69.624 105.131 69.1605 105.78 68.7896C106.429 68.4188 107.171 68.2334 108.005 68.2334C108.654 68.2334 109.21 68.3261 109.674 68.5115C110.23 68.6969 110.601 68.9751 110.972 69.3459L110.601 69.7167C110.23 69.3459 109.859 69.1605 109.396 68.9751C108.932 68.7897 108.469 68.6969 108.005 68.6969C107.264 68.6969 106.615 68.8824 106.058 69.1605C105.502 69.4386 105.039 69.9021 104.668 70.4584C104.297 71.0146 104.204 71.6636 104.204 72.3126C104.204 72.9615 104.39 73.6105 104.668 74.1667C105.039 74.723 105.409 75.1865 106.058 75.4647C106.615 75.7428 107.264 75.9282 108.005 75.9282C108.932 75.9282 109.767 75.6501 110.416 75.1865V72.3126Z" fill="#FF4A17"/>
<path d="M120.428 68.1411V76.4849H119.965L114.309 69.2536V76.4849H113.66V68.1411H114.217L119.872 75.3724V68.1411H120.428Z" fill="#FF4A17"/>
<path d="M28.0906 82.9744H26.7V82.6035H29.852V82.9744H28.4614V86.59H28.0906V82.9744Z" fill="#FF4A17"/>
<path d="M33.7458 85.4775H31.5208L31.0573 86.4973H30.5938L32.3552 82.6035H32.726L34.4875 86.4973H34.024L33.7458 85.4775ZM33.5604 85.1994L32.6333 83.0671L31.7063 85.1994H33.5604Z" fill="#FF4A17"/>
<path d="M38.8447 84.643H39.2155V86.1264C39.0301 86.3118 38.8447 86.4045 38.5666 86.4972C38.2885 86.5899 38.0103 86.5899 37.7322 86.5899C37.3614 86.5899 36.9905 86.4972 36.7124 86.3118C36.4343 86.1264 36.1562 85.941 35.9708 85.5701C35.7853 85.1993 35.6926 84.9212 35.6926 84.5503C35.6926 84.1795 35.7853 83.8087 35.9708 83.5305C36.1562 83.2524 36.4343 82.9743 36.7124 82.7889C36.9905 82.6035 37.3614 82.5107 37.8249 82.5107C38.103 82.5107 38.3812 82.6034 38.6593 82.6962C38.9374 82.7889 39.1228 82.9743 39.3083 83.1597L39.0301 83.4378C38.752 83.1597 38.2885 82.9743 37.8249 82.9743C37.5468 82.9743 37.176 83.067 36.9905 83.1597C36.7124 83.3451 36.527 83.5305 36.3416 83.716C36.1562 83.9941 36.1562 84.2722 36.1562 84.5503C36.1562 84.8284 36.2489 85.1066 36.3416 85.3847C36.527 85.6628 36.7124 85.8482 36.8978 85.9409C37.176 86.1264 37.4541 86.1264 37.7322 86.1264C38.103 86.1264 38.4739 86.0337 38.752 85.8482V84.643H38.8447Z" fill="#FF4A17"/>
<path d="M41.3479 82.6035H41.7187V86.2191H43.9437V86.59H41.3479V82.6035Z" fill="#FF4A17"/>
<path d="M45.6125 82.6035H45.9834V86.4973H45.6125V82.6035Z" fill="#FF4A17"/>
<path d="M51.453 82.6035V86.4973H51.0822L48.5791 83.3452V86.4973H48.2083V82.6035H48.5791L51.0822 85.7556V82.6035H51.453Z" fill="#FF4A17"/>
<path d="M56.4592 86.2192V86.59H53.678V82.6963H56.3665V83.0671H54.0488V84.365H56.0884V84.7359H54.0488V86.2192H56.4592Z" fill="#FF4A17"/>
<path d="M63.5051 84.643H63.8759V86.1264C63.6905 86.3118 63.5051 86.4045 63.227 86.4972C62.9489 86.5899 62.6707 86.5899 62.3926 86.5899C62.0218 86.5899 61.6509 86.4972 61.3728 86.3118C61.0947 86.1264 60.8166 85.941 60.6312 85.5701C60.4457 85.1993 60.353 84.9212 60.353 84.5503C60.353 84.1795 60.4457 83.8087 60.6312 83.5305C60.8166 83.2524 61.0947 82.9743 61.3728 82.7889C61.6509 82.6035 62.0218 82.5107 62.4853 82.5107C62.7634 82.5107 63.0416 82.6034 63.3197 82.6962C63.5978 82.7889 63.7832 82.9743 63.9687 83.1597L63.5978 83.4378C63.3197 83.1597 62.8562 82.9743 62.3926 82.9743C62.1145 82.9743 61.7437 83.067 61.5582 83.1597C61.2801 83.3451 61.0947 83.5305 60.9093 83.716C60.7239 83.9941 60.7239 84.2722 60.7239 84.5503C60.7239 84.8284 60.8166 85.1066 60.9093 85.3847C61.0947 85.6628 61.2801 85.8482 61.4655 85.9409C61.7437 86.1264 62.0218 86.1264 62.2999 86.1264C62.6707 86.1264 63.0416 86.0337 63.3197 85.8482V84.643H63.5051Z" fill="#FF4A17"/>
<path d="M66.5645 86.3118C66.2864 86.1264 66.0082 85.941 65.8228 85.5701C65.6374 85.292 65.5447 84.9212 65.5447 84.5503C65.5447 84.1795 65.6374 83.8087 65.8228 83.5305C66.0082 83.2524 66.2864 82.9743 66.5645 82.7889C66.8426 82.6035 67.2134 82.5107 67.5843 82.5107C67.9551 82.5107 68.3259 82.6035 68.6041 82.7889C68.8822 82.9743 69.1603 83.1597 69.3457 83.5305C69.5311 83.8087 69.6238 84.1795 69.6238 84.5503C69.6238 84.9212 69.5311 85.292 69.3457 85.5701C69.1603 85.8482 68.8822 86.1264 68.6041 86.3118C68.3259 86.4972 67.9551 86.5899 67.5843 86.5899C67.2134 86.5899 66.9353 86.4972 66.5645 86.3118ZM68.5113 86.0337C68.7895 85.8482 68.9749 85.6628 69.0676 85.4774C69.253 85.1993 69.253 84.9212 69.253 84.643C69.253 84.3649 69.1603 84.0868 69.0676 83.8087C68.8822 83.5305 68.6968 83.3451 68.5113 83.2524C68.2332 83.067 67.9551 83.067 67.677 83.067C67.3988 83.067 67.1207 83.1597 66.8426 83.2524C66.5645 83.4378 66.3791 83.6232 66.2863 83.8087C66.1009 84.0868 66.1009 84.3649 66.1009 84.643C66.1009 84.9212 66.1936 85.1993 66.2863 85.4774C66.4718 85.7555 66.6572 85.941 66.8426 86.0337C67.028 86.1264 67.3061 86.2191 67.677 86.2191C68.0478 86.2191 68.2332 86.1264 68.5113 86.0337Z" fill="#FF4A17"/>
<path d="M74.3521 86.2192V86.59H71.5708V82.6963H74.2593V83.0671H71.9416V84.365H73.9812V84.7359H71.9416V86.2192H74.3521Z" fill="#FF4A17"/>
<path d="M76.4844 86.4974C76.2063 86.4047 76.0209 86.312 75.8354 86.1266L76.0209 85.8484C76.2063 86.0338 76.3917 86.1266 76.5771 86.2193C76.8552 86.312 77.0407 86.312 77.3188 86.312C77.6896 86.312 77.9677 86.2193 78.1532 86.1266C78.3386 86.0339 78.4313 85.8484 78.4313 85.663C78.4313 85.4776 78.3386 85.3849 78.2459 85.2922C78.1532 85.1995 78.0604 85.1068 77.875 85.1068C77.6896 85.0141 77.5042 85.0141 77.3188 84.9214C77.0407 84.8286 76.7625 84.7359 76.5771 84.7359C76.3917 84.6432 76.2063 84.5505 76.1136 84.4578C76.0209 84.2724 75.9282 84.087 75.9282 83.9016C75.9282 83.7161 76.0209 83.5307 76.1136 83.3453C76.2063 83.1599 76.3917 83.0672 76.5771 82.9745C76.7625 82.8818 77.0407 82.7891 77.4115 82.7891C77.5969 82.7891 77.875 82.7891 78.0604 82.8818C78.2459 82.9745 78.4313 83.0672 78.6167 83.1599L78.4313 83.5307C78.2459 83.438 78.0604 83.3453 77.875 83.2526C77.6896 83.1599 77.5042 83.1599 77.3188 83.1599C76.9479 83.1599 76.6698 83.2526 76.5771 83.3453C76.3917 83.438 76.299 83.6234 76.299 83.9016C76.299 84.087 76.3917 84.1797 76.4844 84.2724C76.5771 84.3651 76.6698 84.4578 76.8552 84.4578C77.0407 84.5505 77.2261 84.5505 77.4115 84.6432C77.6896 84.7359 77.9677 84.8286 78.1532 84.8286C78.3386 84.9214 78.524 85.0141 78.6167 85.1068C78.7094 85.2922 78.8021 85.4776 78.8021 85.663C78.8021 85.8484 78.7094 86.0339 78.6167 86.2193C78.524 86.4047 78.3386 86.4974 78.1532 86.5901C77.9677 86.6828 77.6896 86.7755 77.3188 86.7755C77.0407 86.5901 76.7625 86.5901 76.4844 86.4974Z" fill="#FF4A17"/>
<path d="M86.2187 82.6035V86.4973H85.8478V84.6431H83.3447V86.4973H82.9739V82.6035H83.3447V84.365H85.8478V82.6035H86.2187Z" fill="#FF4A17"/>
<path d="M91.2249 86.2192V86.59H88.4436V82.6963H91.1321V83.0671H88.8144V84.365H90.854V84.7359H88.8144V86.2192H91.2249Z" fill="#FF4A17"/>
<path d="M95.7677 86.59L94.8406 85.2921C94.7479 85.2921 94.6552 85.2921 94.5625 85.2921H93.5427V86.4973H93.1719V82.6035H94.6552C95.1187 82.6035 95.5823 82.6962 95.8604 82.9744C96.1385 83.2525 96.324 83.5306 96.324 83.9941C96.324 84.2723 96.2312 84.5504 96.0458 84.7358C95.8604 84.9212 95.675 85.1066 95.3969 85.1994L96.324 86.59H95.7677ZM95.4896 84.7358C95.675 84.5504 95.7677 84.365 95.7677 83.9941C95.7677 83.716 95.675 83.4379 95.4896 83.2525C95.3042 83.0671 95.026 82.9744 94.5625 82.9744H93.5427V84.9212H94.5625C94.9333 84.9212 95.2115 84.9212 95.4896 84.7358Z" fill="#FF4A17"/>
<path d="M100.867 86.2192V86.59H98.0854V82.6963H100.774V83.0671H98.4563V84.365H100.496V84.7359H98.4563V86.2192H100.867Z" fill="#FF4A17"/>
</svg>
