<svg width="126" height="89" viewBox="0 0 126 89" fill="none" xmlns="http://www.w3.org/2000/svg">
<path d="M86.5897 15.7607H81.2126V47.7451H86.5897V15.7607Z" fill="#FF4A17"/>
<path d="M54.6054 15.7607H49.2283V47.7451H54.6054V15.7607Z" fill="#FF4A17"/>
<path d="M62.5781 2.41064V7.78773H91.874V53.1221H75.9281V27.5346L85.7552 17.6148L83.901 15.7606H80.1L70.551 25.3096V58.4065H97.251V2.41064H62.5781Z" fill="#FF4A17"/>
<path d="M27.9053 2.41064V58.4065H33.2824V7.78773H59.8897V53.1221H43.9438V27.5346L53.7709 17.6148L51.9167 15.7606H48.1157L38.5667 25.3096V58.4065H65.2667V2.41064H27.9053Z" fill="#FF4A17"/>
<path d="M7.6022 76.1139C6.86053 75.7431 6.30428 75.1868 5.93345 74.5379C5.56261 73.8889 5.3772 73.1472 5.3772 72.3129C5.3772 71.4785 5.56261 70.7368 5.93345 70.0879C6.30428 69.4389 6.86053 68.8826 7.6022 68.5118C8.34386 68.141 9.08553 67.9556 10.0126 67.9556C10.847 67.9556 11.5887 68.141 12.1449 68.4191C12.7939 68.6972 13.3501 69.1608 13.7209 69.6243L11.9595 71.2004C11.4032 70.5514 10.847 70.1806 10.1053 70.1806C9.54907 70.1806 9.08553 70.366 8.7147 70.7368C8.34386 71.1076 8.15845 71.6639 8.15845 72.2201C8.15845 72.8691 8.34386 73.3326 8.7147 73.7035C9.08553 74.0743 9.54907 74.2597 10.1053 74.2597C10.847 74.2597 11.4032 73.8889 11.9595 73.2399L13.7209 74.816C13.3501 75.3722 12.7939 75.7431 12.1449 76.0212C11.4959 76.2993 10.7543 76.4847 10.0126 76.4847C9.08553 76.6701 8.34386 76.4847 7.6022 76.1139Z" fill="#FF4A17"/>
<path d="M18.1709 74.3526H17.4292V76.4849H14.6479V68.1411H18.5417C19.2834 68.1411 20.025 68.2338 20.5813 68.5119C21.1375 68.7901 21.6011 69.1609 21.8792 69.6244C22.1573 70.088 22.3427 70.6442 22.3427 71.2932C22.3427 71.8494 22.25 72.4057 21.9719 72.8692C21.6938 73.3328 21.3229 73.7036 20.7667 73.889L22.5282 76.4849H19.5615L18.1709 74.3526ZM19.2834 70.5515C19.0979 70.3661 18.8198 70.2734 18.449 70.2734H17.4292V72.2203H18.449C18.8198 72.2203 19.0979 72.1276 19.2834 71.9422C19.4688 71.7567 19.5615 71.5713 19.5615 71.2005C19.5615 70.9224 19.4688 70.7369 19.2834 70.5515Z" fill="#FF4A17"/>
<path d="M30.4084 74.3526V76.4849H23.4553V68.1411H30.223V70.2734H26.2366V71.2932H29.7595V73.2401H26.2366V74.3526H30.4084Z" fill="#FF4A17"/>
<path d="M37.176 75.0015H34.024L33.375 76.4849H30.5938L34.2094 68.1411H36.9906L40.6063 76.4849H37.7323L37.176 75.0015ZM36.3417 72.9619L35.5073 70.8297L34.6729 72.9619H36.3417Z" fill="#FF4A17"/>
<path d="M42.4605 70.2733H40.05V68.0483H47.7448V70.2733H45.3344V76.3921H42.5532V70.2733H42.4605Z" fill="#FF4A17"/>
<path d="M48.4866 68.1411H51.2678V76.4849H48.4866V68.1411Z" fill="#FF4A17"/>
<path d="M61.5585 68.1411L58.0356 76.4849H55.2544L51.7314 68.1411H54.7908L56.7377 73.0547L58.7773 68.1411H61.5585Z" fill="#FF4A17"/>
<path d="M68.7898 74.3526V76.4849H61.8367V68.1411H68.6044V70.2734H64.6179V71.2932H68.1408V73.2401H64.6179V74.3526H68.7898Z" fill="#FF4A17"/>
<path d="M74.074 68.1411H77.4115C78.2458 68.1411 79.0802 68.3265 79.7292 68.6974C80.3781 69.0682 80.9344 69.5317 81.3052 70.1807C81.6761 70.8297 81.8615 71.5713 81.8615 72.313C81.8615 73.1474 81.6761 73.7963 81.3052 74.4453C80.9344 75.0942 80.3781 75.5578 79.7292 75.9286C79.0802 76.2994 78.2458 76.4849 77.4115 76.4849H74.074V68.1411ZM77.3188 75.9286C78.0604 75.9286 78.8021 75.7432 79.3583 75.4651C79.9146 75.1869 80.3781 74.7234 80.749 74.1672C81.0271 73.6109 81.2125 72.9619 81.2125 72.313C81.2125 71.5713 81.0271 71.0151 80.749 70.4588C80.4708 69.9026 80.0073 69.439 79.3583 69.1609C78.7094 68.8828 78.1531 68.6047 77.3188 68.6047H74.6302V75.8359H77.3188V75.9286Z" fill="#FF4A17"/>
<path d="M89.649 75.9286V76.4849H83.9011V68.1411H89.4636V68.6047H84.4574V71.8494H89.0001V72.4057H84.5501V75.8359H89.649V75.9286Z" fill="#FF4A17"/>
<path d="M92.3377 76.2065C91.7815 76.0211 91.3179 75.743 91.0398 75.3722L91.3179 74.9086C91.596 75.1868 91.9669 75.4649 92.5231 75.6503C92.9867 75.8357 93.5429 75.9284 94.0992 75.9284C94.9335 75.9284 95.4898 75.743 95.8606 75.4649C96.2315 75.1868 96.5096 74.7232 96.5096 74.2597C96.5096 73.8888 96.4169 73.6107 96.2315 73.3326C96.0461 73.0545 95.7679 72.9618 95.3971 72.7763C95.119 72.6836 94.6554 72.4982 94.0992 72.4055C93.4502 72.2201 92.9867 72.1274 92.6158 71.942C92.245 71.7565 91.9669 71.5711 91.6888 71.293C91.4106 71.0149 91.3179 70.5513 91.3179 70.0878C91.3179 69.717 91.4106 69.3461 91.5961 68.9753C91.7815 68.6045 92.1523 68.3263 92.6158 68.1409C93.0794 67.9555 93.6356 67.8628 94.2846 67.8628C94.7481 67.8628 95.2117 67.9555 95.6752 68.0482C96.1388 68.1409 96.5096 68.3263 96.7877 68.6045L96.6023 69.068C96.2315 68.8826 95.8606 68.6972 95.4898 68.5118C95.119 68.419 94.6554 68.3263 94.2846 68.3263C93.5429 68.3263 92.894 68.5118 92.5231 68.7899C92.1523 69.068 91.9669 69.5315 91.9669 69.9951C91.9669 70.3659 92.0596 70.644 92.245 70.9222C92.4304 71.1076 92.7085 71.293 93.0794 71.4784C93.3575 71.5711 93.8211 71.7565 94.3773 71.8493C95.0263 72.0347 95.4898 72.1274 95.8606 72.3128C96.2315 72.4982 96.5096 72.6836 96.7877 72.9618C97.0658 73.2399 97.1586 73.6107 97.1586 74.167C97.1586 74.5378 97.0658 74.9086 96.7877 75.2795C96.6023 75.6503 96.2315 75.8357 95.7679 76.1138C95.3044 76.2993 94.7481 76.392 94.0992 76.392C93.4502 76.4847 92.894 76.392 92.3377 76.2065Z" fill="#FF4A17"/>
<path d="M99.198 68.1411H99.847V76.4849H99.198V68.1411Z" fill="#FF4A17"/>
<path d="M108.654 72.3126H109.21V75.4647C108.84 75.8355 108.376 76.1136 107.913 76.299C107.449 76.4844 106.8 76.5771 106.244 76.5771C105.409 76.5771 104.668 76.3917 104.019 76.0209C103.37 75.6501 102.814 75.1865 102.443 74.5376C102.072 73.8886 101.886 73.1469 101.886 72.4053C101.886 71.5709 102.072 70.9219 102.443 70.273C102.814 69.624 103.37 69.1605 104.019 68.7896C104.668 68.4188 105.409 68.2334 106.244 68.2334C106.893 68.2334 107.449 68.3261 107.913 68.5115C108.376 68.6969 108.84 68.9751 109.21 69.3459L108.84 69.7167C108.469 69.3459 108.098 69.1605 107.634 68.9751C107.171 68.7897 106.707 68.6969 106.244 68.6969C105.502 68.6969 104.853 68.8824 104.297 69.1605C103.741 69.4386 103.277 69.9021 102.906 70.4584C102.535 71.0146 102.443 71.6636 102.443 72.3126C102.443 72.9615 102.628 73.6105 102.906 74.1667C103.184 74.723 103.648 75.1865 104.297 75.4647C104.853 75.7428 105.502 75.9282 106.244 75.9282C107.171 75.9282 108.005 75.6501 108.654 75.1865V72.3126Z" fill="#FF4A17"/>
<path d="M118.667 68.1411V76.4849H118.203L112.548 69.2536V76.4849H111.899V68.1411H112.455L118.111 75.3724V68.1411H118.667Z" fill="#FF4A17"/>
<path d="M26.2366 82.9744H24.8459V82.6035H27.998V82.9744H26.6074V86.59H26.2366V82.9744Z" fill="#FF4A17"/>
<path d="M31.8918 85.5702H29.6668L29.2033 86.59H28.7397L30.5012 82.6035H30.872L32.6335 86.59H32.17L31.8918 85.5702ZM31.7064 85.1994L30.7793 83.0671L29.8522 85.1994H31.7064Z" fill="#FF4A17"/>
<path d="M37.0835 84.643H37.4543V86.1264C37.2689 86.3118 37.0835 86.4045 36.8054 86.4972C36.5272 86.5899 36.2491 86.5899 35.971 86.5899C35.6001 86.5899 35.2293 86.4972 34.9512 86.3118C34.6731 86.1264 34.3949 85.941 34.2095 85.5701C34.0241 85.292 33.9314 84.9212 33.9314 84.5503C33.9314 84.1795 34.0241 83.8087 34.2095 83.5305C34.3949 83.2524 34.6731 82.9743 34.9512 82.7889C35.2293 82.6035 35.6001 82.5107 36.0637 82.5107C36.3418 82.5107 36.6199 82.6034 36.8981 82.6962C37.1762 82.7889 37.3616 82.9743 37.547 83.1597L37.2689 83.4378C36.9908 83.1597 36.5272 82.9743 36.0637 82.9743C35.7856 82.9743 35.4147 83.067 35.2293 83.1597C34.9512 83.3451 34.7658 83.5305 34.5804 83.716C34.3949 83.9941 34.3949 84.2722 34.3949 84.5503C34.3949 84.8284 34.4876 85.1066 34.5804 85.3847C34.7658 85.6628 34.9512 85.8482 35.1366 85.9409C35.4147 86.1264 35.6929 86.1264 35.971 86.1264C36.3418 86.1264 36.7126 86.0337 36.9908 85.8482V84.643H37.0835Z" fill="#FF4A17"/>
<path d="M39.5867 82.6035H39.9575V86.2191H42.1825V86.59H39.5867V82.6035Z" fill="#FF4A17"/>
<path d="M43.7585 82.6035H44.1294V86.59H43.7585V82.6035Z" fill="#FF4A17"/>
<path d="M49.6917 82.6035V86.59H49.3209L46.8178 83.4379V86.59H46.3542V82.6035H46.7251L49.2282 85.7556V82.6035H49.6917Z" fill="#FF4A17"/>
<path d="M54.6052 86.2191V86.59H51.824V82.6035H54.5125V82.9744H52.1948V84.365H54.2344V84.7358H52.1948V86.2191H54.6052Z" fill="#FF4A17"/>
<path d="M61.6511 84.643H62.0219V86.1264C61.8365 86.3118 61.6511 86.4045 61.373 86.4972C61.0949 86.5899 60.8167 86.5899 60.5386 86.5899C60.1678 86.5899 59.7969 86.4972 59.5188 86.3118C59.2407 86.1264 58.9626 85.941 58.7772 85.5701C58.5917 85.292 58.499 84.9212 58.499 84.5503C58.499 84.1795 58.5917 83.8087 58.7772 83.5305C58.9626 83.2524 59.2407 82.9743 59.5188 82.7889C59.7969 82.6035 60.1678 82.5107 60.6313 82.5107C60.9094 82.5107 61.1876 82.6034 61.4657 82.6962C61.7438 82.7889 61.9292 82.9743 62.1147 83.1597L61.8365 83.4378C61.5584 83.1597 61.0949 82.9743 60.6313 82.9743C60.3532 82.9743 59.9824 83.067 59.7969 83.1597C59.5188 83.3451 59.3334 83.5305 59.148 83.716C58.9626 83.9941 58.9626 84.2722 58.9626 84.5503C58.9626 84.8284 59.0553 85.1066 59.148 85.3847C59.3334 85.6628 59.5188 85.8482 59.7042 85.9409C59.9824 86.1264 60.2605 86.1264 60.5386 86.1264C60.9094 86.1264 61.2803 86.0337 61.5584 85.8482V84.643H61.6511Z" fill="#FF4A17"/>
<path d="M64.8032 86.3118C64.5251 86.1264 64.247 85.941 64.0616 85.5701C63.8762 85.292 63.7834 84.9212 63.7834 84.5503C63.7834 84.1795 63.8762 83.8087 64.0616 83.5305C64.247 83.2524 64.5251 82.9743 64.8032 82.7889C65.0814 82.6035 65.4522 82.5107 65.823 82.5107C66.1939 82.5107 66.5647 82.6035 66.8428 82.7889C67.1209 82.9743 67.3991 83.1597 67.5845 83.5305C67.7699 83.9014 67.8626 84.1795 67.8626 84.5503C67.8626 84.9212 67.7699 85.292 67.5845 85.5701C67.3991 85.8482 67.1209 86.1264 66.8428 86.3118C66.5647 86.4972 66.1939 86.5899 65.823 86.5899C65.4522 86.5899 65.0814 86.4972 64.8032 86.3118ZM66.7501 86.0337C67.0282 85.8482 67.2137 85.6628 67.3064 85.4774C67.4918 85.1993 67.4918 84.9212 67.4918 84.643C67.4918 84.3649 67.3991 84.0868 67.3064 83.8087C67.1209 83.5305 66.9355 83.3451 66.7501 83.2524C66.472 83.067 66.1939 83.067 65.9157 83.067C65.6376 83.067 65.3595 83.1597 65.0814 83.2524C64.8032 83.4378 64.6178 83.6232 64.5251 83.8087C64.3397 84.0868 64.3397 84.3649 64.3397 84.643C64.3397 84.9212 64.4324 85.1993 64.5251 85.4774C64.7105 85.7555 64.8959 85.941 65.0814 86.0337C65.2668 86.2191 65.5449 86.2191 65.823 86.2191C66.1012 86.2191 66.472 86.2191 66.7501 86.0337Z" fill="#FF4A17"/>
<path d="M72.5908 86.2191V86.59H69.8096V82.6035H72.4981V82.9744H70.1804V84.365H72.22V84.7358H70.1804V86.2191H72.5908Z" fill="#FF4A17"/>
<path d="M74.7229 86.4974C74.4448 86.4047 74.2594 86.312 74.074 86.1266L74.2594 85.8484C74.4448 86.0338 74.6302 86.1266 74.8156 86.2193C75.0938 86.312 75.2792 86.312 75.5573 86.312C75.9281 86.312 76.2063 86.2193 76.3917 86.1266C76.5771 86.0339 76.6698 85.8484 76.6698 85.663C76.6698 85.4776 76.5771 85.3849 76.4844 85.2922C76.3917 85.1995 76.299 85.1068 76.1136 85.1068C75.9281 85.0141 75.7427 85.0141 75.5573 84.9213C75.2792 84.8286 75.0011 84.7359 74.8156 84.7359C74.6302 84.6432 74.4448 84.5505 74.3521 84.4578C74.2594 84.2724 74.1667 84.087 74.1667 83.9016C74.1667 83.7161 74.2594 83.5307 74.3521 83.3453C74.4448 83.1599 74.6302 83.0672 74.8156 82.9745C75.0011 82.8818 75.2792 82.7891 75.65 82.7891C75.8354 82.7891 76.1136 82.7891 76.299 82.8818C76.4844 82.9745 76.6698 83.0672 76.8552 83.1599L76.6698 83.5307C76.4844 83.438 76.299 83.3453 76.1136 83.2526C75.9281 83.1599 75.7427 83.1599 75.5573 83.1599C75.1865 83.1599 74.9083 83.2526 74.8156 83.3453C74.6302 83.438 74.5375 83.6234 74.5375 83.9016C74.5375 84.087 74.6302 84.1797 74.7229 84.2724C74.8156 84.3651 74.9083 84.4578 75.0938 84.4578C75.2792 84.5505 75.4646 84.5505 75.65 84.6432C75.9281 84.7359 76.2063 84.8286 76.3917 84.8286C76.5771 84.9214 76.7625 85.0141 76.8552 85.1068C76.9479 85.1068 76.9479 85.2922 76.9479 85.5703C76.9479 85.7557 76.8552 85.9411 76.7625 86.1266C76.6698 86.312 76.4844 86.4047 76.299 86.4974C76.1136 86.5901 75.8354 86.6828 75.4646 86.6828C75.1865 86.5901 74.9083 86.5901 74.7229 86.4974Z" fill="#FF4A17"/>
<path d="M84.4574 82.6035V86.59H84.0866V84.7358H81.5835V86.59H81.2126V82.6035H81.5835V84.365H84.0866V82.6035H84.4574Z" fill="#FF4A17"/>
<path d="M89.4636 86.2191V86.59H86.6824V82.6035H89.3709V82.9744H87.0532V84.365H89.0928V84.7358H87.0532V86.2191H89.4636Z" fill="#FF4A17"/>
<path d="M94.0065 86.5899L93.0794 85.292C92.9867 85.292 92.894 85.292 92.8013 85.292H91.7815V86.4972H91.4106V82.5107H92.894C93.3575 82.5107 93.8211 82.6035 94.0992 82.8816C94.3773 83.1597 94.5627 83.4378 94.5627 83.9014C94.5627 84.1795 94.47 84.4576 94.2846 84.643C94.0992 84.8285 93.9138 85.0139 93.6356 85.1066L94.5627 86.4972H94.0065V86.5899ZM93.6356 84.7357C93.8211 84.5503 93.9138 84.3649 93.9138 83.9941C93.9138 83.7159 93.8211 83.4378 93.6356 83.2524C93.4502 83.067 93.1721 82.9743 92.7086 82.9743H91.7815V84.9212H92.8013C93.1721 85.0139 93.4502 84.9212 93.6356 84.7357Z" fill="#FF4A17"/>
<path d="M99.1052 86.2191V86.59H96.324V82.6035H99.0125V82.9744H96.6948V84.365H98.7344V84.7358H96.6948V86.2191H99.1052Z" fill="#FF4A17"/>
</svg>
