<svg width="126" height="89" viewBox="0 0 126 89" fill="none" xmlns="http://www.w3.org/2000/svg">
<path d="M83.9009 2.50293L67.2134 19.1904V2.50293H55.9957L39.3082 19.1904V2.50293H30.0374V58.3133H39.3082V32.2623L57.9426 13.7206V48.9498L53.3071 53.5852V25.68L43.9436 35.0436V58.3133H67.2134V32.2623L85.8478 13.7206V48.9498L81.2124 53.5852V25.68L71.8488 35.0436V58.3133H95.1186V2.50293H83.9009Z" fill="#FF4A17"/>
<path d="M7.41659 76.0206C6.67492 75.6498 6.11867 75.0936 5.74784 74.4446C5.377 73.7956 5.09888 73.054 5.09888 72.2196C5.09888 71.3852 5.28429 70.6436 5.74784 69.9946C6.21138 69.3456 6.67492 68.7894 7.41659 68.4186C8.15825 68.0477 8.89992 67.8623 9.827 67.8623C10.6614 67.8623 11.403 68.0477 12.052 68.3258C12.701 68.604 13.2572 69.0675 13.628 69.5311L11.8666 71.1071C11.3103 70.4581 10.7541 70.0873 10.0124 70.0873C9.45617 70.0873 8.99263 70.2727 8.62179 70.6436C8.25096 71.0144 8.06554 71.5706 8.06554 72.1269C8.06554 72.7759 8.25096 73.2394 8.62179 73.6102C8.99263 73.9811 9.45617 74.1665 10.0124 74.1665C10.7541 74.1665 11.3103 73.7956 11.8666 73.1467L13.628 74.7227C13.2572 75.279 12.701 75.6498 12.052 75.9279C11.403 76.2061 10.6614 76.3915 9.827 76.3915C8.89992 76.5769 8.06554 76.3915 7.41659 76.0206Z" fill="#FF4A17"/>
<path d="M17.9853 74.2593H17.2437V76.3916H14.4624V68.0479H18.5416C19.2832 68.0479 20.0249 68.1406 20.5812 68.4187C21.1374 68.6968 21.6009 69.0676 21.8791 69.5312C22.1572 69.9947 22.3426 70.551 22.3426 71.1999C22.3426 71.7562 22.2499 72.3124 21.9718 72.776C21.6937 73.2395 21.3228 73.6103 20.7666 73.7958L22.528 76.3916H19.4687L17.9853 74.2593ZM19.0978 70.3656C18.9124 70.1801 18.6343 70.0874 18.2634 70.0874H17.2437V72.0343H18.2634C18.6343 72.0343 18.9124 71.9416 19.0978 71.7562C19.2832 71.5708 19.3759 71.3853 19.3759 71.0145C19.3759 70.6437 19.2832 70.551 19.0978 70.3656Z" fill="#FF4A17"/>
<path d="M30.2229 74.1665V76.2988H23.2698V67.9551H30.0375V70.0874H25.9583V71.1072H29.4812V73.1467H25.9583V74.1665H30.2229Z" fill="#FF4A17"/>
<path d="M37.0833 74.9083H33.9312L33.3749 76.3916H30.501L34.2093 68.0479H36.9906L40.6989 76.3916H37.7322L37.0833 74.9083ZM36.2489 72.8687L35.4145 70.7364L34.5801 72.8687H36.2489Z" fill="#FF4A17"/>
<path d="M42.3677 70.1801H39.9573V67.9551H47.6521V70.1801H45.2417V76.3915H42.4604V70.1801H42.3677Z" fill="#FF4A17"/>
<path d="M48.3936 67.9551H51.1748V76.2988H48.3936V67.9551Z" fill="#FF4A17"/>
<path d="M61.5583 67.9551L58.0354 76.2988H55.2541L51.7312 67.9551H54.6979L56.7375 72.8686L58.777 67.9551H61.5583Z" fill="#FF4A17"/>
<path d="M68.7896 74.1665V76.2988H61.8364V67.9551H68.6041V70.0874H64.525V71.1072H68.0479V73.1467H64.525V74.1665H68.7896Z" fill="#FF4A17"/>
<path d="M74.1665 67.9551H77.504C78.3384 67.9551 79.1728 68.1405 79.8217 68.5113C80.4707 68.8822 81.0269 69.3457 81.3978 69.9947C81.7686 70.6436 81.954 71.3853 81.954 72.127C81.954 72.9613 81.7686 73.6103 81.3978 74.2592C81.0269 74.9082 80.4707 75.3717 79.8217 75.7426C79.1728 76.1134 78.3384 76.2988 77.504 76.2988H74.1665V67.9551ZM77.4113 75.8353C78.153 75.8353 78.8946 75.6499 79.4509 75.3717C80.0071 75.0936 80.4707 74.6301 80.8415 74.0738C81.1196 73.5176 81.305 72.8686 81.305 72.2197C81.305 71.478 81.1196 70.9217 80.8415 70.3655C80.5634 69.8092 80.0998 69.3457 79.4509 69.0676C78.8946 68.7895 78.153 68.604 77.4113 68.604H74.7228V75.928H77.4113V75.8353Z" fill="#FF4A17"/>
<path d="M89.8343 75.8354V76.3916H84.0864V68.0479H89.6489V68.6041H84.6427V71.9416H89.0927V72.3124H84.6427V75.7426H89.8343V75.8354Z" fill="#FF4A17"/>
<path d="M92.4302 76.1133C91.874 75.9279 91.4104 75.6497 91.1323 75.2789L91.4104 74.8154C91.6886 75.0935 92.0594 75.3716 92.6157 75.557C93.1719 75.7424 93.6354 75.8352 94.1917 75.8352C95.0261 75.8352 95.5823 75.6497 95.9532 75.3716C96.324 75.0935 96.6021 74.6299 96.6021 74.1664C96.6021 73.7956 96.5094 73.5174 96.324 73.2393C96.1386 72.9612 95.8604 72.8685 95.4896 72.6831C95.2115 72.5904 94.7479 72.4049 94.1917 72.3122C93.5427 72.1268 93.0792 72.0341 92.7084 71.8487C92.3375 71.6633 92.0594 71.4779 91.7813 71.1997C91.5032 70.9216 91.4104 70.4581 91.4104 69.9945C91.4104 69.6237 91.5032 69.2529 91.6886 68.882C91.874 68.5112 92.2448 68.2331 92.7084 68.0477C93.1719 67.8622 93.7282 67.7695 94.3771 67.7695C94.8407 67.7695 95.3042 67.8622 95.7677 67.955C96.2313 68.0477 96.6021 68.2331 96.9729 68.5112L96.7875 68.9747C96.4167 68.7893 96.0459 68.6039 95.675 68.4185C95.3042 68.3258 94.8407 68.2331 94.4698 68.2331C93.7282 68.2331 93.0792 68.4185 92.7084 68.6966C92.3375 68.9747 92.1521 69.4383 92.1521 69.9018C92.1521 70.2727 92.2448 70.5508 92.4302 70.8289C92.6157 71.107 92.8938 71.1997 93.2646 71.3852C93.5427 71.4779 94.0063 71.6633 94.5625 71.756C95.2115 71.9414 95.675 72.0341 96.0459 72.2195C96.4167 72.405 96.6948 72.5904 96.9729 72.8685C97.2511 73.1466 97.3438 73.5175 97.3438 74.0737C97.3438 74.4445 97.2511 74.8154 96.9729 75.1862C96.7875 75.557 96.4167 75.7424 95.9532 76.0206C95.4896 76.206 94.9334 76.2987 94.2844 76.2987C93.6354 76.3914 92.9865 76.2987 92.4302 76.1133Z" fill="#FF4A17"/>
<path d="M99.2905 67.9551H99.9395V76.2988H99.2905V67.9551Z" fill="#FF4A17"/>
<path d="M108.839 72.2197H109.396V75.3718C109.025 75.7426 108.561 76.0208 108.098 76.2062C107.542 76.3916 106.985 76.4843 106.429 76.4843C105.595 76.4843 104.853 76.2989 104.204 75.9281C103.555 75.5572 102.999 75.0937 102.628 74.4447C102.257 73.7958 102.072 73.0541 102.072 72.2197C102.072 71.3854 102.257 70.6437 102.628 70.0874C102.999 69.4385 103.555 68.9749 104.204 68.6041C104.853 68.2333 105.595 68.0479 106.429 68.0479C107.078 68.0479 107.634 68.1406 108.098 68.326C108.654 68.5114 109.025 68.7895 109.396 69.1603L109.025 69.5312C108.654 69.1604 108.283 68.8822 107.82 68.7895C107.356 68.6041 106.893 68.5114 106.336 68.5114C105.595 68.5114 104.946 68.6968 104.389 68.9749C103.833 69.2531 103.37 69.7166 102.999 70.2729C102.628 70.8291 102.535 71.4781 102.535 72.127C102.535 72.776 102.721 73.4249 102.999 73.9812C103.37 74.5374 103.741 75.001 104.389 75.2791C105.038 75.5572 105.595 75.7426 106.336 75.7426C107.263 75.7426 108.098 75.4645 108.747 75.001V72.2197H108.839Z" fill="#FF4A17"/>
<path d="M118.945 67.9551V76.2988H118.481L112.733 68.9749V76.2988H112.084V67.9551H112.64L118.296 75.279V67.9551H118.945Z" fill="#FF4A17"/>
<path d="M26.1436 82.9739H24.7529V82.603H27.9977V82.9739H26.6071V86.5895H26.1436V82.9739Z" fill="#FF4A17"/>
<path d="M31.7988 85.4769H29.5738L29.1103 86.4967H28.6467L30.5009 82.5103H30.8717L32.7259 86.4967H32.2624L31.7988 85.4769ZM31.6134 85.1061L30.6863 82.9738L29.7592 85.1061H31.6134Z" fill="#FF4A17"/>
<path d="M36.9904 84.5498H37.3612V86.0331C37.1758 86.2185 36.9904 86.3112 36.7123 86.4039C36.4341 86.4966 36.156 86.4966 35.8779 86.4966C35.5071 86.4966 35.1362 86.4039 34.7654 86.2185C34.4873 86.0331 34.2091 85.8477 34.0237 85.4769C33.8383 85.1987 33.7456 84.8279 33.7456 84.4571C33.7456 84.0862 33.8383 83.7154 34.0237 83.4373C34.2091 83.1591 34.4873 82.881 34.7654 82.6956C35.0435 82.5102 35.4144 82.4175 35.8779 82.4175C36.156 82.4175 36.4341 82.5102 36.7123 82.6029C36.9904 82.6956 37.1758 82.881 37.3612 83.0664L37.0831 83.3446C36.805 83.0664 36.3414 82.881 35.8779 82.881C35.5998 82.881 35.2289 82.9737 35.0435 83.0664C34.7654 83.2519 34.58 83.4373 34.3946 83.6227C34.2091 83.9008 34.2091 84.1789 34.2091 84.4571C34.2091 84.7352 34.3019 85.0133 34.3946 85.2914C34.58 85.5696 34.7654 85.755 35.0435 85.8477C35.3216 85.9404 35.5998 86.0331 35.8779 86.0331C36.2487 86.0331 36.6196 85.9404 36.8977 85.755V84.5498H36.9904Z" fill="#FF4A17"/>
<path d="M39.4937 82.603H39.8645V86.2187H42.0895V86.5895H39.4937V82.603Z" fill="#FF4A17"/>
<path d="M43.6655 82.603H44.1291V86.5895H43.6655V82.603Z" fill="#FF4A17"/>
<path d="M49.5987 82.603V86.5895H49.2279L46.7248 83.3447V86.5895H46.2612V82.603H46.6321L49.2279 85.8478V82.603H49.5987Z" fill="#FF4A17"/>
<path d="M54.605 86.1259V86.4967H51.8237V82.5103H54.5123V82.8811H52.1946V84.3644H54.2341V84.7353H52.1946V86.2186H54.605V86.1259Z" fill="#FF4A17"/>
<path d="M61.6508 84.5498H62.0216V86.0331C61.8362 86.2185 61.6508 86.3112 61.3727 86.4039C61.0945 86.4966 60.8164 86.4966 60.5383 86.4966C60.1675 86.4966 59.7966 86.4039 59.4258 86.2185C59.1477 86.0331 58.8695 85.8477 58.6841 85.4769C58.4987 85.1987 58.406 84.8279 58.406 84.4571C58.406 84.0862 58.4987 83.7154 58.6841 83.4373C58.8695 83.1591 59.1477 82.881 59.4258 82.6956C59.7039 82.5102 60.0748 82.4175 60.5383 82.4175C60.8164 82.4175 61.0945 82.5102 61.3727 82.6029C61.6508 82.6956 61.8362 82.881 62.0216 83.0664L61.7435 83.3446C61.4654 83.0664 61.0018 82.881 60.5383 82.881C60.2602 82.881 59.8893 82.9737 59.7039 83.0664C59.4258 83.2519 59.2404 83.4373 59.055 83.6227C58.8695 83.9008 58.8695 84.1789 58.8695 84.4571C58.8695 84.7352 58.9623 85.0133 59.055 85.2914C59.2404 85.5696 59.4258 85.755 59.7039 85.8477C59.982 85.9404 60.2602 86.0331 60.5383 86.0331C60.9091 86.0331 61.28 85.9404 61.5581 85.755V84.5498H61.6508Z" fill="#FF4A17"/>
<path d="M64.803 86.3113C64.5249 86.1259 64.2467 85.9405 64.0613 85.5696C63.8759 85.1988 63.7832 84.9207 63.7832 84.5498C63.7832 84.179 63.8759 83.8082 64.0613 83.53C64.2467 83.2519 64.5249 82.9738 64.803 82.7884C65.0811 82.603 65.452 82.5103 65.8228 82.5103C66.1936 82.5103 66.5644 82.603 66.8426 82.7884C67.1207 82.9738 67.3988 83.1592 67.5842 83.53C67.7697 83.9009 67.8624 84.179 67.8624 84.5498C67.8624 84.9207 67.7697 85.2915 67.5842 85.5696C67.3988 85.8478 67.1207 86.1259 66.8426 86.3113C66.5644 86.4967 66.1936 86.5894 65.8228 86.5894C65.452 86.5894 65.1738 86.4967 64.803 86.3113ZM66.7499 85.9405C67.028 85.755 67.2134 85.5696 67.3061 85.3842C67.4915 85.1061 67.4915 84.828 67.4915 84.5498C67.4915 84.2717 67.3988 83.9936 67.3061 83.7155C67.1207 83.4373 66.9353 83.2519 66.7499 83.1592C66.4717 82.9738 66.1936 82.9738 65.9155 82.9738C65.6374 82.9738 65.3592 83.0665 65.0811 83.1592C64.803 83.3446 64.6176 83.53 64.5249 83.7155C64.3394 83.9936 64.3395 84.2717 64.3395 84.5498C64.3395 84.828 64.4322 85.1061 64.5249 85.3842C64.7103 85.6623 64.8957 85.8478 65.0811 85.9405C65.3592 86.1259 65.6374 86.1259 65.9155 86.1259C66.1936 86.2186 66.4717 86.1259 66.7499 85.9405Z" fill="#FF4A17"/>
<path d="M72.5903 86.1259V86.4967H69.8091V82.5103H72.4976V82.8811H70.1799V84.3644H72.2195V84.7353H70.1799V86.2186H72.5903V86.1259Z" fill="#FF4A17"/>
<path d="M74.7227 86.4041C74.4446 86.3114 74.2591 86.2187 74.0737 86.0333L74.2591 85.7552C74.4446 85.9406 74.63 86.0333 74.8154 86.126C75.0935 86.2187 75.2789 86.2187 75.5571 86.2187C75.9279 86.2187 76.206 86.126 76.3914 86.0333C76.5769 85.9406 76.6696 85.7552 76.6696 85.5698C76.6696 85.3843 76.5769 85.2916 76.4841 85.1989C76.3914 85.1062 76.2987 85.0135 76.1133 85.0135C75.9279 85.0135 75.7425 84.9208 75.5571 84.8281C75.2789 84.7354 75.0008 84.6427 74.8154 84.6427C74.63 84.55 74.4446 84.4573 74.3519 84.3646C74.2591 84.1791 74.1664 83.9937 74.1664 83.8083C74.1664 83.6229 74.2591 83.4375 74.3519 83.2521C74.4446 83.0666 74.63 82.9739 74.8154 82.8812C75.0008 82.7885 75.2789 82.6958 75.6498 82.6958C75.8352 82.6958 76.1133 82.6958 76.2987 82.7885C76.4841 82.8812 76.6696 82.9739 76.855 83.0666L76.6696 83.4375C76.4841 83.3448 76.2987 83.2521 76.1133 83.1593C75.9279 83.0666 75.7425 83.0666 75.5571 83.0666C75.1862 83.0666 74.9081 83.1593 74.8154 83.2521C74.63 83.3448 74.5373 83.5302 74.5373 83.8083C74.5373 83.9937 74.63 84.0864 74.7227 84.1791C74.8154 84.2718 74.9081 84.3646 75.0935 84.3646C75.2789 84.3646 75.4644 84.4573 75.6498 84.55C75.9279 84.6427 76.206 84.7354 76.3914 84.7354C76.5769 84.8281 76.7623 84.9208 76.855 85.0135C76.9477 85.1989 77.0404 85.3843 77.0404 85.5698C77.0404 85.7552 76.9477 85.9406 76.855 86.126C76.7623 86.3114 76.5769 86.4041 76.3914 86.4968C76.206 86.5896 75.9279 86.6823 75.5571 86.6823C75.2789 86.5896 75.0008 86.4968 74.7227 86.4041Z" fill="#FF4A17"/>
<path d="M84.5499 82.603V86.5895H84.1791V84.7353H81.6759V86.5895H81.2124V82.603H81.6759V84.3645H84.1791V82.603H84.5499Z" fill="#FF4A17"/>
<path d="M89.5562 86.1259V86.4967H86.7749V82.5103H89.4634V82.8811H87.1457V84.3644H89.1853V84.7353H87.1457V86.2186H89.5562V86.1259Z" fill="#FF4A17"/>
<path d="M94.0987 86.4967L93.1716 85.1988C93.0789 85.1988 92.9862 85.1988 92.8935 85.1988H91.8737V86.4967H91.4102V82.5103H92.8935C93.357 82.5103 93.8206 82.603 94.0987 82.8811C94.3768 83.1592 94.5622 83.4373 94.5622 83.9009C94.5622 84.179 94.4695 84.4571 94.2841 84.6425C94.0987 84.828 93.9133 85.0134 93.6352 85.1061L94.5622 86.4967H94.0987ZM93.8206 84.6425C94.006 84.4571 94.0987 84.2717 94.0987 83.9009C94.0987 83.6228 94.006 83.3446 93.8206 83.1592C93.6352 82.9738 93.357 82.8811 92.8935 82.8811H91.8737V84.828H92.8935C93.2643 84.9207 93.6352 84.828 93.8206 84.6425Z" fill="#FF4A17"/>
<path d="M99.1978 86.1259V86.4967H96.4165V82.5103H99.105V82.8811H96.7873V84.3644H98.8269V84.7353H96.7873V86.2186H99.1978V86.1259Z" fill="#FF4A17"/>
</svg>
