<svg width="2014" height="324" viewBox="0 0 2014 324" fill="none" xmlns="http://www.w3.org/2000/svg">
<path d="M0.160156 207.457V19.957C0.160156 17.3529 1.78776 15.7253 5.04297 15.0742C8.29818 14.4232 10.7396 14.0977 12.3672 14.0977H74.3789C83.168 14.0977 92.4453 14.4232 102.211 15.0742C112.302 15.3997 122.23 16.5391 131.996 18.4922C141.762 20.1198 151.039 22.8867 159.828 26.793C168.617 30.3737 176.43 35.4193 183.266 41.9297C194.333 52.6719 201.983 63.2513 206.215 73.668C210.447 84.0846 212.562 96.9427 212.562 112.242C212.562 129.82 207.029 145.608 195.961 159.605C187.172 170.348 177.895 178.486 168.129 184.02C158.689 189.553 148.598 193.46 137.855 195.738C127.113 198.017 115.883 199.319 104.164 199.645C92.4453 199.645 80.2383 199.645 67.543 199.645H57.2891C57.2891 213.967 57.1263 228.128 56.8008 242.125C56.4753 255.797 56.3125 269.794 56.3125 284.117C56.3125 286.07 55.987 287.698 55.3359 289C55.0104 290.302 53.5456 290.953 50.9414 290.953H7.48438C4.55469 290.953 2.60156 289.977 1.625 288.023C0.648438 286.07 0.160156 283.792 0.160156 281.188V221.617C0.160156 219.664 0.811198 218.036 2.11328 216.734C3.74089 215.432 5.20573 214.293 6.50781 213.316C5.85677 212.665 4.55469 211.852 2.60156 210.875C0.973958 209.573 0.160156 208.434 0.160156 207.457ZM57.7773 179.137C59.4049 179.137 61.0326 179.299 62.6602 179.625C64.6133 179.625 66.5664 179.625 68.5195 179.625C77.6341 179.625 87.7253 178.811 98.793 177.184C109.861 175.23 120.277 172.138 130.043 167.906C139.809 163.349 147.947 157.327 154.457 149.84C161.293 142.353 164.711 132.75 164.711 121.031V118.59L174.965 118.102L165.688 113.219V112.242L166.176 111.266C166.176 83.5964 160.154 63.7396 148.109 51.6953C136.065 39.651 116.208 33.6289 88.5391 33.6289C87.237 33.6289 85.1211 33.6289 82.1914 33.6289C79.5872 33.6289 76.8203 33.7917 73.8906 34.1172C70.9609 34.1172 68.194 34.4427 65.5898 35.0938C63.3112 35.4193 61.6836 36.0703 60.707 37.0469C60.3815 37.3724 60.056 40.3021 59.7305 45.8359C59.4049 51.3698 59.0794 58.2057 58.7539 66.3438C58.7539 74.1562 58.5911 82.9453 58.2656 92.7109C58.2656 102.151 58.1029 111.266 57.7773 120.055C57.7773 128.518 57.7773 136.005 57.7773 142.516C57.7773 149.026 57.7773 153.421 57.7773 155.699V179.137ZM233.559 18.4922C234.21 15.5625 235.512 13.7721 237.465 13.1211C239.418 12.4701 241.697 11.9818 244.301 11.6562C251.462 11.0052 258.461 10.5169 265.297 10.1914C272.133 9.86589 279.132 9.70312 286.293 9.70312C289.223 9.70312 293.617 9.86589 299.477 10.1914C305.661 10.1914 312.497 10.5169 319.984 11.168C327.797 11.819 335.772 12.6328 343.91 13.6094C352.048 14.5859 359.372 16.0508 365.883 18.0039C372.719 19.957 378.253 22.2357 382.484 24.8398C386.716 27.444 388.832 30.5365 388.832 34.1172V35.582L395.18 31.1875C408.201 38.349 419.268 47.6263 428.383 59.0195C437.823 70.4128 442.543 83.9219 442.543 99.5469C442.543 120.055 436.684 137.796 424.965 152.77C413.246 167.743 398.109 178.811 379.555 185.973C381.833 190.204 386.228 197.366 392.738 207.457C399.574 217.548 406.898 228.128 414.711 239.195C422.523 249.938 430.01 259.866 437.172 268.98C444.333 278.095 449.542 283.629 452.797 285.582C456.052 287.535 459.47 289.163 463.051 290.465C466.632 291.767 470.212 292.418 473.793 292.418C478.35 292.418 481.443 291.116 483.07 288.512C485.023 285.582 486.488 282.327 487.465 278.746H488.93C491.534 278.746 492.999 279.885 493.324 282.164C493.975 284.117 494.301 285.908 494.301 287.535C494.301 293.395 492.673 298.44 489.418 302.672C486.163 307.229 482.094 310.973 477.211 313.902C472.328 317.158 466.957 319.436 461.098 320.738C455.564 322.366 450.355 323.18 445.473 323.18C434.079 323.18 423.012 319.436 412.27 311.949C401.527 304.788 391.436 295.999 381.996 285.582C372.556 274.84 363.93 263.609 356.117 251.891C348.63 240.172 342.283 229.918 337.074 221.129C334.796 217.223 332.517 213.316 330.238 209.41C327.96 205.178 325.193 201.435 321.938 198.18C319.659 196.878 316.892 196.227 313.637 196.227H297.035C294.431 197.854 293.129 200.621 293.129 204.527V281.188C293.129 284.117 292.152 286.233 290.199 287.535C288.572 288.837 286.293 289.651 283.363 289.977C280.759 290.628 277.992 290.79 275.062 290.465C272.133 290.465 269.691 290.465 267.738 290.465H236.488C233.559 290.465 232.094 288.674 232.094 285.094V242.125C232.094 241.148 232.419 239.846 233.07 238.219C234.047 236.591 234.861 235.452 235.512 234.801L232.094 227.965C232.094 199.319 232.094 171.161 232.094 143.492C232.419 115.497 232.582 87.1771 232.582 58.5312C232.582 52.0208 232.257 45.3477 231.605 38.5117C231.28 31.3503 231.931 24.6771 233.559 18.4922ZM283.852 71.2266C289.385 72.8542 292.152 76.4349 292.152 81.9688C292.152 84.8984 291.99 90.7578 291.664 99.5469C291.664 108.336 291.501 117.613 291.176 127.379C291.176 136.819 291.176 145.445 291.176 153.258C291.501 161.07 291.99 165.302 292.641 165.953C295.245 168.883 298.174 170.348 301.43 170.348C306.312 170.348 311.033 170.348 315.59 170.348C320.473 170.022 325.355 169.697 330.238 169.371C338.376 169.046 346.189 167.255 353.676 164C361.163 160.745 367.673 156.513 373.207 151.305C378.741 145.771 383.135 139.423 386.391 132.262C389.971 124.775 391.762 116.799 391.762 108.336C391.762 95.6406 389.158 84.8984 383.949 76.1094C379.066 66.9948 372.393 59.6706 363.93 54.1367C355.792 48.6029 346.352 44.5339 335.609 41.9297C325.193 39.3255 314.451 38.0234 303.383 38.0234C301.755 38.0234 299.965 38.1862 298.012 38.5117C296.384 38.5117 294.757 39 293.129 39.9766C292.478 41.6042 292.152 44.8594 292.152 49.7422C292.152 54.2995 292.152 57.7174 292.152 59.9961V62.4375C291.176 64.0651 290.036 65.8555 288.734 67.8086C287.758 69.4362 286.13 70.5755 283.852 71.2266ZM659.34 15.0742C664.874 15.0742 671.547 15.7253 679.359 17.0273C687.172 18.0039 694.984 19.7943 702.797 22.3984C710.609 24.6771 717.771 27.6068 724.281 31.1875C730.792 34.7682 735.349 39.1628 737.953 44.3711C739.906 43.3945 742.022 42.9062 744.301 42.9062C747.23 42.9062 749.997 44.2083 752.602 46.8125C755.206 49.0911 757.322 51.207 758.949 53.1602C770.342 65.5299 779.132 80.3411 785.316 97.5938C791.501 114.846 794.594 131.773 794.594 148.375C794.594 156.839 793.617 166.441 791.664 177.184C789.711 187.926 786.944 198.668 783.363 209.41C779.783 220.152 775.388 230.406 770.18 240.172C765.297 249.612 759.6 257.262 753.09 263.121C751.462 262.145 749.672 261.331 747.719 260.68C745.766 259.703 743.975 259.215 742.348 259.215H738.441C741.046 261.819 742.348 264.26 742.348 266.539C742.348 267.841 741.534 269.469 739.906 271.422C738.604 273.375 737.628 274.84 736.977 275.816C723.63 284.605 708.656 290.465 692.055 293.395C675.779 296.65 659.828 298.277 644.203 298.277C624.346 298.277 605.954 294.859 589.027 288.023C572.426 280.862 557.94 271.096 545.57 258.727C533.526 246.031 523.923 231.22 516.762 214.293C509.926 197.366 506.508 179.137 506.508 159.605C506.508 138.447 510.577 119.078 518.715 101.5C527.178 83.9219 538.409 68.7852 552.406 56.0898C566.404 43.069 582.517 32.9779 600.746 25.8164C619.301 18.6549 638.832 15.0742 659.34 15.0742ZM637.855 251.891C651.853 251.891 664.548 249.124 675.941 243.59C687.335 238.056 697.1 230.732 705.238 221.617C713.702 212.177 720.212 201.435 724.77 189.391C729.327 177.021 731.605 164.163 731.605 150.816C731.605 143.98 730.954 137.307 729.652 130.797C728.676 123.961 727.374 117.288 725.746 110.777C723.467 115.66 720.863 120.868 717.934 126.402C715.004 131.611 711.586 136.331 707.68 140.562C703.773 144.794 699.216 148.375 694.008 151.305C689.125 153.909 683.591 155.211 677.406 155.211C670.57 155.211 663.734 153.421 656.898 149.84C650.388 145.934 646.645 140.237 645.668 132.75C647.296 131.773 648.923 131.285 650.551 131.285C653.48 131.285 656.898 132.424 660.805 134.703C665.036 136.656 669.431 137.633 673.988 137.633C677.243 137.633 680.661 137.307 684.242 136.656C687.823 135.68 691.078 134.378 694.008 132.75C696.938 130.797 699.379 128.518 701.332 125.914C703.285 122.984 704.262 119.566 704.262 115.66C704.262 110.452 703.448 105.081 701.82 99.5469C700.193 93.6875 697.914 88.1536 694.984 82.9453C692.055 77.4115 688.474 72.5286 684.242 68.2969C680.336 63.7396 675.941 60.3216 671.059 58.043C666.827 55.7643 662.27 54.2995 657.387 53.6484C652.829 52.9974 648.109 52.6719 643.227 52.6719C635.414 52.6719 627.927 54.1367 620.766 57.0664C613.604 59.6706 606.117 60.9727 598.305 60.9727C597.003 63.5768 595.375 65.6927 593.422 67.3203C591.469 68.6224 589.353 70.0872 587.074 71.7148C572.426 82.457 561.358 94.8268 553.871 108.824C546.384 122.822 542.641 138.935 542.641 157.164C542.641 171.161 544.919 184.02 549.477 195.738C554.359 207.132 561.033 217.06 569.496 225.523C577.96 233.661 587.888 240.172 599.281 245.055C611 249.612 623.858 251.891 637.855 251.891Z" fill="#FF4A17"/>
<path d="M826.332 192.809C824.053 192.158 822.914 191.018 822.914 189.391C822.914 170.836 822.914 152.607 822.914 134.703C822.914 116.799 822.751 98.5703 822.426 80.0156C822.426 72.5286 822.589 64.0651 822.914 54.625C823.565 45.1849 823.24 36.7214 821.938 29.2344L822.914 22.3984C824.216 21.0964 825.681 20.4453 827.309 20.4453H992.348C993.65 20.4453 995.44 20.4453 997.719 20.4453C999.997 20.1198 1002.28 20.1198 1004.55 20.4453C1006.83 20.7708 1008.79 21.4219 1010.41 22.3984C1012.04 23.0495 1012.86 24.3516 1012.86 26.3047V39C1005.37 39.3255 998.044 39.4883 990.883 39.4883C983.721 39.4883 976.56 39.4883 969.398 39.4883C954.75 39.4883 940.264 39.4883 925.941 39.4883C911.618 39.4883 897.133 39.651 882.484 39.9766C880.531 42.5807 879.555 44.8594 879.555 46.8125C879.555 49.0911 879.717 51.3698 880.043 53.6484C880.368 55.9271 880.531 58.2057 880.531 60.4844C880.531 62.763 880.043 65.0417 879.066 67.3203C878.415 69.2734 876.951 71.0638 874.672 72.6914C877.276 76.2721 878.904 81.1549 879.555 87.3398C880.206 93.5247 880.531 98.8958 880.531 103.453C880.531 106.383 880.368 109.475 880.043 112.73C880.043 115.66 880.043 118.59 880.043 121.52C881.671 121.845 883.135 122.171 884.438 122.496C885.74 122.822 887.204 122.984 888.832 122.984C902.504 122.984 916.176 122.822 929.848 122.496C943.845 121.845 957.68 122.171 971.352 123.473C971.677 124.775 971.84 126.565 971.84 128.844C971.84 130.797 971.84 132.75 971.84 134.703C971.84 136.331 971.514 138.121 970.863 140.074H948.402C937.009 140.074 925.616 140.074 914.223 140.074C902.829 140.074 891.436 140.4 880.043 141.051V275.328C880.043 278.909 879.717 282.49 879.066 286.07C878.415 289.326 875.811 290.953 871.254 290.953H870.277C864.743 291.93 858.884 292.255 852.699 291.93C846.514 291.93 840.818 291.93 835.609 291.93C829.75 291.93 826.007 291.279 824.379 289.977C822.751 288.674 821.938 284.931 821.938 278.746V239.195C821.938 236.266 821.775 232.685 821.449 228.453C821.449 224.221 821.449 219.827 821.449 215.27C821.775 210.712 822.263 206.48 822.914 202.574C823.565 198.342 824.704 195.087 826.332 192.809ZM1047.04 23.8633C1047.04 20.2826 1048.83 17.8411 1052.41 16.5391C1056.31 14.9115 1060.71 13.9349 1065.59 13.6094C1070.8 12.9583 1075.84 12.7956 1080.73 13.1211C1085.61 13.4466 1089.19 13.6094 1091.47 13.6094C1094.72 13.6094 1098.3 14.0977 1102.21 15.0742C1106.44 16.0508 1108.56 18.8177 1108.56 23.375V107.848C1108.56 110.452 1107.42 112.405 1105.14 113.707C1102.86 115.009 1100.75 116.311 1098.79 117.613C1100.1 117.288 1102.05 117.125 1104.65 117.125C1107.26 116.799 1108.56 117.613 1108.56 119.566V289.977H1052.89C1050.29 289 1048.66 287.372 1048.01 285.094C1047.36 282.815 1047.04 280.374 1047.04 277.77V23.8633ZM1129.55 272.398C1129.55 265.888 1132.65 261.656 1138.83 259.703C1138.18 264.26 1139.32 267.841 1142.25 270.445C1145.18 272.724 1148.76 273.863 1152.99 273.863C1158.53 273.863 1161.94 271.422 1163.25 266.539C1164.55 261.656 1165.2 257.099 1165.2 252.867V148.375C1165.2 125.589 1165.04 102.802 1164.71 80.0156C1164.71 57.2292 1164.71 34.4427 1164.71 11.6562C1166.66 9.70312 1168.62 8.72656 1170.57 8.72656C1172.2 8.72656 1175.94 11.4935 1181.8 17.0273C1187.66 22.5612 1194.01 28.9089 1200.84 36.0703C1207.68 43.2318 1214.03 50.0677 1219.89 56.5781C1225.75 63.0885 1229.16 67.3203 1230.14 69.2734C1230.79 70.5755 1231.28 71.8776 1231.61 73.1797C1231.93 74.1562 1232.26 75.2956 1232.58 76.5977C1235.51 76.9232 1238.28 78.2253 1240.88 80.5039C1250.32 87.9909 1258.95 97.1055 1266.76 107.848C1274.57 118.264 1282.55 128.03 1290.69 137.145C1298.17 145.608 1305.82 153.909 1313.64 162.047C1321.45 169.859 1328.94 177.997 1336.1 186.461C1336.75 187.112 1337.4 187.763 1338.05 188.414C1338.7 189.065 1339.35 189.716 1340 190.367C1341.31 190.042 1341.96 188.902 1341.96 186.949V42.418C1341.96 35.9076 1340.33 30.0482 1337.07 24.8398C1333.82 19.306 1328.61 16.5391 1321.45 16.5391C1318.85 16.5391 1316.4 17.0273 1314.12 18.0039C1312.17 18.6549 1310.06 18.9805 1307.78 18.9805L1305.82 18.4922C1305.82 18.1667 1305.66 17.6784 1305.34 17.0273C1305.01 16.0508 1304.85 15.3997 1304.85 15.0742C1304.85 13.1211 1305.99 11.4935 1308.27 10.1914C1310.54 8.88932 1313.15 7.75 1316.08 6.77344C1319.01 5.79688 1321.94 5.14583 1324.87 4.82031C1328.12 4.16927 1330.4 3.84375 1331.7 3.84375C1341.79 3.84375 1349.93 5.30859 1356.12 8.23828C1362.3 10.8424 1367.18 14.7487 1370.77 19.957C1374.35 24.8398 1376.79 30.862 1378.09 38.0234C1379.39 45.1849 1380.04 53.1602 1380.04 61.9492C1380.04 75.6211 1379.88 88.9674 1379.55 101.988C1379.55 115.009 1379.55 128.355 1379.55 142.027C1379.55 143.004 1379.07 144.469 1378.09 146.422C1377.11 148.049 1376.3 149.189 1375.65 149.84C1377.28 152.118 1378.25 154.234 1378.58 156.188C1379.23 158.141 1379.55 160.582 1379.55 163.512V303.648C1379.55 305.927 1378.58 307.717 1376.62 309.02C1374.67 310.322 1372.72 310.973 1370.77 310.973C1368.49 310.973 1363.12 306.741 1354.65 298.277C1346.51 289.814 1336.59 279.072 1324.87 266.051C1313.15 253.03 1300.45 238.87 1286.78 223.57C1273.11 208.271 1260.09 193.948 1247.72 180.602C1235.35 166.93 1224.12 155.211 1214.03 145.445C1204.26 135.354 1197.1 129.332 1192.54 127.379V254.332C1192.54 264.749 1189.61 273.701 1183.75 281.188C1177.89 288.349 1169.43 291.93 1158.36 291.93C1155.11 291.93 1151.69 291.604 1148.11 290.953C1144.85 290.628 1141.76 289.651 1138.83 288.023C1136.23 286.396 1133.95 284.443 1132 282.164C1130.37 279.56 1129.55 276.305 1129.55 272.398ZM1412.27 23.8633C1412.27 20.2826 1414.06 17.8411 1417.64 16.5391C1421.55 14.9115 1425.94 13.9349 1430.82 13.6094C1436.03 12.9583 1441.08 12.7956 1445.96 13.1211C1450.84 13.4466 1454.42 13.6094 1456.7 13.6094C1459.96 13.6094 1463.54 14.0977 1467.45 15.0742C1471.68 16.0508 1473.79 18.8177 1473.79 23.375V107.848C1473.79 110.452 1472.65 112.405 1470.38 113.707C1468.1 115.009 1465.98 116.311 1464.03 117.613C1465.33 117.288 1467.28 117.125 1469.89 117.125C1472.49 116.799 1473.79 117.613 1473.79 119.566V289.977H1418.13C1415.52 289 1413.9 287.372 1413.25 285.094C1412.6 282.815 1412.27 280.374 1412.27 277.77V23.8633ZM1521.16 0.914062H1523.6L1524.57 2.86719C1524.25 3.84375 1523.92 4.82031 1523.6 5.79688C1523.27 6.77344 1523.11 7.75 1523.11 8.72656C1523.11 11.3307 1524.41 12.6328 1527.02 12.6328C1532.55 12.6328 1537.92 12.7956 1543.13 13.1211C1548.34 13.4466 1553.71 13.6094 1559.24 13.6094C1575.84 13.6094 1592.45 13.4466 1609.05 13.1211C1625.97 12.4701 1642.74 12.1445 1659.34 12.1445C1670.73 12.1445 1682.13 12.3073 1693.52 12.6328C1704.91 12.9583 1716.14 13.9349 1727.21 15.5625C1735.35 16.8646 1740.88 20.2826 1743.81 25.8164C1746.74 31.0247 1748.21 37.3724 1748.21 44.8594C1748.21 54.2995 1744.63 62.6003 1737.46 69.7617C1730.3 76.9232 1722 80.5039 1712.56 80.5039C1710.93 80.5039 1708.98 80.3411 1706.7 80.0156C1704.42 79.3646 1702.15 78.5508 1699.87 77.5742C1697.59 76.5977 1695.64 75.4583 1694.01 74.1562C1692.71 72.5286 1692.05 70.7383 1692.05 68.7852L1694.01 65.8555C1695.64 65.8555 1696.77 66.181 1697.43 66.832C1698.08 67.1576 1698.73 67.8086 1699.38 68.7852C1700.36 69.4362 1701.33 70.0872 1702.31 70.7383C1703.29 71.0638 1704.75 71.2266 1706.7 71.2266C1712.24 71.2266 1716.96 69.4362 1720.86 65.8555C1724.77 61.9492 1726.72 57.2292 1726.72 51.6953C1726.72 48.4401 1725.58 46.1615 1723.3 44.8594C1721.03 43.2318 1718.26 42.2552 1715 41.9297C1712.07 41.2786 1708.98 41.1159 1705.73 41.4414C1702.47 41.4414 1699.87 41.4414 1697.91 41.4414C1693.36 41.4414 1688.64 41.4414 1683.75 41.4414C1678.87 41.1159 1674.15 40.9531 1669.59 40.9531C1667.32 40.9531 1665.2 41.1159 1663.25 41.4414C1661.29 41.4414 1659.18 41.6042 1656.9 41.9297C1655.92 47.7891 1655.43 53.4857 1655.43 59.0195C1655.43 62.2747 1655.6 65.5299 1655.92 68.7852C1656.25 71.7148 1656.41 74.8073 1656.41 78.0625C1656.41 85.5495 1655.27 92.2227 1652.99 98.082C1654.95 100.686 1655.92 103.29 1655.92 105.895C1655.92 134.54 1655.43 163.186 1654.46 191.832C1653.81 220.478 1653.48 249.124 1653.48 277.77C1653.48 279.397 1653.48 281.839 1653.48 285.094C1653.81 288.023 1652.83 289.814 1650.55 290.465C1649.9 290.79 1647.95 290.953 1644.69 290.953C1641.44 291.279 1637.86 291.441 1633.95 291.441C1630.37 291.441 1626.79 291.441 1623.21 291.441C1619.95 291.441 1617.84 291.441 1616.86 291.441C1612.3 291.441 1608.07 291.116 1604.16 290.465C1600.26 290.139 1598.3 287.047 1598.3 281.188V241.637C1599.93 239.033 1602.21 237.73 1605.14 237.73H1606.61C1603.02 236.428 1600.26 233.987 1598.3 230.406C1598.3 201.435 1598.96 172.789 1600.26 144.469C1601.56 115.823 1602.21 87.0143 1602.21 58.043C1602.21 51.8581 1601.56 46.3242 1600.26 41.4414L1576.82 40.9531C1572.59 40.9531 1566.4 41.2786 1558.27 41.9297C1550.13 42.2552 1541.99 42.0924 1533.85 41.4414C1526.04 40.4648 1519.04 38.6745 1512.86 36.0703C1507 33.1406 1504.07 28.4206 1504.07 21.9102C1504.07 18.0039 1505.86 13.6094 1509.44 8.72656C1513.02 3.51823 1516.92 0.914062 1521.16 0.914062ZM1768.23 38.5117C1768.23 33.9544 1769.69 30.0482 1772.62 26.793C1775.88 23.5378 1779.62 20.7708 1783.85 18.4922C1788.41 15.888 1793.13 14.0977 1798.01 13.1211C1802.89 11.819 1807.13 11.168 1810.71 11.168C1819.5 11.168 1826.82 14.2604 1832.68 20.4453C1834.63 22.724 1837.73 26.793 1841.96 32.6523C1846.51 38.1862 1850.91 44.2083 1855.14 50.7188C1859.7 57.2292 1863.6 63.4141 1866.86 69.2734C1870.11 75.1328 1871.74 79.3646 1871.74 81.9688C1871.74 82.6198 1871.58 83.1081 1871.25 83.4336C1871.25 83.7591 1871.25 84.2474 1871.25 84.8984L1869.3 87.3398L1866.37 88.3164C1868.32 88.3164 1870.28 88.4792 1872.23 88.8047C1874.51 89.1302 1876.46 89.944 1878.09 91.2461C1878.74 92.5482 1880.21 95.4779 1882.48 100.035C1885.09 104.267 1887.86 108.661 1890.79 113.219C1893.71 117.776 1896.48 122.008 1899.09 125.914C1901.69 129.495 1903.48 131.285 1904.46 131.285C1906.08 131.285 1909.18 128.355 1913.73 122.496C1918.29 116.311 1923.17 109.312 1928.38 101.5C1933.59 93.6875 1938.47 86.2005 1943.03 79.0391C1947.91 71.8776 1951.01 67.1576 1952.31 64.8789L1955.24 60.9727C1955.89 59.9961 1956.54 59.0195 1957.19 58.043C1957.84 57.0664 1958.33 56.4154 1958.66 56.0898C1960.28 53.8112 1961.75 51.5326 1963.05 49.2539C1964.68 46.9753 1966.31 44.5339 1967.93 41.9297C1971.51 36.7214 1974.93 32.4896 1978.19 29.2344C1981.44 25.6536 1986.49 23.8633 1993.32 23.8633C1997.88 23.8633 2002.28 24.8398 2006.51 26.793C2011.07 28.7461 2013.34 32.4896 2013.34 38.0234C2013.34 39.3255 2013.18 40.9531 2012.86 42.9062C2012.86 44.8594 2011.88 45.8359 2009.93 45.8359C2006.35 45.8359 2004.07 44.6966 2003.09 42.418C2002.11 39.8138 2000.65 38.5117 1998.7 38.5117C1997.07 38.5117 1994.14 41.1159 1989.91 46.3242C1985.67 51.207 1980.95 57.5547 1975.75 65.3672C1970.54 72.8542 1965 81.3177 1959.14 90.7578C1953.29 99.8724 1947.75 108.824 1942.54 117.613C1937.33 126.077 1932.61 133.727 1928.38 140.562C1924.48 147.073 1921.71 151.63 1920.08 154.234C1920.41 164.651 1920.24 175.23 1919.59 185.973C1918.94 196.715 1918.62 207.294 1918.62 217.711L1918.13 281.188C1918.13 282.815 1917.97 284.768 1917.64 287.047C1917.64 289 1916.66 290.302 1914.71 290.953C1913.73 291.279 1911.94 291.441 1909.34 291.441C1906.74 291.441 1903.81 291.441 1900.55 291.441C1897.3 291.441 1894.2 291.441 1891.27 291.441C1888.67 291.441 1886.72 291.441 1885.41 291.441C1883.79 291.441 1881.51 291.441 1878.58 291.441C1875.65 291.767 1872.72 291.604 1869.79 290.953C1867.18 290.628 1864.74 289.977 1862.46 289C1860.51 287.698 1859.54 285.745 1859.54 283.141V251.891C1861.49 249.612 1864.26 248.473 1867.84 248.473C1864.91 248.147 1862.3 246.194 1860.02 242.613C1860.02 231.22 1860.51 220.152 1861.49 209.41C1862.46 198.342 1862.95 187.112 1862.95 175.719C1862.95 173.766 1862.95 171.812 1862.95 169.859C1862.95 167.581 1862.63 165.465 1861.98 163.512C1861.65 162.21 1859.7 158.629 1856.12 152.77C1852.86 146.585 1848.79 139.26 1843.91 130.797C1839.03 122.008 1833.66 112.568 1827.8 102.477C1821.94 92.3854 1816.24 82.7826 1810.71 73.668C1805.17 64.5534 1800.29 56.5781 1796.06 49.7422C1792.15 42.9062 1789.39 38.349 1787.76 36.0703L1784.34 35.0938L1782.88 36.0703C1783.2 38.349 1783.2 40.6276 1782.88 42.9062C1782.55 44.8594 1780.76 45.8359 1777.5 45.8359C1775.88 45.8359 1773.92 45.1849 1771.64 43.8828C1769.37 42.2552 1768.23 40.4648 1768.23 38.5117Z" fill="white"/>
</svg>
