<svg width="136" height="25" viewBox="0 0 136 25" fill="none" xmlns="http://www.w3.org/2000/svg">
<path d="M10.928 4.09314L8.48684 9.04266L3.02517 9.83892C2.04573 9.98098 1.65321 11.1885 2.36349 11.88L6.31488 15.7305L5.38031 21.1697C5.21208 22.1529 6.24759 22.8894 7.11488 22.4296L12.0009 19.8613L16.8868 22.4296C17.7541 22.8856 18.7896 22.1529 18.6214 21.1697L17.6868 15.7305L21.6382 11.88C22.3485 11.1885 21.956 9.98098 20.9765 9.83892L15.5149 9.04266L13.0738 4.09314C12.6364 3.2109 11.3691 3.19968 10.928 4.09314Z" fill="#FF4A17"/>
<path d="M38.928 4.09314L36.4868 9.04266L31.0252 9.83892C30.0457 9.98098 29.6532 11.1885 30.3635 11.88L34.3149 15.7305L33.3803 21.1697C33.2121 22.1529 34.2476 22.8894 35.1149 22.4296L40.0009 19.8613L44.8868 22.4296C45.7541 22.8856 46.7896 22.1529 46.6214 21.1697L45.6868 15.7305L49.6382 11.88C50.3485 11.1885 49.956 9.98098 48.9765 9.83892L43.5149 9.04266L41.0738 4.09314C40.6364 3.2109 39.3691 3.19968 38.928 4.09314Z" fill="#FF4A17"/>
<path d="M66.928 4.09314L64.4868 9.04266L59.0252 9.83892C58.0457 9.98098 57.6532 11.1885 58.3635 11.88L62.3149 15.7305L61.3803 21.1697C61.2121 22.1529 62.2476 22.8894 63.1149 22.4296L68.0009 19.8613L72.8868 22.4296C73.7541 22.8856 74.7896 22.1529 74.6214 21.1697L73.6868 15.7305L77.6382 11.88C78.3485 11.1885 77.956 9.98098 76.9765 9.83892L71.5149 9.04266L69.0738 4.09314C68.6364 3.2109 67.3691 3.19968 66.928 4.09314Z" fill="#FF4A17"/>
<path d="M94.928 4.09314L92.4868 9.04266L87.0252 9.83892C86.0457 9.98098 85.6532 11.1885 86.3635 11.88L90.3149 15.7305L89.3803 21.1697C89.2121 22.1529 90.2476 22.8894 91.1149 22.4296L96.0009 19.8613L100.887 22.4296C101.754 22.8856 102.79 22.1529 102.621 21.1697L101.687 15.7305L105.638 11.88C106.349 11.1885 105.956 9.98098 104.977 9.83892L99.5149 9.04266L97.0738 4.09314C96.6364 3.2109 95.3691 3.19968 94.928 4.09314Z" fill="#FF4A17"/>
<path d="M122.928 4.09314L120.487 9.04266L115.025 9.83892C114.046 9.98098 113.653 11.1885 114.363 11.88L118.315 15.7305L117.38 21.1697C117.212 22.1529 118.248 22.8894 119.115 22.4296L124.001 19.8613L128.887 22.4296C129.754 22.8856 130.79 22.1529 130.621 21.1697L129.687 15.7305L133.638 11.88C134.349 11.1885 133.956 9.98098 132.977 9.83892L127.515 9.04266L125.074 4.09314C124.636 3.2109 123.369 3.19968 122.928 4.09314Z" fill="#FF4A17"/>
</svg>
