<svg width="114" height="76" viewBox="0 0 114 76" fill="none" xmlns="http://www.w3.org/2000/svg">
<path d="M71.6255 0.00014223C71.0368 0.00578052 70.4744 0.164497 70.0577 0.442693L49.7305 14.038C47.2423 11.568 43.8854 9.54438 39.9547 8.14533C36.0241 6.74629 31.6399 6.01469 27.1875 6.01435C12.1981 6.01435 0 14.1745 0 24.2019C0 29.5672 3.51625 34.3867 9.0625 37.7211V69.6706C9.0625 73.005 13.1406 75.7331 18.125 75.7331H104.219C109.203 75.7331 113.281 73.005 113.281 69.6706V30.2644C113.281 26.93 109.203 24.2019 104.219 24.2019L90.9694 7.48447C90.7741 7.23777 90.4808 7.03174 90.1218 6.88946C89.7628 6.74719 89.3521 6.67421 88.9348 6.67818C88.5756 6.68239 88.2231 6.74357 87.9062 6.8569L84.5984 8.02988L73.2612 0.445838C73.0471 0.30208 72.7919 0.188433 72.5109 0.11189C72.2299 0.0353464 71.9288 -0.00263726 71.6255 0.00014223ZM71.6572 3.65877L80.4116 9.51517L53.2875 19.1395C52.9409 18.3427 52.5124 17.5628 52.0052 16.8054L71.6572 3.65877ZM27.1875 9.0456C39.7255 9.0456 49.8438 15.8144 49.8438 24.2019C49.8438 32.5924 39.7255 39.3581 27.1875 39.3581C14.6495 39.3581 4.53125 32.5924 4.53125 24.2019C4.53125 15.8144 14.6495 9.0456 27.1875 9.0456ZM88.0331 10.2426L99.0939 24.2019H54.375C54.375 23.541 54.3116 22.8859 54.2073 22.2433L88.0331 10.2426ZM25.9052 12.0769V14.8835C24.8402 14.9651 23.799 15.151 22.8148 15.4352C21.895 15.708 21.1066 16.0565 20.4541 16.4809C19.8197 16.9053 19.3212 17.4087 18.9678 17.9847C18.6325 18.5637 18.4603 19.2002 18.4603 19.8973C18.4603 20.6552 18.6597 21.3281 19.0494 21.904C19.4481 22.483 20.0145 22.9952 20.7531 23.4378C21.5053 23.8803 22.4161 24.2685 23.4719 24.5989C24.5413 24.9232 25.7511 25.2052 27.0923 25.4507C28.0938 25.672 28.9456 25.9054 29.648 26.1449C30.3684 26.3843 30.9484 26.6389 31.3834 26.9208C31.8366 27.2027 32.1628 27.5027 32.3667 27.827C32.5708 28.1638 32.6725 28.5244 32.6658 28.8879C32.6658 29.3425 32.5434 29.7672 32.2942 30.14C32.0399 30.5065 31.6614 30.8281 31.1886 31.0795C30.6643 31.3537 30.0658 31.5575 29.4259 31.6797C28.0311 31.9416 26.5581 31.9554 25.153 31.7193C24.5178 31.6109 23.9256 31.4113 23.4175 31.1343C22.8703 30.8273 22.4401 30.4377 22.1623 29.9976C21.8163 29.4263 21.6527 28.813 21.682 28.197H17.2641C17.2641 29.1579 17.4906 29.9822 17.9438 30.6703C18.3969 31.3523 18.995 31.9193 19.7472 32.3679C20.5175 32.8226 21.4056 33.162 22.3934 33.3985C23.3858 33.641 24.4008 33.7985 25.4566 33.8743V36.3235H28.9547V33.8743C30.2098 33.7894 31.3381 33.6198 32.3441 33.3652C33.2873 33.1341 34.1573 32.7865 34.9088 32.3406C35.6111 31.9162 36.1594 31.4161 36.5445 30.8372C36.9342 30.2491 37.12 29.5914 37.12 28.8608C37.1394 28.1824 36.9496 27.5084 36.5627 26.8812C36.1907 26.305 35.6356 25.7901 34.9359 25.3719C34.1391 24.9048 33.2407 24.5215 32.2716 24.2352C31.093 23.8729 29.8733 23.5737 28.6239 23.3408C27.6951 23.15 26.7867 22.9171 25.9052 22.6437C25.2712 22.4347 24.6803 22.1717 24.147 21.8614C23.7265 21.6182 23.3935 21.3147 23.1728 20.9734C22.9809 20.6167 22.8857 20.2401 22.8919 19.8611C22.8919 19.4185 22.9916 19.0123 23.1728 18.6485C23.3628 18.2865 23.6751 17.9586 24.0853 17.6905C24.4956 17.4224 24.9927 17.2212 25.5381 17.1025C26.1272 16.957 26.8114 16.8901 27.618 16.8901C28.3883 16.8901 29.077 16.9813 29.6797 17.1814C30.2725 17.3716 30.7908 17.6519 31.1931 17.9999C31.5964 18.3454 31.8955 18.7576 32.0948 19.2335C32.3123 19.7125 32.4211 20.24 32.4211 20.8098H36.8209C36.8209 19.082 36.173 17.7179 34.8816 16.7236C33.6128 15.7233 31.8003 15.1079 29.4577 14.8957V12.0769H25.9097H25.9052ZM53.9581 27.2331H104.219C106.77 27.2331 108.75 28.5608 108.75 30.2644V42.3894H83.8281C80.8259 42.3942 77.9487 43.1938 75.8259 44.6139C73.703 46.0341 72.5072 47.9591 72.5 49.9675C72.5 54.1415 77.5931 57.5456 83.8281 57.5456H108.75V69.6706C108.75 71.3772 106.77 72.7019 104.219 72.7019H18.125C15.5739 72.7019 13.5938 71.3772 13.5938 69.6706V39.9279C17.7195 41.5388 22.4105 42.3882 27.1875 42.3894C40.6272 42.3894 51.7922 35.8176 53.9581 27.2331ZM54.375 30.2644V33.2956H58.9062V30.2644H54.375ZM63.4375 30.2644V33.2956H67.9688V30.2644H63.4375ZM72.5 30.2644V33.2956H77.0312V30.2644H72.5ZM81.5625 30.2644V33.2956H86.0938V30.2644H81.5625ZM90.625 30.2644V33.2956H95.1562V30.2644H90.625ZM99.6875 30.2644V33.2956H104.219V30.2644H99.6875ZM99.6875 36.3269V39.3581H104.219V36.3269H99.6875ZM18.125 42.3894V45.4206H22.6562V42.3894H18.125ZM83.8281 45.4206H108.75V54.5144H83.8281C80.0219 54.5144 77.0312 52.5137 77.0312 49.9675C77.0312 47.4212 80.0219 45.4206 83.8281 45.4206ZM18.125 48.4519V51.4831H22.6562V48.4519H18.125ZM81.5625 48.4519V51.4831H86.0938V48.4519H81.5625ZM18.125 54.5144V57.5456H22.6562V54.5144H18.125ZM18.125 60.5769V63.6081H22.6562V60.5769H18.125ZM99.6875 60.5769V63.6081H104.219V60.5769H99.6875ZM18.125 66.6394V69.6706H22.6562V66.6394H18.125ZM27.1875 66.6394V69.6706H31.7188V66.6394H27.1875ZM36.25 66.6394V69.6706H40.7812V66.6394H36.25ZM45.3125 66.6394V69.6706H49.8438V66.6394H45.3125ZM54.375 66.6394V69.6706H58.9062V66.6394H54.375ZM63.4375 66.6394V69.6706H67.9688V66.6394H63.4375ZM72.5 66.6394V69.6706H77.0312V66.6394H72.5ZM81.5625 66.6394V69.6706H86.0938V66.6394H81.5625ZM90.625 66.6394V69.6706H95.1562V66.6394H90.625ZM99.6875 66.6394V69.6706H104.219V66.6394H99.6875Z" fill="black"/>
</svg>
