<svg width="14" height="12" viewBox="0 0 14 12" fill="none" xmlns="http://www.w3.org/2000/svg">
<path d="M7.00804 6.56864L2.45878 11.1179C2.14435 11.4323 1.6359 11.4323 1.32481 11.1179L0.568833 10.3619C0.254399 10.0475 0.254399 9.53903 0.568833 9.22794L3.79345 6.00332L0.568833 2.7787C0.254399 2.46427 0.254399 1.95582 0.568833 1.64474L1.32147 0.882066C1.6359 0.567632 2.14435 0.567632 2.45544 0.882066L7.00469 5.43132C7.32247 5.74576 7.32247 6.2542 7.00804 6.56864ZM13.4305 5.43132L8.88126 0.882066C8.56683 0.567632 8.05838 0.567632 7.74729 0.882066L6.99131 1.63804C6.67688 1.95248 6.67688 2.46093 6.99131 2.77201L10.2159 5.99663L6.99131 9.22125C6.67688 9.53569 6.67688 10.0441 6.99131 10.3552L7.74729 11.1112C8.06172 11.4256 8.57017 11.4256 8.88126 11.1112L13.4305 6.56195C13.7449 6.2542 13.7449 5.74576 13.4305 5.43132Z" fill="#E4E4E4"/>
</svg>
